<?xml version="1.0" encoding="UTF-8" standalone="no"?><svg xmlns="http://www.w3.org/2000/svg" xmlns:xlink="http://www.w3.org/1999/xlink" contentScriptType="application/ecmascript" contentStyleType="text/css" height="832.5px" preserveAspectRatio="none" style="width:1094px;height:832px;" version="1.1" viewBox="0 0 1094 832" width="1094.25px" zoomAndPan="magnify"><defs><filter height="300%" id="f144rovnasauzo" width="300%" x="-1" y="-1"><feGaussianBlur result="blurOut" stdDeviation="1.5"/><feColorMatrix in="blurOut" result="blurOut2" type="matrix" values="0 0 0 0 0 0 0 0 0 0 0 0 0 0 0 0 0 0 .4 0"/><feOffset dx="3.0" dy="3.0" in="blurOut2" result="blurOut3"/><feBlend in="SourceGraphic" in2="blurOut3" mode="normal"/></filter></defs><g><!--MD5=[b56d8ef9af079015670ad96965866810]
cluster mastermind--><polygon fill="#FFFFFF" filter="url(#f144rovnasauzo)" points="12,4.5,78,4.5,83.25,22.207,1081.5,22.207,1081.5,827.625,12,827.625,12,4.5" style="stroke: #000000; stroke-width: 1.125;"/><line style="stroke: #000000; stroke-width: 1.125;" x1="12" x2="83.25" y1="22.207" y2="22.207"/><text fill="#000000" font-family="sans-serif" font-size="10.5" font-weight="bold" lengthAdjust="spacingAndGlyphs" textLength="61.5" x="15" y="16.8999">mastermind</text><!--MD5=[f4e70ef68289585296b9045165e58692]
cluster controllers--><polygon fill="#FFFFFF" filter="url(#f144rovnasauzo)" points="36,190.5,98.25,190.5,103.5,208.207,468,208.207,468,387.75,36,387.75,36,190.5" style="stroke: #000000; stroke-width: 1.125;"/><line style="stroke: #000000; stroke-width: 1.125;" x1="36" x2="103.5" y1="208.207" y2="208.207"/><text fill="#000000" font-family="sans-serif" font-size="10.5" font-weight="bold" lengthAdjust="spacingAndGlyphs" textLength="57.75" x="39" y="202.8999">controllers</text><!--MD5=[a60570e4b426f702ccbb0d459e3b9417]
cluster models--><polygon fill="#FFFFFF" filter="url(#f144rovnasauzo)" points="112.5,525.375,155.25,525.375,160.5,543.082,475.5,543.082,475.5,803.625,112.5,803.625,112.5,525.375" style="stroke: #000000; stroke-width: 1.125;"/><line style="stroke: #000000; stroke-width: 1.125;" x1="112.5" x2="160.5" y1="543.082" y2="543.082"/><text fill="#000000" font-family="sans-serif" font-size="10.5" font-weight="bold" lengthAdjust="spacingAndGlyphs" textLength="38.25" x="115.5" y="537.7749">models</text><!--MD5=[c52f45833d539af9e29a9d34b8b7302b]
cluster utils--><polygon fill="#FFFFFF" filter="url(#f144rovnasauzo)" points="947.25,300.75,974.25,300.75,979.5,318.457,1057.5,318.457,1057.5,387.75,947.25,387.75,947.25,300.75" style="stroke: #000000; stroke-width: 1.125;"/><line style="stroke: #000000; stroke-width: 1.125;" x1="947.25" x2="979.5" y1="318.457" y2="318.457"/><text fill="#000000" font-family="sans-serif" font-size="10.5" font-weight="bold" lengthAdjust="spacingAndGlyphs" textLength="22.5" x="950.25" y="313.1499">utils</text><!--MD5=[e2a75efa8a0f57c2afae8bf75386f79c]
cluster views--><polygon fill="#FFFFFF" filter="url(#f144rovnasauzo)" points="505.5,190.5,540.75,190.5,546,208.207,917.25,208.207,917.25,708.375,505.5,708.375,505.5,190.5" style="stroke: #000000; stroke-width: 1.125;"/><line style="stroke: #000000; stroke-width: 1.125;" x1="505.5" x2="546" y1="208.207" y2="208.207"/><text fill="#000000" font-family="sans-serif" font-size="10.5" font-weight="bold" lengthAdjust="spacingAndGlyphs" textLength="30.75" x="508.5" y="202.8999">views</text><!--MD5=[4b7a55d430ce43d42ce9ebad9e6b4010]
cluster console--><polygon fill="#FFFFFF" filter="url(#f144rovnasauzo)" points="599.25,418.5,645.75,418.5,651,436.207,887.25,436.207,887.25,606.375,599.25,606.375,599.25,418.5" style="stroke: #000000; stroke-width: 1.125;"/><line style="stroke: #000000; stroke-width: 1.125;" x1="599.25" x2="651" y1="436.207" y2="436.207"/><text fill="#000000" font-family="sans-serif" font-size="10.5" font-weight="bold" lengthAdjust="spacingAndGlyphs" textLength="42" x="602.25" y="430.8999">console</text><!--MD5=[7283a9eed84464550b6d5ebf39c68b05]
class Mastermind--><rect codeLine="14" fill="#FEFECE" filter="url(#f144rovnasauzo)" height="36" id="Mastermind" style="stroke: #A80036; stroke-width: 1.125;" width="72" x="450.75" y="113.25"/><ellipse cx="462" cy="125.25" fill="#A9DCDF" rx="8.25" ry="8.25" style="stroke: #A80036; stroke-width: 0.75;"/><path d="M463.3125,126.375 L460.8398,126.375 L460.5117,127.125 L460.5117,127.125 L460.8633,127.125 L461.25,127.5938 L461.25,127.875 L461.25,128.1563 L460.8633,128.625 L460.5117,128.625 L459.0938,128.625 L458.6367,128.625 L458.25,128.1563 L458.25,127.875 L458.25,127.5938 L458.6367,127.125 L459.0938,127.125 L460.8281,122.625 L460.1719,122.625 L459.3867,122.625 L459,122.1563 L459,121.875 L459,121.5938 L459.3867,121.125 L460.1719,121.125 L462.9258,121.125 L464.9414,127.125 L465.3633,127.125 L465.3633,127.125 L465.75,127.5938 L465.75,127.875 L465.75,128.1563 L465.3633,128.625 L464.9414,128.625 L463.5234,128.625 L463.1367,128.625 L462.75,128.1563 L462.75,127.875 L462.75,127.5938 L463.1367,127.125 L463.5234,127.125 L463.5234,127.125 L463.3125,126.375 Z M462.9023,124.875 L462,122.1914 L461.2266,124.875 L462.9023,124.875 Z " fill="#000000"/><text fill="#000000" font-family="sans-serif" font-size="9" font-style="italic" lengthAdjust="spacingAndGlyphs" textLength="48" x="472.5" y="128.9326">Mastermind</text><line style="stroke: #A80036; stroke-width: 1.125;" x1="451.5" x2="522" y1="137.25" y2="137.25"/><line style="stroke: #A80036; stroke-width: 1.125;" x1="451.5" x2="522" y1="143.25" y2="143.25"/><!--MD5=[b42ceb2c5584a967df5f7acfe803d0f5]
class ConsoleMastermind--><rect codeLine="15" fill="#FEFECE" filter="url(#f144rovnasauzo)" height="36" id="ConsoleMastermind" style="stroke: #A80036; stroke-width: 1.125;" width="108" x="366.75" y="31.5"/><ellipse cx="378" cy="43.5" fill="#ADD1B2" rx="8.25" ry="8.25" style="stroke: #A80036; stroke-width: 0.75;"/><path d="M379.5,40.875 Q379.6523,40.5 379.8281,40.3125 Q380.0039,40.125 380.2031,40.125 Q380.5547,40.125 380.7773,40.3359 Q381,40.5469 381,41.0391 L381,42.2109 Q381,42.7031 380.7891,42.9141 Q380.5781,43.125 380.25,43.125 Q379.957,43.125 379.7695,42.9961 Q379.582,42.8672 379.5,42.5273 Q379.4648,42.293 379.3359,42.1641 Q379.1016,41.918 378.6797,41.7773 Q378.2578,41.625 377.8359,41.625 Q377.3086,41.625 376.8633,41.8359 Q376.4297,42.0469 376.0898,42.5156 Q375.75,42.9844 375.75,43.6289 L375.75,44.3203 Q375.75,45.0938 376.3828,45.6094 Q377.0156,46.125 378.1406,46.125 Q378.8086,46.125 379.2773,45.9727 Q379.5469,45.8906 379.8516,45.6211 Q380.0508,45.4688 380.1563,45.4219 Q380.2617,45.375 380.3906,45.375 Q380.6367,45.375 380.8125,45.5742 Q381,45.7617 381,46.0313 Q381,46.2891 380.7422,46.5938 Q380.3672,47.0391 379.7695,47.2852 Q378.9844,47.625 378.0234,47.625 Q376.8984,47.625 375.9961,47.1797 Q375.2695,46.8281 374.7539,46.0664 Q374.25,45.3047 374.25,44.4023 L374.25,43.582 Q374.25,42.6445 374.6953,41.8242 Q375.1523,41.0039 375.9375,40.5703 Q376.7344,40.125 377.625,40.125 Q378.1641,40.125 378.6328,40.3125 Q379.1016,40.5 379.5,40.875 Z " fill="#000000"/><text fill="#000000" font-family="sans-serif" font-size="9" lengthAdjust="spacingAndGlyphs" textLength="84" x="388.5" y="47.1826">ConsoleMastermind</text><line style="stroke: #A80036; stroke-width: 1.125;" x1="367.5" x2="474" y1="55.5" y2="55.5"/><line style="stroke: #A80036; stroke-width: 1.125;" x1="367.5" x2="474" y1="61.5" y2="61.5"/><!--MD5=[3dbb96204e83d62728e291fc10d13f13]
class GraphicMastermind--><rect codeLine="16" fill="#FEFECE" filter="url(#f144rovnasauzo)" height="36" id="GraphicMastermind" style="stroke: #A80036; stroke-width: 1.125;" width="105" x="501" y="31.5"/><ellipse cx="512.25" cy="43.5" fill="#ADD1B2" rx="8.25" ry="8.25" style="stroke: #A80036; stroke-width: 0.75;"/><path d="M513.75,40.875 Q513.9023,40.5 514.0781,40.3125 Q514.2539,40.125 514.4531,40.125 Q514.8047,40.125 515.0273,40.3359 Q515.25,40.5469 515.25,41.0391 L515.25,42.2109 Q515.25,42.7031 515.0391,42.9141 Q514.8281,43.125 514.5,43.125 Q514.207,43.125 514.0195,42.9961 Q513.832,42.8672 513.75,42.5273 Q513.7148,42.293 513.5859,42.1641 Q513.3516,41.918 512.9297,41.7773 Q512.5078,41.625 512.0859,41.625 Q511.5586,41.625 511.1133,41.8359 Q510.6797,42.0469 510.3398,42.5156 Q510,42.9844 510,43.6289 L510,44.3203 Q510,45.0938 510.6328,45.6094 Q511.2656,46.125 512.3906,46.125 Q513.0586,46.125 513.5273,45.9727 Q513.7969,45.8906 514.1016,45.6211 Q514.3008,45.4688 514.4063,45.4219 Q514.5117,45.375 514.6406,45.375 Q514.8867,45.375 515.0625,45.5742 Q515.25,45.7617 515.25,46.0313 Q515.25,46.2891 514.9922,46.5938 Q514.6172,47.0391 514.0195,47.2852 Q513.2344,47.625 512.2734,47.625 Q511.1484,47.625 510.2461,47.1797 Q509.5195,46.8281 509.0039,46.0664 Q508.5,45.3047 508.5,44.4023 L508.5,43.582 Q508.5,42.6445 508.9453,41.8242 Q509.4023,41.0039 510.1875,40.5703 Q510.9844,40.125 511.875,40.125 Q512.4141,40.125 512.8828,40.3125 Q513.3516,40.5 513.75,40.875 Z " fill="#000000"/><text fill="#000000" font-family="sans-serif" font-size="9" lengthAdjust="spacingAndGlyphs" textLength="81" x="522.75" y="47.1826">GraphicMastermind</text><line style="stroke: #A80036; stroke-width: 1.125;" x1="501.75" x2="605.25" y1="55.5" y2="55.5"/><line style="stroke: #A80036; stroke-width: 1.125;" x1="501.75" x2="605.25" y1="61.5" y2="61.5"/><!--MD5=[1d7ba1c7002d54515419844fbd155368]
class Controller--><rect codeLine="19" fill="#FEFECE" filter="url(#f144rovnasauzo)" height="36" id="Controller" style="stroke: #A80036; stroke-width: 1.125;" width="64.5" x="257.25" y="223.5"/><ellipse cx="268.5" cy="235.5" fill="#ADD1B2" rx="8.25" ry="8.25" style="stroke: #A80036; stroke-width: 0.75;"/><path d="M270,232.875 Q270.1523,232.5 270.3281,232.3125 Q270.5039,232.125 270.7031,232.125 Q271.0547,232.125 271.2773,232.3359 Q271.5,232.5469 271.5,233.0391 L271.5,234.2109 Q271.5,234.7031 271.2891,234.9141 Q271.0781,235.125 270.75,235.125 Q270.457,235.125 270.2695,234.9961 Q270.082,234.8672 270,234.5273 Q269.9648,234.293 269.8359,234.1641 Q269.6016,233.918 269.1797,233.7773 Q268.7578,233.625 268.3359,233.625 Q267.8086,233.625 267.3633,233.8359 Q266.9297,234.0469 266.5898,234.5156 Q266.25,234.9844 266.25,235.6289 L266.25,236.3203 Q266.25,237.0938 266.8828,237.6094 Q267.5156,238.125 268.6406,238.125 Q269.3086,238.125 269.7773,237.9727 Q270.0469,237.8906 270.3516,237.6211 Q270.5508,237.4688 270.6563,237.4219 Q270.7617,237.375 270.8906,237.375 Q271.1367,237.375 271.3125,237.5742 Q271.5,237.7617 271.5,238.0313 Q271.5,238.2891 271.2422,238.5938 Q270.8672,239.0391 270.2695,239.2852 Q269.4844,239.625 268.5234,239.625 Q267.3984,239.625 266.4961,239.1797 Q265.7695,238.8281 265.2539,238.0664 Q264.75,237.3047 264.75,236.4023 L264.75,235.582 Q264.75,234.6445 265.1953,233.8242 Q265.6523,233.0039 266.4375,232.5703 Q267.2344,232.125 268.125,232.125 Q268.6641,232.125 269.1328,232.3125 Q269.6016,232.5 270,232.875 Z " fill="#000000"/><text fill="#000000" font-family="sans-serif" font-size="9" lengthAdjust="spacingAndGlyphs" textLength="40.5" x="279" y="239.1826">Controller</text><line style="stroke: #A80036; stroke-width: 1.125;" x1="258" x2="321" y1="247.5" y2="247.5"/><line style="stroke: #A80036; stroke-width: 1.125;" x1="258" x2="321" y1="253.5" y2="253.5"/><!--MD5=[92433bfbd7559c1d4e4a44c9d1c48b0e]
class ProposeCombinationController--><rect codeLine="20" fill="#FEFECE" filter="url(#f144rovnasauzo)" height="36" id="ProposeCombinationController" style="stroke: #A80036; stroke-width: 1.125;" width="153" x="60" y="333.75"/><ellipse cx="71.25" cy="345.75" fill="#ADD1B2" rx="8.25" ry="8.25" style="stroke: #A80036; stroke-width: 0.75;"/><path d="M72.75,343.125 Q72.9023,342.75 73.0781,342.5625 Q73.2539,342.375 73.4531,342.375 Q73.8047,342.375 74.0273,342.5859 Q74.25,342.7969 74.25,343.2891 L74.25,344.4609 Q74.25,344.9531 74.0391,345.1641 Q73.8281,345.375 73.5,345.375 Q73.207,345.375 73.0195,345.2461 Q72.832,345.1172 72.75,344.7773 Q72.7148,344.543 72.5859,344.4141 Q72.3516,344.168 71.9297,344.0273 Q71.5078,343.875 71.0859,343.875 Q70.5586,343.875 70.1133,344.0859 Q69.6797,344.2969 69.3398,344.7656 Q69,345.2344 69,345.8789 L69,346.5703 Q69,347.3438 69.6328,347.8594 Q70.2656,348.375 71.3906,348.375 Q72.0586,348.375 72.5273,348.2227 Q72.7969,348.1406 73.1016,347.8711 Q73.3008,347.7188 73.4063,347.6719 Q73.5117,347.625 73.6406,347.625 Q73.8867,347.625 74.0625,347.8242 Q74.25,348.0117 74.25,348.2813 Q74.25,348.5391 73.9922,348.8438 Q73.6172,349.2891 73.0195,349.5352 Q72.2344,349.875 71.2734,349.875 Q70.1484,349.875 69.2461,349.4297 Q68.5195,349.0781 68.0039,348.3164 Q67.5,347.5547 67.5,346.6523 L67.5,345.832 Q67.5,344.8945 67.9453,344.0742 Q68.4023,343.2539 69.1875,342.8203 Q69.9844,342.375 70.875,342.375 Q71.4141,342.375 71.8828,342.5625 Q72.3516,342.75 72.75,343.125 Z " fill="#000000"/><text fill="#000000" font-family="sans-serif" font-size="9" lengthAdjust="spacingAndGlyphs" textLength="129" x="81.75" y="349.4326">ProposeCombinationController</text><line style="stroke: #A80036; stroke-width: 1.125;" x1="60.75" x2="212.25" y1="357.75" y2="357.75"/><line style="stroke: #A80036; stroke-width: 1.125;" x1="60.75" x2="212.25" y1="363.75" y2="363.75"/><!--MD5=[1a47bbf44ccee225df9b18c5b6629853]
class ResumeController--><rect codeLine="21" fill="#FEFECE" filter="url(#f144rovnasauzo)" height="36" id="ResumeController" style="stroke: #A80036; stroke-width: 1.125;" width="100.5" x="239.25" y="333.75"/><ellipse cx="250.5" cy="345.75" fill="#ADD1B2" rx="8.25" ry="8.25" style="stroke: #A80036; stroke-width: 0.75;"/><path d="M252,343.125 Q252.1523,342.75 252.3281,342.5625 Q252.5039,342.375 252.7031,342.375 Q253.0547,342.375 253.2773,342.5859 Q253.5,342.7969 253.5,343.2891 L253.5,344.4609 Q253.5,344.9531 253.2891,345.1641 Q253.0781,345.375 252.75,345.375 Q252.457,345.375 252.2695,345.2461 Q252.082,345.1172 252,344.7773 Q251.9648,344.543 251.8359,344.4141 Q251.6016,344.168 251.1797,344.0273 Q250.7578,343.875 250.3359,343.875 Q249.8086,343.875 249.3633,344.0859 Q248.9297,344.2969 248.5898,344.7656 Q248.25,345.2344 248.25,345.8789 L248.25,346.5703 Q248.25,347.3438 248.8828,347.8594 Q249.5156,348.375 250.6406,348.375 Q251.3086,348.375 251.7773,348.2227 Q252.0469,348.1406 252.3516,347.8711 Q252.5508,347.7188 252.6563,347.6719 Q252.7617,347.625 252.8906,347.625 Q253.1367,347.625 253.3125,347.8242 Q253.5,348.0117 253.5,348.2813 Q253.5,348.5391 253.2422,348.8438 Q252.8672,349.2891 252.2695,349.5352 Q251.4844,349.875 250.5234,349.875 Q249.3984,349.875 248.4961,349.4297 Q247.7695,349.0781 247.2539,348.3164 Q246.75,347.5547 246.75,346.6523 L246.75,345.832 Q246.75,344.8945 247.1953,344.0742 Q247.6523,343.2539 248.4375,342.8203 Q249.2344,342.375 250.125,342.375 Q250.6641,342.375 251.1328,342.5625 Q251.6016,342.75 252,343.125 Z " fill="#000000"/><text fill="#000000" font-family="sans-serif" font-size="9" lengthAdjust="spacingAndGlyphs" textLength="76.5" x="261" y="349.4326">ResumeController</text><line style="stroke: #A80036; stroke-width: 1.125;" x1="240" x2="339" y1="357.75" y2="357.75"/><line style="stroke: #A80036; stroke-width: 1.125;" x1="240" x2="339" y1="363.75" y2="363.75"/><!--MD5=[47c371471411cfedeee61b1a5bdaee47]
class StartController--><rect codeLine="22" fill="#FEFECE" filter="url(#f144rovnasauzo)" height="36" id="StartController" style="stroke: #A80036; stroke-width: 1.125;" width="83.25" x="366.375" y="333.75"/><ellipse cx="377.625" cy="345.75" fill="#ADD1B2" rx="8.25" ry="8.25" style="stroke: #A80036; stroke-width: 0.75;"/><path d="M379.125,343.125 Q379.2773,342.75 379.4531,342.5625 Q379.6289,342.375 379.8281,342.375 Q380.1797,342.375 380.4023,342.5859 Q380.625,342.7969 380.625,343.2891 L380.625,344.4609 Q380.625,344.9531 380.4141,345.1641 Q380.2031,345.375 379.875,345.375 Q379.582,345.375 379.3945,345.2461 Q379.207,345.1172 379.125,344.7773 Q379.0898,344.543 378.9609,344.4141 Q378.7266,344.168 378.3047,344.0273 Q377.8828,343.875 377.4609,343.875 Q376.9336,343.875 376.4883,344.0859 Q376.0547,344.2969 375.7148,344.7656 Q375.375,345.2344 375.375,345.8789 L375.375,346.5703 Q375.375,347.3438 376.0078,347.8594 Q376.6406,348.375 377.7656,348.375 Q378.4336,348.375 378.9023,348.2227 Q379.1719,348.1406 379.4766,347.8711 Q379.6758,347.7188 379.7813,347.6719 Q379.8867,347.625 380.0156,347.625 Q380.2617,347.625 380.4375,347.8242 Q380.625,348.0117 380.625,348.2813 Q380.625,348.5391 380.3672,348.8438 Q379.9922,349.2891 379.3945,349.5352 Q378.6094,349.875 377.6484,349.875 Q376.5234,349.875 375.6211,349.4297 Q374.8945,349.0781 374.3789,348.3164 Q373.875,347.5547 373.875,346.6523 L373.875,345.832 Q373.875,344.8945 374.3203,344.0742 Q374.7773,343.2539 375.5625,342.8203 Q376.3594,342.375 377.25,342.375 Q377.7891,342.375 378.2578,342.5625 Q378.7266,342.75 379.125,343.125 Z " fill="#000000"/><text fill="#000000" font-family="sans-serif" font-size="9" lengthAdjust="spacingAndGlyphs" textLength="59.25" x="388.125" y="349.4326">StartController</text><line style="stroke: #A80036; stroke-width: 1.125;" x1="367.125" x2="448.875" y1="357.75" y2="357.75"/><line style="stroke: #A80036; stroke-width: 1.125;" x1="367.125" x2="448.875" y1="363.75" y2="363.75"/><!--MD5=[b6dcce5e5ef3c84b0b048d11301373dd]
class Game--><rect codeLine="27" fill="#FEFECE" filter="url(#f144rovnasauzo)" height="36" id="Game" style="stroke: #A80036; stroke-width: 1.125;" width="49.5" x="320.25" y="558.375"/><ellipse cx="331.5" cy="570.375" fill="#ADD1B2" rx="8.25" ry="8.25" style="stroke: #A80036; stroke-width: 0.75;"/><path d="M333,567.75 Q333.1523,567.375 333.3281,567.1875 Q333.5039,567 333.7031,567 Q334.0547,567 334.2773,567.2109 Q334.5,567.4219 334.5,567.9141 L334.5,569.0859 Q334.5,569.5781 334.2891,569.7891 Q334.0781,570 333.75,570 Q333.457,570 333.2695,569.8711 Q333.082,569.7422 333,569.4023 Q332.9648,569.168 332.8359,569.0391 Q332.6016,568.793 332.1797,568.6523 Q331.7578,568.5 331.3359,568.5 Q330.8086,568.5 330.3633,568.7109 Q329.9297,568.9219 329.5898,569.3906 Q329.25,569.8594 329.25,570.5039 L329.25,571.1953 Q329.25,571.9688 329.8828,572.4844 Q330.5156,573 331.6406,573 Q332.3086,573 332.7773,572.8477 Q333.0469,572.7656 333.3516,572.4961 Q333.5508,572.3438 333.6563,572.2969 Q333.7617,572.25 333.8906,572.25 Q334.1367,572.25 334.3125,572.4492 Q334.5,572.6367 334.5,572.9063 Q334.5,573.1641 334.2422,573.4688 Q333.8672,573.9141 333.2695,574.1602 Q332.4844,574.5 331.5234,574.5 Q330.3984,574.5 329.4961,574.0547 Q328.7695,573.7031 328.2539,572.9414 Q327.75,572.1797 327.75,571.2773 L327.75,570.457 Q327.75,569.5195 328.1953,568.6992 Q328.6523,567.8789 329.4375,567.4453 Q330.2344,567 331.125,567 Q331.6641,567 332.1328,567.1875 Q332.6016,567.375 333,567.75 Z " fill="#000000"/><text fill="#000000" font-family="sans-serif" font-size="9" lengthAdjust="spacingAndGlyphs" textLength="25.5" x="342" y="574.0576">Game</text><line style="stroke: #A80036; stroke-width: 1.125;" x1="321" x2="369" y1="582.375" y2="582.375"/><line style="stroke: #A80036; stroke-width: 1.125;" x1="321" x2="369" y1="588.375" y2="588.375"/><!--MD5=[28491d17d5ee38c9c116625a5ffc259a]
class Combination--><rect codeLine="28" fill="#FEFECE" filter="url(#f144rovnasauzo)" height="36" id="Combination" style="stroke: #A80036; stroke-width: 1.125;" width="77.25" x="214.125" y="654.375"/><ellipse cx="225.375" cy="666.375" fill="#ADD1B2" rx="8.25" ry="8.25" style="stroke: #A80036; stroke-width: 0.75;"/><path d="M226.875,663.75 Q227.0273,663.375 227.2031,663.1875 Q227.3789,663 227.5781,663 Q227.9297,663 228.1523,663.2109 Q228.375,663.4219 228.375,663.9141 L228.375,665.0859 Q228.375,665.5781 228.1641,665.7891 Q227.9531,666 227.625,666 Q227.332,666 227.1445,665.8711 Q226.957,665.7422 226.875,665.4023 Q226.8398,665.168 226.7109,665.0391 Q226.4766,664.793 226.0547,664.6523 Q225.6328,664.5 225.2109,664.5 Q224.6836,664.5 224.2383,664.7109 Q223.8047,664.9219 223.4648,665.3906 Q223.125,665.8594 223.125,666.5039 L223.125,667.1953 Q223.125,667.9688 223.7578,668.4844 Q224.3906,669 225.5156,669 Q226.1836,669 226.6523,668.8477 Q226.9219,668.7656 227.2266,668.4961 Q227.4258,668.3438 227.5313,668.2969 Q227.6367,668.25 227.7656,668.25 Q228.0117,668.25 228.1875,668.4492 Q228.375,668.6367 228.375,668.9063 Q228.375,669.1641 228.1172,669.4688 Q227.7422,669.9141 227.1445,670.1602 Q226.3594,670.5 225.3984,670.5 Q224.2734,670.5 223.3711,670.0547 Q222.6445,669.7031 222.1289,668.9414 Q221.625,668.1797 221.625,667.2773 L221.625,666.457 Q221.625,665.5195 222.0703,664.6992 Q222.5273,663.8789 223.3125,663.4453 Q224.1094,663 225,663 Q225.5391,663 226.0078,663.1875 Q226.4766,663.375 226.875,663.75 Z " fill="#000000"/><text fill="#000000" font-family="sans-serif" font-size="9" lengthAdjust="spacingAndGlyphs" textLength="53.25" x="235.875" y="670.0576">Combination</text><line style="stroke: #A80036; stroke-width: 1.125;" x1="214.875" x2="290.625" y1="678.375" y2="678.375"/><line style="stroke: #A80036; stroke-width: 1.125;" x1="214.875" x2="290.625" y1="684.375" y2="684.375"/><!--MD5=[e370ee5c0c15ce04544d5f5a73174d72]
class SecretCombination--><rect codeLine="29" fill="#FEFECE" filter="url(#f144rovnasauzo)" height="36" id="SecretCombination" style="stroke: #A80036; stroke-width: 1.125;" width="103.5" x="354" y="749.625"/><ellipse cx="365.25" cy="761.625" fill="#ADD1B2" rx="8.25" ry="8.25" style="stroke: #A80036; stroke-width: 0.75;"/><path d="M366.75,759 Q366.9023,758.625 367.0781,758.4375 Q367.2539,758.25 367.4531,758.25 Q367.8047,758.25 368.0273,758.4609 Q368.25,758.6719 368.25,759.1641 L368.25,760.3359 Q368.25,760.8281 368.0391,761.0391 Q367.8281,761.25 367.5,761.25 Q367.207,761.25 367.0195,761.1211 Q366.832,760.9922 366.75,760.6523 Q366.7148,760.418 366.5859,760.2891 Q366.3516,760.043 365.9297,759.9023 Q365.5078,759.75 365.0859,759.75 Q364.5586,759.75 364.1133,759.9609 Q363.6797,760.1719 363.3398,760.6406 Q363,761.1094 363,761.7539 L363,762.4453 Q363,763.2188 363.6328,763.7344 Q364.2656,764.25 365.3906,764.25 Q366.0586,764.25 366.5273,764.0977 Q366.7969,764.0156 367.1016,763.7461 Q367.3008,763.5938 367.4063,763.5469 Q367.5117,763.5 367.6406,763.5 Q367.8867,763.5 368.0625,763.6992 Q368.25,763.8867 368.25,764.1563 Q368.25,764.4141 367.9922,764.7188 Q367.6172,765.1641 367.0195,765.4102 Q366.2344,765.75 365.2734,765.75 Q364.1484,765.75 363.2461,765.3047 Q362.5195,764.9531 362.0039,764.1914 Q361.5,763.4297 361.5,762.5273 L361.5,761.707 Q361.5,760.7695 361.9453,759.9492 Q362.4023,759.1289 363.1875,758.6953 Q363.9844,758.25 364.875,758.25 Q365.4141,758.25 365.8828,758.4375 Q366.3516,758.625 366.75,759 Z " fill="#000000"/><text fill="#000000" font-family="sans-serif" font-size="9" lengthAdjust="spacingAndGlyphs" textLength="79.5" x="375.75" y="765.3076">SecretCombination</text><line style="stroke: #A80036; stroke-width: 1.125;" x1="354.75" x2="456.75" y1="773.625" y2="773.625"/><line style="stroke: #A80036; stroke-width: 1.125;" x1="354.75" x2="456.75" y1="779.625" y2="779.625"/><!--MD5=[cf489b19c51ee25e76ddca093e62e620]
class ProposedCombination--><rect codeLine="30" fill="#FEFECE" filter="url(#f144rovnasauzo)" height="36" id="ProposedCombination" style="stroke: #A80036; stroke-width: 1.125;" width="117.75" x="209.625" y="749.625"/><ellipse cx="220.875" cy="761.625" fill="#ADD1B2" rx="8.25" ry="8.25" style="stroke: #A80036; stroke-width: 0.75;"/><path d="M222.375,759 Q222.5273,758.625 222.7031,758.4375 Q222.8789,758.25 223.0781,758.25 Q223.4297,758.25 223.6523,758.4609 Q223.875,758.6719 223.875,759.1641 L223.875,760.3359 Q223.875,760.8281 223.6641,761.0391 Q223.4531,761.25 223.125,761.25 Q222.832,761.25 222.6445,761.1211 Q222.457,760.9922 222.375,760.6523 Q222.3398,760.418 222.2109,760.2891 Q221.9766,760.043 221.5547,759.9023 Q221.1328,759.75 220.7109,759.75 Q220.1836,759.75 219.7383,759.9609 Q219.3047,760.1719 218.9648,760.6406 Q218.625,761.1094 218.625,761.7539 L218.625,762.4453 Q218.625,763.2188 219.2578,763.7344 Q219.8906,764.25 221.0156,764.25 Q221.6836,764.25 222.1523,764.0977 Q222.4219,764.0156 222.7266,763.7461 Q222.9258,763.5938 223.0313,763.5469 Q223.1367,763.5 223.2656,763.5 Q223.5117,763.5 223.6875,763.6992 Q223.875,763.8867 223.875,764.1563 Q223.875,764.4141 223.6172,764.7188 Q223.2422,765.1641 222.6445,765.4102 Q221.8594,765.75 220.8984,765.75 Q219.7734,765.75 218.8711,765.3047 Q218.1445,764.9531 217.6289,764.1914 Q217.125,763.4297 217.125,762.5273 L217.125,761.707 Q217.125,760.7695 217.5703,759.9492 Q218.0273,759.1289 218.8125,758.6953 Q219.6094,758.25 220.5,758.25 Q221.0391,758.25 221.5078,758.4375 Q221.9766,758.625 222.375,759 Z " fill="#000000"/><text fill="#000000" font-family="sans-serif" font-size="9" lengthAdjust="spacingAndGlyphs" textLength="93.75" x="231.375" y="765.3076">ProposedCombination</text><line style="stroke: #A80036; stroke-width: 1.125;" x1="210.375" x2="326.625" y1="773.625" y2="773.625"/><line style="stroke: #A80036; stroke-width: 1.125;" x1="210.375" x2="326.625" y1="779.625" y2="779.625"/><!--MD5=[18eee71c88ab61f27581b8cbdd3ef5ee]
class Color--><rect codeLine="31" fill="#FEFECE" filter="url(#f144rovnasauzo)" height="36" id="Color" style="stroke: #A80036; stroke-width: 1.125;" width="46.5" x="136.5" y="749.625"/><ellipse cx="147.75" cy="761.625" fill="#EB937F" rx="8.25" ry="8.25" style="stroke: #A80036; stroke-width: 0.75;"/><path d="M146.625,762.375 L146.625,763.875 L149.625,763.875 L149.625,763.125 L149.625,762.7617 L150.0938,762.375 L150.375,762.375 L150.6563,762.375 L151.125,762.7617 L151.125,763.125 L151.125,765.375 L145.125,765.375 L144.7617,765.375 L144.375,764.9063 L144.375,764.625 L144.375,764.3438 L144.7617,763.875 L145.125,763.875 L145.125,763.875 L145.125,759.375 L145.125,759.375 L144.7617,759.375 L144.375,758.9063 L144.375,758.625 L144.375,758.3438 L144.7617,757.875 L145.125,757.875 L151.125,757.875 L151.125,760.125 L151.125,760.4883 L150.6563,760.875 L150.375,760.875 L150.0938,760.875 L149.625,760.4883 L149.625,760.125 L149.625,759.375 L146.625,759.375 L146.625,760.875 L147.375,760.875 L147.375,760.5117 L147.375,760.5117 L147.8438,760.125 L148.125,760.125 L148.4063,760.125 L148.875,760.5117 L148.875,760.875 L148.875,762.375 L148.875,762.7383 L148.4063,763.125 L148.4063,763.125 L148.125,763.125 L147.8438,763.125 L147.375,762.7383 L147.375,762.7383 L147.375,762.375 L146.625,762.375 Z " fill="#000000"/><text fill="#000000" font-family="sans-serif" font-size="9" lengthAdjust="spacingAndGlyphs" textLength="22.5" x="158.25" y="765.3076">Color</text><line style="stroke: #A80036; stroke-width: 1.125;" x1="137.25" x2="182.25" y1="773.625" y2="773.625"/><line style="stroke: #A80036; stroke-width: 1.125;" x1="137.25" x2="182.25" y1="779.625" y2="779.625"/><!--MD5=[9bcb9a691789609c473493f37f542ed0]
class Attempt--><rect codeLine="32" fill="#FEFECE" filter="url(#f144rovnasauzo)" height="36" id="Attempt" style="stroke: #A80036; stroke-width: 1.125;" width="54.75" x="317.625" y="654.375"/><ellipse cx="328.875" cy="666.375" fill="#ADD1B2" rx="8.25" ry="8.25" style="stroke: #A80036; stroke-width: 0.75;"/><path d="M330.375,663.75 Q330.5273,663.375 330.7031,663.1875 Q330.8789,663 331.0781,663 Q331.4297,663 331.6523,663.2109 Q331.875,663.4219 331.875,663.9141 L331.875,665.0859 Q331.875,665.5781 331.6641,665.7891 Q331.4531,666 331.125,666 Q330.832,666 330.6445,665.8711 Q330.457,665.7422 330.375,665.4023 Q330.3398,665.168 330.2109,665.0391 Q329.9766,664.793 329.5547,664.6523 Q329.1328,664.5 328.7109,664.5 Q328.1836,664.5 327.7383,664.7109 Q327.3047,664.9219 326.9648,665.3906 Q326.625,665.8594 326.625,666.5039 L326.625,667.1953 Q326.625,667.9688 327.2578,668.4844 Q327.8906,669 329.0156,669 Q329.6836,669 330.1523,668.8477 Q330.4219,668.7656 330.7266,668.4961 Q330.9258,668.3438 331.0313,668.2969 Q331.1367,668.25 331.2656,668.25 Q331.5117,668.25 331.6875,668.4492 Q331.875,668.6367 331.875,668.9063 Q331.875,669.1641 331.6172,669.4688 Q331.2422,669.9141 330.6445,670.1602 Q329.8594,670.5 328.8984,670.5 Q327.7734,670.5 326.8711,670.0547 Q326.1445,669.7031 325.6289,668.9414 Q325.125,668.1797 325.125,667.2773 L325.125,666.457 Q325.125,665.5195 325.5703,664.6992 Q326.0273,663.8789 326.8125,663.4453 Q327.6094,663 328.5,663 Q329.0391,663 329.5078,663.1875 Q329.9766,663.375 330.375,663.75 Z " fill="#000000"/><text fill="#000000" font-family="sans-serif" font-size="9" lengthAdjust="spacingAndGlyphs" textLength="30.75" x="339.375" y="670.0576">Attempt</text><line style="stroke: #A80036; stroke-width: 1.125;" x1="318.375" x2="371.625" y1="678.375" y2="678.375"/><line style="stroke: #A80036; stroke-width: 1.125;" x1="318.375" x2="371.625" y1="684.375" y2="684.375"/><!--MD5=[b8cfd8c4119a3b0a7a46bfc5fc780f85]
class Error--><rect codeLine="33" fill="#FEFECE" filter="url(#f144rovnasauzo)" height="36" id="Error" style="stroke: #A80036; stroke-width: 1.125;" width="44.25" x="202.125" y="558.375"/><ellipse cx="213.375" cy="570.375" fill="#ADD1B2" rx="8.25" ry="8.25" style="stroke: #A80036; stroke-width: 0.75;"/><path d="M214.875,567.75 Q215.0273,567.375 215.2031,567.1875 Q215.3789,567 215.5781,567 Q215.9297,567 216.1523,567.2109 Q216.375,567.4219 216.375,567.9141 L216.375,569.0859 Q216.375,569.5781 216.1641,569.7891 Q215.9531,570 215.625,570 Q215.332,570 215.1445,569.8711 Q214.957,569.7422 214.875,569.4023 Q214.8398,569.168 214.7109,569.0391 Q214.4766,568.793 214.0547,568.6523 Q213.6328,568.5 213.2109,568.5 Q212.6836,568.5 212.2383,568.7109 Q211.8047,568.9219 211.4648,569.3906 Q211.125,569.8594 211.125,570.5039 L211.125,571.1953 Q211.125,571.9688 211.7578,572.4844 Q212.3906,573 213.5156,573 Q214.1836,573 214.6523,572.8477 Q214.9219,572.7656 215.2266,572.4961 Q215.4258,572.3438 215.5313,572.2969 Q215.6367,572.25 215.7656,572.25 Q216.0117,572.25 216.1875,572.4492 Q216.375,572.6367 216.375,572.9063 Q216.375,573.1641 216.1172,573.4688 Q215.7422,573.9141 215.1445,574.1602 Q214.3594,574.5 213.3984,574.5 Q212.2734,574.5 211.3711,574.0547 Q210.6445,573.7031 210.1289,572.9414 Q209.625,572.1797 209.625,571.2773 L209.625,570.457 Q209.625,569.5195 210.0703,568.6992 Q210.5273,567.8789 211.3125,567.4453 Q212.1094,567 213,567 Q213.5391,567 214.0078,567.1875 Q214.4766,567.375 214.875,567.75 Z " fill="#000000"/><text fill="#000000" font-family="sans-serif" font-size="9" lengthAdjust="spacingAndGlyphs" textLength="20.25" x="223.875" y="574.0576">Error</text><line style="stroke: #A80036; stroke-width: 1.125;" x1="202.875" x2="245.625" y1="582.375" y2="582.375"/><line style="stroke: #A80036; stroke-width: 1.125;" x1="202.875" x2="245.625" y1="588.375" y2="588.375"/><!--MD5=[315b61b427ec618d6861d47eee00cca3]
class Console--><rect codeLine="37" fill="#FEFECE" filter="url(#f144rovnasauzo)" height="36" id="Console" style="stroke: #A80036; stroke-width: 1.125;" width="59.25" x="979.875" y="333.75"/><ellipse cx="991.125" cy="345.75" fill="#ADD1B2" rx="8.25" ry="8.25" style="stroke: #A80036; stroke-width: 0.75;"/><path d="M992.625,343.125 Q992.7773,342.75 992.9531,342.5625 Q993.1289,342.375 993.3281,342.375 Q993.6797,342.375 993.9023,342.5859 Q994.125,342.7969 994.125,343.2891 L994.125,344.4609 Q994.125,344.9531 993.9141,345.1641 Q993.7031,345.375 993.375,345.375 Q993.082,345.375 992.8945,345.2461 Q992.707,345.1172 992.625,344.7773 Q992.5898,344.543 992.4609,344.4141 Q992.2266,344.168 991.8047,344.0273 Q991.3828,343.875 990.9609,343.875 Q990.4336,343.875 989.9883,344.0859 Q989.5547,344.2969 989.2148,344.7656 Q988.875,345.2344 988.875,345.8789 L988.875,346.5703 Q988.875,347.3438 989.5078,347.8594 Q990.1406,348.375 991.2656,348.375 Q991.9336,348.375 992.4023,348.2227 Q992.6719,348.1406 992.9766,347.8711 Q993.1758,347.7188 993.2813,347.6719 Q993.3867,347.625 993.5156,347.625 Q993.7617,347.625 993.9375,347.8242 Q994.125,348.0117 994.125,348.2813 Q994.125,348.5391 993.8672,348.8438 Q993.4922,349.2891 992.8945,349.5352 Q992.1094,349.875 991.1484,349.875 Q990.0234,349.875 989.1211,349.4297 Q988.3945,349.0781 987.8789,348.3164 Q987.375,347.5547 987.375,346.6523 L987.375,345.832 Q987.375,344.8945 987.8203,344.0742 Q988.2773,343.2539 989.0625,342.8203 Q989.8594,342.375 990.75,342.375 Q991.2891,342.375 991.7578,342.5625 Q992.2266,342.75 992.625,343.125 Z " fill="#000000"/><text fill="#000000" font-family="sans-serif" font-size="9" lengthAdjust="spacingAndGlyphs" textLength="35.25" x="1001.625" y="349.4326">Console</text><line style="stroke: #A80036; stroke-width: 1.125;" x1="980.625" x2="1038.375" y1="357.75" y2="357.75"/><line style="stroke: #A80036; stroke-width: 1.125;" x1="980.625" x2="1038.375" y1="363.75" y2="363.75"/><!--MD5=[86cec68673cafdfc1c204348d5b2cca6]
class ErrorView--><rect codeLine="44" fill="#FEFECE" filter="url(#f144rovnasauzo)" height="36" id="ErrorView" style="stroke: #A80036; stroke-width: 1.125;" width="63.75" x="648.375" y="654.375"/><ellipse cx="659.625" cy="666.375" fill="#ADD1B2" rx="8.25" ry="8.25" style="stroke: #A80036; stroke-width: 0.75;"/><path d="M661.125,663.75 Q661.2773,663.375 661.4531,663.1875 Q661.6289,663 661.8281,663 Q662.1797,663 662.4023,663.2109 Q662.625,663.4219 662.625,663.9141 L662.625,665.0859 Q662.625,665.5781 662.4141,665.7891 Q662.2031,666 661.875,666 Q661.582,666 661.3945,665.8711 Q661.207,665.7422 661.125,665.4023 Q661.0898,665.168 660.9609,665.0391 Q660.7266,664.793 660.3047,664.6523 Q659.8828,664.5 659.4609,664.5 Q658.9336,664.5 658.4883,664.7109 Q658.0547,664.9219 657.7148,665.3906 Q657.375,665.8594 657.375,666.5039 L657.375,667.1953 Q657.375,667.9688 658.0078,668.4844 Q658.6406,669 659.7656,669 Q660.4336,669 660.9023,668.8477 Q661.1719,668.7656 661.4766,668.4961 Q661.6758,668.3438 661.7813,668.2969 Q661.8867,668.25 662.0156,668.25 Q662.2617,668.25 662.4375,668.4492 Q662.625,668.6367 662.625,668.9063 Q662.625,669.1641 662.3672,669.4688 Q661.9922,669.9141 661.3945,670.1602 Q660.6094,670.5 659.6484,670.5 Q658.5234,670.5 657.6211,670.0547 Q656.8945,669.7031 656.3789,668.9414 Q655.875,668.1797 655.875,667.2773 L655.875,666.457 Q655.875,665.5195 656.3203,664.6992 Q656.7773,663.8789 657.5625,663.4453 Q658.3594,663 659.25,663 Q659.7891,663 660.2578,663.1875 Q660.7266,663.375 661.125,663.75 Z " fill="#000000"/><text fill="#000000" font-family="sans-serif" font-size="9" lengthAdjust="spacingAndGlyphs" textLength="39.75" x="670.125" y="670.0576">ErrorView</text><line style="stroke: #A80036; stroke-width: 1.125;" x1="649.125" x2="711.375" y1="678.375" y2="678.375"/><line style="stroke: #A80036; stroke-width: 1.125;" x1="649.125" x2="711.375" y1="684.375" y2="684.375"/><!--MD5=[bea5b0d46523efab5ea1c1d339f396f0]
class Message--><rect codeLine="45" fill="#FEFECE" filter="url(#f144rovnasauzo)" height="36" id="Message" style="stroke: #A80036; stroke-width: 1.125;" width="62.25" x="758.625" y="654.375"/><ellipse cx="769.875" cy="666.375" fill="#ADD1B2" rx="8.25" ry="8.25" style="stroke: #A80036; stroke-width: 0.75;"/><path d="M771.375,663.75 Q771.5273,663.375 771.7031,663.1875 Q771.8789,663 772.0781,663 Q772.4297,663 772.6523,663.2109 Q772.875,663.4219 772.875,663.9141 L772.875,665.0859 Q772.875,665.5781 772.6641,665.7891 Q772.4531,666 772.125,666 Q771.832,666 771.6445,665.8711 Q771.457,665.7422 771.375,665.4023 Q771.3398,665.168 771.2109,665.0391 Q770.9766,664.793 770.5547,664.6523 Q770.1328,664.5 769.7109,664.5 Q769.1836,664.5 768.7383,664.7109 Q768.3047,664.9219 767.9648,665.3906 Q767.625,665.8594 767.625,666.5039 L767.625,667.1953 Q767.625,667.9688 768.2578,668.4844 Q768.8906,669 770.0156,669 Q770.6836,669 771.1523,668.8477 Q771.4219,668.7656 771.7266,668.4961 Q771.9258,668.3438 772.0313,668.2969 Q772.1367,668.25 772.2656,668.25 Q772.5117,668.25 772.6875,668.4492 Q772.875,668.6367 772.875,668.9063 Q772.875,669.1641 772.6172,669.4688 Q772.2422,669.9141 771.6445,670.1602 Q770.8594,670.5 769.8984,670.5 Q768.7734,670.5 767.8711,670.0547 Q767.1445,669.7031 766.6289,668.9414 Q766.125,668.1797 766.125,667.2773 L766.125,666.457 Q766.125,665.5195 766.5703,664.6992 Q767.0273,663.8789 767.8125,663.4453 Q768.6094,663 769.5,663 Q770.0391,663 770.5078,663.1875 Q770.9766,663.375 771.375,663.75 Z " fill="#000000"/><text fill="#000000" font-family="sans-serif" font-size="9" lengthAdjust="spacingAndGlyphs" textLength="38.25" x="780.375" y="670.0576">Message</text><line style="stroke: #A80036; stroke-width: 1.125;" x1="759.375" x2="820.125" y1="678.375" y2="678.375"/><line style="stroke: #A80036; stroke-width: 1.125;" x1="759.375" x2="820.125" y1="684.375" y2="684.375"/><!--MD5=[c045e12321b83266d36d22b9096c24ea]
class View--><rect codeLine="46" fill="#FEFECE" filter="url(#f144rovnasauzo)" height="36" id="View" style="stroke: #A80036; stroke-width: 1.125;" width="43.5" x="632.25" y="223.5"/><ellipse cx="643.5" cy="235.5" fill="#ADD1B2" rx="8.25" ry="8.25" style="stroke: #A80036; stroke-width: 0.75;"/><path d="M645,232.875 Q645.1523,232.5 645.3281,232.3125 Q645.5039,232.125 645.7031,232.125 Q646.0547,232.125 646.2773,232.3359 Q646.5,232.5469 646.5,233.0391 L646.5,234.2109 Q646.5,234.7031 646.2891,234.9141 Q646.0781,235.125 645.75,235.125 Q645.457,235.125 645.2695,234.9961 Q645.082,234.8672 645,234.5273 Q644.9648,234.293 644.8359,234.1641 Q644.6016,233.918 644.1797,233.7773 Q643.7578,233.625 643.3359,233.625 Q642.8086,233.625 642.3633,233.8359 Q641.9297,234.0469 641.5898,234.5156 Q641.25,234.9844 641.25,235.6289 L641.25,236.3203 Q641.25,237.0938 641.8828,237.6094 Q642.5156,238.125 643.6406,238.125 Q644.3086,238.125 644.7773,237.9727 Q645.0469,237.8906 645.3516,237.6211 Q645.5508,237.4688 645.6563,237.4219 Q645.7617,237.375 645.8906,237.375 Q646.1367,237.375 646.3125,237.5742 Q646.5,237.7617 646.5,238.0313 Q646.5,238.2891 646.2422,238.5938 Q645.8672,239.0391 645.2695,239.2852 Q644.4844,239.625 643.5234,239.625 Q642.3984,239.625 641.4961,239.1797 Q640.7695,238.8281 640.2539,238.0664 Q639.75,237.3047 639.75,236.4023 L639.75,235.582 Q639.75,234.6445 640.1953,233.8242 Q640.6523,233.0039 641.4375,232.5703 Q642.2344,232.125 643.125,232.125 Q643.6641,232.125 644.1328,232.3125 Q644.6016,232.5 645,232.875 Z " fill="#000000"/><text fill="#000000" font-family="sans-serif" font-size="9" lengthAdjust="spacingAndGlyphs" textLength="19.5" x="654" y="239.1826">View</text><line style="stroke: #A80036; stroke-width: 1.125;" x1="633" x2="675" y1="247.5" y2="247.5"/><line style="stroke: #A80036; stroke-width: 1.125;" x1="633" x2="675" y1="253.5" y2="253.5"/><!--MD5=[9c1370162989b2d7849ddfcc7e59be3c]
class GraphicView--><rect codeLine="47" fill="#FEFECE" filter="url(#f144rovnasauzo)" height="36" id="GraphicView" style="stroke: #A80036; stroke-width: 1.125;" width="75.75" x="564.375" y="333.75"/><ellipse cx="575.625" cy="345.75" fill="#ADD1B2" rx="8.25" ry="8.25" style="stroke: #A80036; stroke-width: 0.75;"/><path d="M577.125,343.125 Q577.2773,342.75 577.4531,342.5625 Q577.6289,342.375 577.8281,342.375 Q578.1797,342.375 578.4023,342.5859 Q578.625,342.7969 578.625,343.2891 L578.625,344.4609 Q578.625,344.9531 578.4141,345.1641 Q578.2031,345.375 577.875,345.375 Q577.582,345.375 577.3945,345.2461 Q577.207,345.1172 577.125,344.7773 Q577.0898,344.543 576.9609,344.4141 Q576.7266,344.168 576.3047,344.0273 Q575.8828,343.875 575.4609,343.875 Q574.9336,343.875 574.4883,344.0859 Q574.0547,344.2969 573.7148,344.7656 Q573.375,345.2344 573.375,345.8789 L573.375,346.5703 Q573.375,347.3438 574.0078,347.8594 Q574.6406,348.375 575.7656,348.375 Q576.4336,348.375 576.9023,348.2227 Q577.1719,348.1406 577.4766,347.8711 Q577.6758,347.7188 577.7813,347.6719 Q577.8867,347.625 578.0156,347.625 Q578.2617,347.625 578.4375,347.8242 Q578.625,348.0117 578.625,348.2813 Q578.625,348.5391 578.3672,348.8438 Q577.9922,349.2891 577.3945,349.5352 Q576.6094,349.875 575.6484,349.875 Q574.5234,349.875 573.6211,349.4297 Q572.8945,349.0781 572.3789,348.3164 Q571.875,347.5547 571.875,346.6523 L571.875,345.832 Q571.875,344.8945 572.3203,344.0742 Q572.7773,343.2539 573.5625,342.8203 Q574.3594,342.375 575.25,342.375 Q575.7891,342.375 576.2578,342.5625 Q576.7266,342.75 577.125,343.125 Z " fill="#000000"/><text fill="#000000" font-family="sans-serif" font-size="9" lengthAdjust="spacingAndGlyphs" textLength="51.75" x="586.125" y="349.4326">GraphicView</text><line style="stroke: #A80036; stroke-width: 1.125;" x1="565.125" x2="639.375" y1="357.75" y2="357.75"/><line style="stroke: #A80036; stroke-width: 1.125;" x1="565.125" x2="639.375" y1="363.75" y2="363.75"/><!--MD5=[51d729737bd84a4c43136dd336c2eea1]
class ConsoleView--><rect codeLine="48" fill="#FEFECE" filter="url(#f144rovnasauzo)" height="36" id="ConsoleView" style="stroke: #A80036; stroke-width: 1.125;" width="78.75" x="686.625" y="333.75"/><ellipse cx="697.875" cy="345.75" fill="#ADD1B2" rx="8.25" ry="8.25" style="stroke: #A80036; stroke-width: 0.75;"/><path d="M699.375,343.125 Q699.5273,342.75 699.7031,342.5625 Q699.8789,342.375 700.0781,342.375 Q700.4297,342.375 700.6523,342.5859 Q700.875,342.7969 700.875,343.2891 L700.875,344.4609 Q700.875,344.9531 700.6641,345.1641 Q700.4531,345.375 700.125,345.375 Q699.832,345.375 699.6445,345.2461 Q699.457,345.1172 699.375,344.7773 Q699.3398,344.543 699.2109,344.4141 Q698.9766,344.168 698.5547,344.0273 Q698.1328,343.875 697.7109,343.875 Q697.1836,343.875 696.7383,344.0859 Q696.3047,344.2969 695.9648,344.7656 Q695.625,345.2344 695.625,345.8789 L695.625,346.5703 Q695.625,347.3438 696.2578,347.8594 Q696.8906,348.375 698.0156,348.375 Q698.6836,348.375 699.1523,348.2227 Q699.4219,348.1406 699.7266,347.8711 Q699.9258,347.7188 700.0313,347.6719 Q700.1367,347.625 700.2656,347.625 Q700.5117,347.625 700.6875,347.8242 Q700.875,348.0117 700.875,348.2813 Q700.875,348.5391 700.6172,348.8438 Q700.2422,349.2891 699.6445,349.5352 Q698.8594,349.875 697.8984,349.875 Q696.7734,349.875 695.8711,349.4297 Q695.1445,349.0781 694.6289,348.3164 Q694.125,347.5547 694.125,346.6523 L694.125,345.832 Q694.125,344.8945 694.5703,344.0742 Q695.0273,343.2539 695.8125,342.8203 Q696.6094,342.375 697.5,342.375 Q698.0391,342.375 698.5078,342.5625 Q698.9766,342.75 699.375,343.125 Z " fill="#000000"/><text fill="#000000" font-family="sans-serif" font-size="9" lengthAdjust="spacingAndGlyphs" textLength="54.75" x="708.375" y="349.4326">ConsoleView</text><line style="stroke: #A80036; stroke-width: 1.125;" x1="687.375" x2="764.625" y1="357.75" y2="357.75"/><line style="stroke: #A80036; stroke-width: 1.125;" x1="687.375" x2="764.625" y1="363.75" y2="363.75"/><!--MD5=[443c52daef265809fdf31be84fc8ae4a]
class StartView--><rect codeLine="51" fill="#FEFECE" filter="url(#f144rovnasauzo)" height="36" id="StartView" style="stroke: #A80036; stroke-width: 1.125;" width="62.25" x="812.625" y="445.5"/><ellipse cx="823.875" cy="457.5" fill="#ADD1B2" rx="8.25" ry="8.25" style="stroke: #A80036; stroke-width: 0.75;"/><path d="M825.375,454.875 Q825.5273,454.5 825.7031,454.3125 Q825.8789,454.125 826.0781,454.125 Q826.4297,454.125 826.6523,454.3359 Q826.875,454.5469 826.875,455.0391 L826.875,456.2109 Q826.875,456.7031 826.6641,456.9141 Q826.4531,457.125 826.125,457.125 Q825.832,457.125 825.6445,456.9961 Q825.457,456.8672 825.375,456.5273 Q825.3398,456.293 825.2109,456.1641 Q824.9766,455.918 824.5547,455.7773 Q824.1328,455.625 823.7109,455.625 Q823.1836,455.625 822.7383,455.8359 Q822.3047,456.0469 821.9648,456.5156 Q821.625,456.9844 821.625,457.6289 L821.625,458.3203 Q821.625,459.0938 822.2578,459.6094 Q822.8906,460.125 824.0156,460.125 Q824.6836,460.125 825.1523,459.9727 Q825.4219,459.8906 825.7266,459.6211 Q825.9258,459.4688 826.0313,459.4219 Q826.1367,459.375 826.2656,459.375 Q826.5117,459.375 826.6875,459.5742 Q826.875,459.7617 826.875,460.0313 Q826.875,460.2891 826.6172,460.5938 Q826.2422,461.0391 825.6445,461.2852 Q824.8594,461.625 823.8984,461.625 Q822.7734,461.625 821.8711,461.1797 Q821.1445,460.8281 820.6289,460.0664 Q820.125,459.3047 820.125,458.4023 L820.125,457.582 Q820.125,456.6445 820.5703,455.8242 Q821.0273,455.0039 821.8125,454.5703 Q822.6094,454.125 823.5,454.125 Q824.0391,454.125 824.5078,454.3125 Q824.9766,454.5 825.375,454.875 Z " fill="#000000"/><text fill="#000000" font-family="sans-serif" font-size="9" lengthAdjust="spacingAndGlyphs" textLength="38.25" x="834.375" y="461.1826">StartView</text><line style="stroke: #A80036; stroke-width: 1.125;" x1="813.375" x2="874.125" y1="469.5" y2="469.5"/><line style="stroke: #A80036; stroke-width: 1.125;" x1="813.375" x2="874.125" y1="475.5" y2="475.5"/><!--MD5=[0523615cfa2fa70c8ab764401f29a299]
class ProposedCombinationView--><rect codeLine="52" fill="#FEFECE" filter="url(#f144rovnasauzo)" height="36" id="ProposedCombinationView" style="stroke: #A80036; stroke-width: 1.125;" width="137.25" x="611.625" y="558.375"/><ellipse cx="622.875" cy="570.375" fill="#ADD1B2" rx="8.25" ry="8.25" style="stroke: #A80036; stroke-width: 0.75;"/><path d="M624.375,567.75 Q624.5273,567.375 624.7031,567.1875 Q624.8789,567 625.0781,567 Q625.4297,567 625.6523,567.2109 Q625.875,567.4219 625.875,567.9141 L625.875,569.0859 Q625.875,569.5781 625.6641,569.7891 Q625.4531,570 625.125,570 Q624.832,570 624.6445,569.8711 Q624.457,569.7422 624.375,569.4023 Q624.3398,569.168 624.2109,569.0391 Q623.9766,568.793 623.5547,568.6523 Q623.1328,568.5 622.7109,568.5 Q622.1836,568.5 621.7383,568.7109 Q621.3047,568.9219 620.9648,569.3906 Q620.625,569.8594 620.625,570.5039 L620.625,571.1953 Q620.625,571.9688 621.2578,572.4844 Q621.8906,573 623.0156,573 Q623.6836,573 624.1523,572.8477 Q624.4219,572.7656 624.7266,572.4961 Q624.9258,572.3438 625.0313,572.2969 Q625.1367,572.25 625.2656,572.25 Q625.5117,572.25 625.6875,572.4492 Q625.875,572.6367 625.875,572.9063 Q625.875,573.1641 625.6172,573.4688 Q625.2422,573.9141 624.6445,574.1602 Q623.8594,574.5 622.8984,574.5 Q621.7734,574.5 620.8711,574.0547 Q620.1445,573.7031 619.6289,572.9414 Q619.125,572.1797 619.125,571.2773 L619.125,570.457 Q619.125,569.5195 619.5703,568.6992 Q620.0273,567.8789 620.8125,567.4453 Q621.6094,567 622.5,567 Q623.0391,567 623.5078,567.1875 Q623.9766,567.375 624.375,567.75 Z " fill="#000000"/><text fill="#000000" font-family="sans-serif" font-size="9" lengthAdjust="spacingAndGlyphs" textLength="113.25" x="633.375" y="574.0576">ProposedCombinationView</text><line style="stroke: #A80036; stroke-width: 1.125;" x1="612.375" x2="748.125" y1="582.375" y2="582.375"/><line style="stroke: #A80036; stroke-width: 1.125;" x1="612.375" x2="748.125" y1="588.375" y2="588.375"/><!--MD5=[19088a99a8c1f36e582d33ac2f8fc6dd]
class ResumeView--><rect codeLine="53" fill="#FEFECE" filter="url(#f144rovnasauzo)" height="36" id="ResumeView" style="stroke: #A80036; stroke-width: 1.125;" width="79.5" x="706.5" y="445.5"/><ellipse cx="717.75" cy="457.5" fill="#ADD1B2" rx="8.25" ry="8.25" style="stroke: #A80036; stroke-width: 0.75;"/><path d="M719.25,454.875 Q719.4023,454.5 719.5781,454.3125 Q719.7539,454.125 719.9531,454.125 Q720.3047,454.125 720.5273,454.3359 Q720.75,454.5469 720.75,455.0391 L720.75,456.2109 Q720.75,456.7031 720.5391,456.9141 Q720.3281,457.125 720,457.125 Q719.707,457.125 719.5195,456.9961 Q719.332,456.8672 719.25,456.5273 Q719.2148,456.293 719.0859,456.1641 Q718.8516,455.918 718.4297,455.7773 Q718.0078,455.625 717.5859,455.625 Q717.0586,455.625 716.6133,455.8359 Q716.1797,456.0469 715.8398,456.5156 Q715.5,456.9844 715.5,457.6289 L715.5,458.3203 Q715.5,459.0938 716.1328,459.6094 Q716.7656,460.125 717.8906,460.125 Q718.5586,460.125 719.0273,459.9727 Q719.2969,459.8906 719.6016,459.6211 Q719.8008,459.4688 719.9063,459.4219 Q720.0117,459.375 720.1406,459.375 Q720.3867,459.375 720.5625,459.5742 Q720.75,459.7617 720.75,460.0313 Q720.75,460.2891 720.4922,460.5938 Q720.1172,461.0391 719.5195,461.2852 Q718.7344,461.625 717.7734,461.625 Q716.6484,461.625 715.7461,461.1797 Q715.0195,460.8281 714.5039,460.0664 Q714,459.3047 714,458.4023 L714,457.582 Q714,456.6445 714.4453,455.8242 Q714.9023,455.0039 715.6875,454.5703 Q716.4844,454.125 717.375,454.125 Q717.9141,454.125 718.3828,454.3125 Q718.8516,454.5 719.25,454.875 Z " fill="#000000"/><text fill="#000000" font-family="sans-serif" font-size="9" lengthAdjust="spacingAndGlyphs" textLength="55.5" x="728.25" y="461.1826">ResumeView</text><line style="stroke: #A80036; stroke-width: 1.125;" x1="707.25" x2="785.25" y1="469.5" y2="469.5"/><line style="stroke: #A80036; stroke-width: 1.125;" x1="707.25" x2="785.25" y1="475.5" y2="475.5"/><!--MD5=[5d3822d29342fbd355d1b65ea3562ec9]
class GameView--><rect codeLine="54" fill="#FEFECE" filter="url(#f144rovnasauzo)" height="36" id="GameView" style="stroke: #A80036; stroke-width: 1.125;" width="69" x="611.25" y="445.5"/><ellipse cx="622.5" cy="457.5" fill="#ADD1B2" rx="8.25" ry="8.25" style="stroke: #A80036; stroke-width: 0.75;"/><path d="M624,454.875 Q624.1523,454.5 624.3281,454.3125 Q624.5039,454.125 624.7031,454.125 Q625.0547,454.125 625.2773,454.3359 Q625.5,454.5469 625.5,455.0391 L625.5,456.2109 Q625.5,456.7031 625.2891,456.9141 Q625.0781,457.125 624.75,457.125 Q624.457,457.125 624.2695,456.9961 Q624.082,456.8672 624,456.5273 Q623.9648,456.293 623.8359,456.1641 Q623.6016,455.918 623.1797,455.7773 Q622.7578,455.625 622.3359,455.625 Q621.8086,455.625 621.3633,455.8359 Q620.9297,456.0469 620.5898,456.5156 Q620.25,456.9844 620.25,457.6289 L620.25,458.3203 Q620.25,459.0938 620.8828,459.6094 Q621.5156,460.125 622.6406,460.125 Q623.3086,460.125 623.7773,459.9727 Q624.0469,459.8906 624.3516,459.6211 Q624.5508,459.4688 624.6563,459.4219 Q624.7617,459.375 624.8906,459.375 Q625.1367,459.375 625.3125,459.5742 Q625.5,459.7617 625.5,460.0313 Q625.5,460.2891 625.2422,460.5938 Q624.8672,461.0391 624.2695,461.2852 Q623.4844,461.625 622.5234,461.625 Q621.3984,461.625 620.4961,461.1797 Q619.7695,460.8281 619.2539,460.0664 Q618.75,459.3047 618.75,458.4023 L618.75,457.582 Q618.75,456.6445 619.1953,455.8242 Q619.6523,455.0039 620.4375,454.5703 Q621.2344,454.125 622.125,454.125 Q622.6641,454.125 623.1328,454.3125 Q623.6016,454.5 624,454.875 Z " fill="#000000"/><text fill="#000000" font-family="sans-serif" font-size="9" lengthAdjust="spacingAndGlyphs" textLength="45" x="633" y="461.1826">GameView</text><line style="stroke: #A80036; stroke-width: 1.125;" x1="612" x2="679.5" y1="469.5" y2="469.5"/><line style="stroke: #A80036; stroke-width: 1.125;" x1="612" x2="679.5" y1="475.5" y2="475.5"/><polygon fill="#FFFFFF" filter="url(#f144rovnasauzo)" points="523.875,442.875,574.125,442.875,579.375,460.582,584.625,460.582,584.625,484.2891,523.875,484.2891,523.875,442.875" style="stroke: #000000; stroke-width: 1.125;"/><line style="stroke: #000000; stroke-width: 1.125;" x1="523.875" x2="579.375" y1="460.582" y2="460.582"/><text fill="#000000" font-family="sans-serif" font-size="10.5" font-weight="bold" lengthAdjust="spacingAndGlyphs" textLength="45.75" x="526.875" y="455.2749">graphics</text><!--MD5=[bfafb74324feca9b416813c62f0ba70b]
link Mastermind to models--><path codeLine="63" d="M486.75,149.328 C486.75,170.7885 486.75,208.4647 486.75,240.75 C486.75,240.75 486.75,240.75 486.75,464.25 C486.75,545.487 180.8213,454.8315 124.5,513.375 C122.1666,515.8006 120.3103,518.5516 118.8498,521.5135 C118.4847,522.254 118.1443,523.0077 117.8274,523.7728 C117.6689,524.1553 117.5163,524.5407 117.3695,524.9287 C117.3327,525.0257 117.2964,525.1229 117.2604,525.2202 " fill="none" id="Mastermind-to-models" style="stroke: #0000FF; stroke-width: 0.75; stroke-dasharray: 7.0,7.0;"/><polygon fill="#0000FF" points="117.2604,525.2202,122.4162,519.9306,118.5616,521.7032,116.7889,517.8486,117.2604,525.2202" style="stroke: #0000FF; stroke-width: 0.75;"/><!--MD5=[1f36de39742a41313cf3581956d44238]
link Mastermind to views--><path codeLine="64" d="M522.9053,133.4512 C619.5923,137.6828 878.6025,151.458 905.25,178.5 C907.6125,180.8973 909.4908,183.6268 910.9675,186.5729 C911.3366,187.3094 911.6807,188.0595 912.001,188.8213 C912.1611,189.2022 912.3153,189.586 912.4637,189.9726 C912.5008,190.0692 912.5375,190.166 912.5739,190.263 " fill="none" id="Mastermind-to-views" style="stroke: #0000FF; stroke-width: 0.75; stroke-dasharray: 7.0,7.0;"/><polygon fill="#0000FF" points="912.5739,190.263,913.012,182.8893,911.2568,186.7519,907.3942,184.9967,912.5739,190.263" style="stroke: #0000FF; stroke-width: 0.75;"/><!--MD5=[733c35ca55ea0df845209447a47f970c]
link Mastermind to controllers--><path codeLine="65" d="M450.6623,133.251 C350.7773,137.0663 76.1655,150.0653 48,178.5 C45.6314,180.8913 43.7484,183.6162 42.2682,186.559 C41.8982,187.2947 41.5533,188.044 41.2323,188.8051 C41.0718,189.1857 40.9173,189.5692 40.7686,189.9554 C40.7314,190.0519 40.6946,190.1487 40.6581,190.2456 " fill="none" id="Mastermind-to-controllers" style="stroke: #0000FF; stroke-width: 0.75; stroke-dasharray: 7.0,7.0;"/><polygon fill="#0000FF" points="40.6581,190.2456,45.8429,184.9844,41.9787,186.7358,40.2273,182.8715,40.6581,190.2456" style="stroke: #0000FF; stroke-width: 0.75;"/><!--MD5=[c715d9d06a5b48b18073f584f2eda123]
link views to utils--><path d="M917.2982,257.9101 C917.356,258.0598 917.4142,258.2103 917.4726,258.3617 C917.7064,258.967 917.9451,259.5851 918.1886,260.2153 C922.083,270.2986 927.1711,283.4724 932.2584,296.6447 C937.3458,309.8169 942.4324,322.9876 946.3241,333.0648 C946.5673,333.6946 946.8059,334.3123 947.0395,334.9172 C947.0979,335.0685 947.156,335.2189 947.2138,335.3685 " fill="none" id="views-to-utils" style="stroke: #0000FF; stroke-width: 0.75; stroke-dasharray: 7.0,7.0;"/><polygon fill="#0000FF" points="947.2138,335.3685,947.5806,327.991,945.8628,331.8703,941.9835,330.1525,947.2138,335.3685" style="stroke: #0000FF; stroke-width: 0.75;"/><!--MD5=[535344f3358c01d37ed18bab87bee925]
link ConsoleMastermind to Mastermind--><path codeLine="69" d="M435.0713,67.665 C443.2005,77.55 453.5857,90.1755 462.9113,101.514 " fill="none" id="ConsoleMastermind-to-Mastermind" style="stroke: #A80036; stroke-width: 0.75;"/><polygon fill="none" points="466.9838,98.2012,472.4573,113.121,458.874,104.8703,466.9838,98.2012" style="stroke: #A80036; stroke-width: 0.75;"/><!--MD5=[dbf988b947bc3cf05d45f6a2ae73b24e]
link GraphicMastermind to Mastermind--><path codeLine="70" d="M539.016,67.665 C530.7938,77.55 520.2908,90.1755 510.8595,101.514 " fill="none" id="GraphicMastermind-to-Mastermind" style="stroke: #A80036; stroke-width: 0.75;"/><polygon fill="none" points="514.8338,104.946,501.2055,113.121,506.7615,98.2313,514.8338,104.946" style="stroke: #A80036; stroke-width: 0.75;"/><!--MD5=[a63dd7f30baaeb88fc8dd2ca46e0cc37]
reverse link View to ConsoleView--><path codeLine="71" d="M673.9192,272.3363 C686.964,292.0388 703.554,317.097 714.4605,333.5708 " fill="none" id="View-backto-ConsoleView" style="stroke: #A80036; stroke-width: 0.75;"/><polygon fill="none" points="669.471,275.1278,665.568,259.7228,678.2265,269.3318,669.471,275.1278" style="stroke: #A80036; stroke-width: 0.75;"/><!--MD5=[12c98b18f03e29aac223ddea0f5a0df4]
reverse link View to GraphicView--><path codeLine="72" d="M639.1395,273.4785 C629.85,292.9995 618.2325,317.4135 610.5442,333.5708 " fill="none" id="View-backto-GraphicView" style="stroke: #A80036; stroke-width: 0.75;"/><polygon fill="none" points="634.4993,271.011,645.6855,259.7228,643.9808,275.523,634.4993,271.011" style="stroke: #A80036; stroke-width: 0.75;"/><!--MD5=[27021d7192df067fe1906bbc86d987c3]
reverse link ConsoleView to GameView--><path codeLine="75" d="M707.4278,378.015 C692.3835,398.6835 671.5905,427.2495 658.4063,445.362 " fill="none" id="ConsoleView-backto-GameView" style="stroke: #A80036; stroke-width: 0.75;"/><polygon fill="#A80036" points="713.2845,369.9698,708.2107,371.8424,707.9879,377.2462,713.0617,375.3735,713.2845,369.9698" style="stroke: #A80036; stroke-width: 0.75;"/><!--MD5=[acac721853b56773ba1284bd4254abec]
reverse link ConsoleView to ResumeView--><path codeLine="76" d="M730.9928,379.6845 C734.7615,400.1993 739.818,427.7325 743.0565,445.362 " fill="none" id="ConsoleView-backto-ResumeView" style="stroke: #A80036; stroke-width: 0.75;"/><polygon fill="#A80036" points="729.2085,369.9698,727.0709,374.9377,730.8345,378.8217,732.9721,373.8537,729.2085,369.9698" style="stroke: #A80036; stroke-width: 0.75;"/><!--MD5=[56bdcb266f45864af3131be201f47f99]
reverse link ConsoleView to StartView--><path codeLine="77" d="M756.4875,375.9488 C769.8525,386.6535 785.4825,399.7643 798.75,412.5 C809.565,422.8815 820.815,435.444 829.3575,445.4115 " fill="none" id="ConsoleView-backto-StartView" style="stroke: #A80036; stroke-width: 0.75;"/><polygon fill="#A80036" points="748.7093,369.7823,750.3736,374.9281,755.7638,375.3709,754.0994,370.2251,748.7093,369.7823" style="stroke: #A80036; stroke-width: 0.75;"/><!--MD5=[1a2a8fca0b6e363b5cf9d4bd576f3fc8]
reverse link GameView to ProposedCombinationView--><path codeLine="78" d="M654.2918,490.8787 C655.9485,496.0958 657.663,501.5295 659.25,506.625 C664.7235,524.199 670.8353,544.3418 675.0473,558.3083 " fill="none" id="GameView-backto-ProposedCombinationView" style="stroke: #A80036; stroke-width: 0.75;"/><polygon fill="#A80036" points="651.318,481.5525,649.8271,486.7513,654.0525,490.127,655.5434,484.9282,651.318,481.5525" style="stroke: #A80036; stroke-width: 0.75;"/><!--MD5=[9ba8f267f6eb5422c07b411f605ad66a]
link GameView to Message--><path codeLine="79" d="M680.5598,478.9028 C714.7448,493.3005 761.8275,513.1568 762,513.375 C763.0725,514.719 778.935,607.7565 786.18,650.5313 " fill="none" id="GameView-to-Message" style="stroke: #808080; stroke-width: 0.75; stroke-dasharray: 7.0,7.0;"/><polygon fill="#808080" points="786.8175,654.2625,788.6468,647.106,786.1906,650.5653,782.7313,648.109,786.8175,654.2625" style="stroke: #808080; stroke-width: 0.75;"/><!--MD5=[91198d1c12ec6e73a40fb6837ae56756]
link ResumeView to Message--><path codeLine="80" d="M765.975,481.575 C772.6275,488.6213 779.3025,497.3017 783,506.625 C802.2525,555.153 797.5275,618.129 793.2,650.445 " fill="none" id="ResumeView-to-Message" style="stroke: #808080; stroke-width: 0.75; stroke-dasharray: 7.0,7.0;"/><polygon fill="#808080" points="792.675,654.231,796.5716,647.9557,793.1888,650.5164,790.6282,647.1336,792.675,654.231" style="stroke: #808080; stroke-width: 0.75;"/><!--MD5=[058408ce5819f71d62d41402f2a6cc02]
link ProposedCombinationView to ErrorView--><path codeLine="81" d="M680.25,594.4575 C680.25,610.1445 680.25,633.3045 680.25,650.1578 " fill="none" id="ProposedCombinationView-to-ErrorView" style="stroke: #808080; stroke-width: 0.75; stroke-dasharray: 7.0,7.0;"/><polygon fill="#808080" points="680.25,654.0818,683.25,647.3318,680.25,650.3318,677.25,647.3318,680.25,654.0818" style="stroke: #808080; stroke-width: 0.75;"/><!--MD5=[2f10888865b2f559cc24db01ac34cee3]
reverse link Combination to ProposedCombination--><path codeLine="83" d="M258.1792,705.4425 C260.667,720.2513 263.5163,737.2118 265.59,749.5545 " fill="none" id="Combination-backto-ProposedCombination" style="stroke: #A80036; stroke-width: 0.75;"/><polygon fill="none" points="252.9833,706.2015,255.6758,690.5393,263.3385,704.4615,252.9833,706.2015" style="stroke: #A80036; stroke-width: 0.75;"/><!--MD5=[ed81d3472c9069d2de3c2f5cd308846f]
reverse link Combination to SecretCombination--><path codeLine="84" d="M280.083,700.968 C287.6145,707.8118 296.0483,714.774 304.5,720.375 C321.753,731.808 342.2715,741.8077 360.312,749.574 " fill="none" id="Combination-backto-SecretCombination" style="stroke: #A80036; stroke-width: 0.75;"/><polygon fill="none" points="276.3585,704.6715,269.1173,690.525,283.5998,697.068,276.3585,704.6715" style="stroke: #A80036; stroke-width: 0.75;"/><!--MD5=[29709eb267dc78b1d9e100b5a3a5fec0]
reverse link Attempt to ProposedCombination--><path codeLine="85" d="M324.6195,698.1015 C311.3655,714.3435 294.42,735.1103 282.6338,749.5545 " fill="none" id="Attempt-backto-ProposedCombination" style="stroke: #A80036; stroke-width: 0.75;"/><polygon fill="#FFFFFF" points="330.7905,690.5393,325.6212,692.1294,325.1008,697.5126,330.2701,695.9225,330.7905,690.5393" style="stroke: #A80036; stroke-width: 0.75;"/><!--MD5=[9ead452dce5c3bdac732ae50d3b295bd]
reverse link Attempt to SecretCombination--><path codeLine="86" d="M361.617,698.7683 C372.0757,714.909 385.2945,735.3075 394.5263,749.5545 " fill="none" id="Attempt-backto-SecretCombination" style="stroke: #A80036; stroke-width: 0.75;"/><polygon fill="#FFFFFF" points="356.2845,690.5393,356.2141,695.9471,361.1789,698.092,361.2493,692.6842,356.2845,690.5393" style="stroke: #A80036; stroke-width: 0.75;"/><!--MD5=[d9249be97a352e3fe01bfc6aa6a6cdec]
reverse link Combination to Color--><path codeLine="87" d="M228.4117,697.6598 C212.2365,713.9655 191.391,734.979 176.9318,749.5545 " fill="none" id="Combination-backto-Color" style="stroke: #A80036; stroke-width: 0.75;"/><polygon fill="#A80036" points="235.4753,690.5393,230.1763,691.6213,229.1371,696.9289,234.436,695.8468,235.4753,690.5393" style="stroke: #A80036; stroke-width: 0.75;"/><text fill="#000000" font-family="sans-serif" font-size="9.75" lengthAdjust="spacingAndGlyphs" textLength="3.75" x="177.1041" y="741.5416">*</text><!--MD5=[6397236ca65ddb1b2c0ef8c91c288095]
reverse link Game to SecretCombination--><path codeLine="88" d="M379.0103,589.6913 C391.6268,596.205 404.5965,605.5455 411.75,618.375 C435.2467,660.5175 421.215,720.33 411.9435,749.511 " fill="none" id="Game-backto-SecretCombination" style="stroke: #A80036; stroke-width: 0.75;"/><polygon fill="#A80036" points="369.9735,585.438,372.7673,590.0689,378.1164,589.2711,375.3227,584.6403,369.9735,585.438" style="stroke: #A80036; stroke-width: 0.75;"/><!--MD5=[dd30a8d25c09949520e822d603e437c9]
reverse link Game to Attempt--><path codeLine="89" d="M311.0115,591.5243 C295.383,598.0455 276.564,605.7585 259.5,612.375 C252.225,615.1958 247.4767,611.9835 243,618.375 C239.5575,623.2898 239.5628,626.9572 243,631.875 C259.674,655.7303 277.4355,643.6688 304.5,654.375 C308.6933,656.034 313.104,657.8438 317.4105,659.6483 " fill="none" id="Game-backto-Attempt" style="stroke: #A80036; stroke-width: 0.75;"/><polygon fill="#A80036" points="320.046,587.739,314.7362,586.7113,311.7453,591.2173,317.0551,592.2451,320.046,587.739" style="stroke: #A80036; stroke-width: 0.75;"/><text fill="#000000" font-family="sans-serif" font-size="9.75" lengthAdjust="spacingAndGlyphs" textLength="68.25" x="243.75" y="629.2463">playedAttempts</text><text fill="#000000" font-family="sans-serif" font-size="9.75" lengthAdjust="spacingAndGlyphs" textLength="3.75" x="307.8597" y="654.1087">*</text><!--MD5=[dd30a8d25c09949520e822d603e437c9]
reverse link Game to Attempt--><path codeLine="90" d="M343.1445,604.167 C342.738,612.9983 342.495,622.8533 342.75,631.875 C342.957,639.1988 343.3785,647.2725 343.8015,654.2198 " fill="none" id="Game-backto-Attempt-1" style="stroke: #A80036; stroke-width: 0.75;"/><polygon fill="#A80036" points="343.6778,594.3818,340.4374,598.7119,343.1882,603.3684,346.4285,599.0383,343.6778,594.3818" style="stroke: #A80036; stroke-width: 0.75;"/><text fill="#000000" font-family="sans-serif" font-size="9.75" lengthAdjust="spacingAndGlyphs" textLength="64.5" x="343.5" y="629.2463">currentAttempt</text><!--MD5=[27d7e1388c3d8930cd4d76d00ffd2254]
reverse link GraphicView to graphics--><path codeLine="91" d="M590.7173,378.99 C582.1815,398.5943 570.7343,424.8878 562.9575,442.7497 " fill="none" id="GraphicView-backto-graphics" style="stroke: #A80036; stroke-width: 0.75;"/><polygon fill="#A80036" points="594.6443,369.9698,590.0974,372.8983,591.0519,378.2217,595.5987,375.2932,594.6443,369.9698" style="stroke: #A80036; stroke-width: 0.75;"/><!--MD5=[354d6deacb49030493b7fd8cb23ebdce]
reverse link Controller to StartController--><path codeLine="93" d="M327.9143,268.6387 C336.279,274.917 344.895,281.8162 352.5,288.75 C367.9073,302.7968 383.5418,320.7375 394.2735,333.747 " fill="none" id="Controller-backto-StartController" style="stroke: #A80036; stroke-width: 0.75;"/><polygon fill="none" points="324.6173,272.7323,315.5768,259.662,330.795,264.2415,324.6173,272.7323" style="stroke: #A80036; stroke-width: 0.75;"/><!--MD5=[dfabfd7c269c7ef3ab5bdd4c723fcdb8]
reverse link Controller to ResumeController--><path codeLine="94" d="M289.5,274.923 C289.5,294.1912 289.5,317.8095 289.5,333.5708 " fill="none" id="Controller-backto-ResumeController" style="stroke: #A80036; stroke-width: 0.75;"/><polygon fill="none" points="284.25,274.7228,289.5,259.7228,294.75,274.7228,284.25,274.7228" style="stroke: #A80036; stroke-width: 0.75;"/><!--MD5=[d45f03342f2432c669a4cb0ca24546da]
reverse link Controller to ProposeCombinationController--><path codeLine="95" d="M252.6607,268.4348 C224.2523,288.627 185.7578,315.9885 161.0213,333.5708 " fill="none" id="Controller-backto-ProposeCombinationController" style="stroke: #A80036; stroke-width: 0.75;"/><polygon fill="none" points="249.6503,264.1335,264.918,259.7228,255.7335,272.6918,249.6503,264.1335" style="stroke: #A80036; stroke-width: 0.75;"/><!--MD5=[85405231d22df9101ed3ff397f53ecb1]
@startuml
skinparam {
    BoundaryBackgroundColor #629EF9
    BoundaryBorderColor black
    BoundaryFontSize 12
    BoundarySize 10
    ControlBackgroundColor #b5bd68
    ControlBorderColor #718c00
    EntityBackgroundColor #F2AC4E
    EntityBorderColor black
}

package mastermind {

abstract class Mastermind
class ConsoleMastermind
class GraphicMastermind

package controllers {
    class Controller
    class ProposeCombinationController
    class ResumeController
    class StartController
}

package models {

    class Game
    class Combination
    class SecretCombination
    class ProposedCombination
    Enum Color
    class Attempt
    class Error

}
package utils {
    class Console
}



package views {

    class ErrorView
    class Message
    class View
    class GraphicView
    class ConsoleView

    package console{
        class StartView
        class ProposedCombinationView
        class ResumeView
        class GameView
}


    package graphics {

    }

}
Mastermind .[#blue]down....> models
Mastermind .[#blue]down.> views
Mastermind .[#blue]down.> controllers

views .[#blue]down.> utils

Mastermind <|-up- ConsoleMastermind
Mastermind <|-up- GraphicMastermind
View <|- - ConsoleView
View <|- - GraphicView


ConsoleView *- - GameView
ConsoleView *- - ResumeView
ConsoleView *- - StartView
GameView *- - ProposedCombinationView
GameView .[#grey]..> Message
ResumeView .[#grey].> Message
ProposedCombinationView .[#grey].> ErrorView

Combination <|- - ProposedCombination
Combination <|- - SecretCombination
Attempt o- - ProposedCombination
Attempt o- - SecretCombination
Combination *- - "*" Color
Game *- - SecretCombination
Game *- - "*" Attempt : playedAttempts
Game *- - Attempt : currentAttempt
GraphicView *- - graphics

Controller <|- - StartController
Controller <|- - ResumeController
Controller <|- - ProposeCombinationController


}


@enduml

PlantUML version 1.2020.20(Sat Nov 21 11:02:45 CET 2020)
(GPL source distribution)
Java Runtime: OpenJDK Runtime Environment
JVM: OpenJDK 64-Bit Server VM
Default Encoding: Cp1252
Language: en
Country: GB
--></g></svg>