<?xml version="1.0" encoding="UTF-8" standalone="no"?><svg xmlns="http://www.w3.org/2000/svg" xmlns:xlink="http://www.w3.org/1999/xlink" contentScriptType="application/ecmascript" contentStyleType="text/css" height="1212.96px" preserveAspectRatio="none" style="width:845px;height:1212px;" version="1.1" viewBox="0 0 845 1212" width="845.6px" zoomAndPan="magnify"><defs><filter height="300%" id="f1nxhlow1j7tpu" width="300%" x="-1" y="-1"><feGaussianBlur result="blurOut" stdDeviation="2.24"/><feColorMatrix in="blurOut" result="blurOut2" type="matrix" values="0 0 0 0 0 0 0 0 0 0 0 0 0 0 0 0 0 0 .4 0"/><feOffset dx="4.48" dy="4.48" in="blurOut2" result="blurOut3"/><feBlend in="SourceGraphic" in2="blurOut3" mode="normal"/></filter></defs><g><!--MD5=[b56d8ef9af079015670ad96965866810]
cluster mastermind--><polygon fill="#FFFFFF" filter="url(#f1nxhlow1j7tpu)" points="17.92,6.72,116.48,6.72,124.32,33.1625,826.56,33.1625,826.56,1205.12,17.92,1205.12,17.92,6.72" style="stroke: #000000; stroke-width: 1.6800000000000002;"/><line style="stroke: #000000; stroke-width: 1.6800000000000002;" x1="17.92" x2="124.32" y1="33.1625" y2="33.1625"/><text fill="#000000" font-family="sans-serif" font-size="15.68" font-weight="bold" lengthAdjust="spacingAndGlyphs" textLength="91.84" x="22.4" y="25.2372">mastermind</text><!--MD5=[f4e70ef68289585296b9045165e58692]
cluster controllers--><polygon fill="#FFFFFF" filter="url(#f1nxhlow1j7tpu)" points="44.8,777.28,137.76,777.28,145.6,803.7225,663.04,803.7225,663.04,1178.24,44.8,1178.24,44.8,777.28" style="stroke: #000000; stroke-width: 1.6800000000000002;"/><line style="stroke: #000000; stroke-width: 1.6800000000000002;" x1="44.8" x2="145.6" y1="803.7225" y2="803.7225"/><text fill="#000000" font-family="sans-serif" font-size="15.68" font-weight="bold" lengthAdjust="spacingAndGlyphs" textLength="86.24" x="49.28" y="795.7972">controllers</text><!--MD5=[a60570e4b426f702ccbb0d459e3b9417]
cluster models--><polygon fill="#FFFFFF" filter="url(#f1nxhlow1j7tpu)" points="689.92,929.6,753.76,929.6,761.6,956.0425,799.68,956.0425,799.68,1041.6,689.92,1041.6,689.92,929.6" style="stroke: #000000; stroke-width: 1.6800000000000002;"/><line style="stroke: #000000; stroke-width: 1.6800000000000002;" x1="689.92" x2="761.6" y1="956.0425" y2="956.0425"/><text fill="#000000" font-family="sans-serif" font-size="15.68" font-weight="bold" lengthAdjust="spacingAndGlyphs" textLength="57.12" x="694.4" y="948.1172">models</text><!--MD5=[e2a75efa8a0f57c2afae8bf75386f79c]
cluster views--><polygon fill="#FFFFFF" filter="url(#f1nxhlow1j7tpu)" points="402.08,248.64,454.72,248.64,462.56,275.0825,728,275.0825,728,750.4,402.08,750.4,402.08,248.64" style="stroke: #000000; stroke-width: 1.6800000000000002;"/><line style="stroke: #000000; stroke-width: 1.6800000000000002;" x1="402.08" x2="462.56" y1="275.0825" y2="275.0825"/><text fill="#000000" font-family="sans-serif" font-size="15.68" font-weight="bold" lengthAdjust="spacingAndGlyphs" textLength="45.92" x="406.56" y="267.1572">views</text><!--MD5=[4b7a55d430ce43d42ce9ebad9e6b4010]
cluster console--><polygon fill="#FFFFFF" filter="url(#f1nxhlow1j7tpu)" points="428.96,490.56,498.4,490.56,506.24,517.0025,701.12,517.0025,701.12,723.52,428.96,723.52,428.96,490.56" style="stroke: #000000; stroke-width: 1.6800000000000002;"/><line style="stroke: #000000; stroke-width: 1.6800000000000002;" x1="428.96" x2="506.24" y1="517.0025" y2="517.0025"/><text fill="#000000" font-family="sans-serif" font-size="15.68" font-weight="bold" lengthAdjust="spacingAndGlyphs" textLength="62.72" x="433.44" y="509.0772">console</text><!--MD5=[7283a9eed84464550b6d5ebf39c68b05]
class Mastermind--><rect codeLine="16" fill="#FEFECE" filter="url(#f1nxhlow1j7tpu)" height="53.76" id="Mastermind" style="stroke: #A80036; stroke-width: 1.6800000000000002;" width="107.52" x="349.44" y="168"/><ellipse cx="366.24" cy="185.92" fill="#A9DCDF" rx="12.32" ry="12.32" style="stroke: #A80036; stroke-width: 1.12;"/><path d="M368.2,187.6 L364.5075,187.6 L364.0175,188.72 L364.0175,188.72 L364.5425,188.72 L365.12,189.42 L365.12,189.84 L365.12,190.26 L364.5425,190.96 L364.0175,190.96 L361.9,190.96 L361.2175,190.96 L360.64,190.26 L360.64,189.84 L360.64,189.42 L361.2175,188.72 L361.9,188.72 L364.49,182 L363.51,182 L362.3375,182 L361.76,181.3 L361.76,180.88 L361.76,180.46 L362.3375,179.76 L363.51,179.76 L367.6225,179.76 L370.6325,188.72 L371.2625,188.72 L371.2625,188.72 L371.84,189.42 L371.84,189.84 L371.84,190.26 L371.2625,190.96 L370.6325,190.96 L368.515,190.96 L367.9375,190.96 L367.36,190.26 L367.36,189.84 L367.36,189.42 L367.9375,188.72 L368.515,188.72 L368.515,188.72 L368.2,187.6 Z M367.5875,185.36 L366.24,181.3525 L365.085,185.36 L367.5875,185.36 Z " fill="#000000"/><text fill="#000000" font-family="sans-serif" font-size="13.44" font-style="italic" lengthAdjust="spacingAndGlyphs" textLength="71.68" x="381.92" y="191.4194">Mastermind</text><line style="stroke: #A80036; stroke-width: 1.6800000000000002;" x1="350.56" x2="455.84" y1="203.84" y2="203.84"/><line style="stroke: #A80036; stroke-width: 1.6800000000000002;" x1="350.56" x2="455.84" y1="212.8" y2="212.8"/><!--MD5=[b42ceb2c5584a967df5f7acfe803d0f5]
class ConsoleMastermind--><rect codeLine="17" fill="#FEFECE" filter="url(#f1nxhlow1j7tpu)" height="53.76" id="ConsoleMastermind" style="stroke: #A80036; stroke-width: 1.6800000000000002;" width="161.28" x="322.56" y="47.04"/><ellipse cx="339.36" cy="64.96" fill="#ADD1B2" rx="12.32" ry="12.32" style="stroke: #A80036; stroke-width: 1.12;"/><path d="M341.6,61.04 Q341.8275,60.48 342.09,60.2 Q342.3525,59.92 342.65,59.92 Q343.175,59.92 343.5075,60.235 Q343.84,60.55 343.84,61.285 L343.84,63.035 Q343.84,63.77 343.525,64.085 Q343.21,64.4 342.72,64.4 Q342.2825,64.4 342.0025,64.2075 Q341.7225,64.015 341.6,63.5075 Q341.5475,63.1575 341.355,62.965 Q341.005,62.5975 340.375,62.3875 Q339.745,62.16 339.115,62.16 Q338.3275,62.16 337.6625,62.475 Q337.015,62.79 336.5075,63.49 Q336,64.19 336,65.1525 L336,66.185 Q336,67.34 336.945,68.11 Q337.89,68.88 339.57,68.88 Q340.5675,68.88 341.2675,68.6525 Q341.67,68.53 342.125,68.1275 Q342.4225,67.9 342.58,67.83 Q342.7375,67.76 342.93,67.76 Q343.2975,67.76 343.56,68.0575 Q343.84,68.3375 343.84,68.74 Q343.84,69.125 343.455,69.58 Q342.895,70.245 342.0025,70.6125 Q340.83,71.12 339.395,71.12 Q337.715,71.12 336.3675,70.455 Q335.2825,69.93 334.5125,68.7925 Q333.76,67.655 333.76,66.3075 L333.76,65.0825 Q333.76,63.6825 334.425,62.4575 Q335.1075,61.2325 336.28,60.585 Q337.47,59.92 338.8,59.92 Q339.605,59.92 340.305,60.2 Q341.005,60.48 341.6,61.04 Z " fill="#000000"/><text fill="#000000" font-family="sans-serif" font-size="13.44" lengthAdjust="spacingAndGlyphs" textLength="125.44" x="355.04" y="70.4594">ConsoleMastermind</text><line style="stroke: #A80036; stroke-width: 1.6800000000000002;" x1="323.68" x2="482.72" y1="82.88" y2="82.88"/><line style="stroke: #A80036; stroke-width: 1.6800000000000002;" x1="323.68" x2="482.72" y1="91.84" y2="91.84"/><!--MD5=[1d7ba1c7002d54515419844fbd155368]
class Controller--><rect codeLine="20" fill="#FEFECE" filter="url(#f1nxhlow1j7tpu)" height="53.76" id="Controller" style="stroke: #A80036; stroke-width: 1.6800000000000002;" width="96.32" x="406.56" y="969.92"/><ellipse cx="423.36" cy="987.84" fill="#ADD1B2" rx="12.32" ry="12.32" style="stroke: #A80036; stroke-width: 1.12;"/><path d="M425.6,983.92 Q425.8275,983.36 426.09,983.08 Q426.3525,982.8 426.65,982.8 Q427.175,982.8 427.5075,983.115 Q427.84,983.43 427.84,984.165 L427.84,985.915 Q427.84,986.65 427.525,986.965 Q427.21,987.28 426.72,987.28 Q426.2825,987.28 426.0025,987.0875 Q425.7225,986.895 425.6,986.3875 Q425.5475,986.0375 425.355,985.845 Q425.005,985.4775 424.375,985.2675 Q423.745,985.04 423.115,985.04 Q422.3275,985.04 421.6625,985.355 Q421.015,985.67 420.5075,986.37 Q420,987.07 420,988.0325 L420,989.065 Q420,990.22 420.945,990.99 Q421.89,991.76 423.57,991.76 Q424.5675,991.76 425.2675,991.5325 Q425.67,991.41 426.125,991.0075 Q426.4225,990.78 426.58,990.71 Q426.7375,990.64 426.93,990.64 Q427.2975,990.64 427.56,990.9375 Q427.84,991.2175 427.84,991.62 Q427.84,992.005 427.455,992.46 Q426.895,993.125 426.0025,993.4925 Q424.83,994 423.395,994 Q421.715,994 420.3675,993.335 Q419.2825,992.81 418.5125,991.6725 Q417.76,990.535 417.76,989.1875 L417.76,987.9625 Q417.76,986.5625 418.425,985.3375 Q419.1075,984.1125 420.28,983.465 Q421.47,982.8 422.8,982.8 Q423.605,982.8 424.305,983.08 Q425.005,983.36 425.6,983.92 Z " fill="#000000"/><text fill="#000000" font-family="sans-serif" font-size="13.44" lengthAdjust="spacingAndGlyphs" textLength="60.48" x="439.04" y="993.3394">Controller</text><line style="stroke: #A80036; stroke-width: 1.6800000000000002;" x1="407.68" x2="501.76" y1="1005.76" y2="1005.76"/><line style="stroke: #A80036; stroke-width: 1.6800000000000002;" x1="407.68" x2="501.76" y1="1014.72" y2="1014.72"/><!--MD5=[42fa18dda7351a0ae87d9497de925436]
class Logic--><rect codeLine="21" fill="#FEFECE" filter="url(#f1nxhlow1j7tpu)" height="84.7525" id="Logic" style="stroke: #A80036; stroke-width: 1.6800000000000002;" width="109.76" x="381.92" y="817.6"/><ellipse cx="416.864" cy="835.52" fill="#ADD1B2" rx="12.32" ry="12.32" style="stroke: #A80036; stroke-width: 1.12;"/><path d="M419.104,831.6 Q419.3315,831.04 419.594,830.76 Q419.8565,830.48 420.154,830.48 Q420.679,830.48 421.0115,830.795 Q421.344,831.11 421.344,831.845 L421.344,833.595 Q421.344,834.33 421.029,834.645 Q420.714,834.96 420.224,834.96 Q419.7865,834.96 419.5065,834.7675 Q419.2265,834.575 419.104,834.0675 Q419.0515,833.7175 418.859,833.525 Q418.509,833.1575 417.879,832.9475 Q417.249,832.72 416.619,832.72 Q415.8315,832.72 415.1665,833.035 Q414.519,833.35 414.0115,834.05 Q413.504,834.75 413.504,835.7125 L413.504,836.745 Q413.504,837.9 414.449,838.67 Q415.394,839.44 417.074,839.44 Q418.0715,839.44 418.7715,839.2125 Q419.174,839.09 419.629,838.6875 Q419.9265,838.46 420.084,838.39 Q420.2415,838.32 420.434,838.32 Q420.8015,838.32 421.064,838.6175 Q421.344,838.8975 421.344,839.3 Q421.344,839.685 420.959,840.14 Q420.399,840.805 419.5065,841.1725 Q418.334,841.68 416.899,841.68 Q415.219,841.68 413.8715,841.015 Q412.7865,840.49 412.0165,839.3525 Q411.264,838.215 411.264,836.8675 L411.264,835.6425 Q411.264,834.2425 411.929,833.0175 Q412.6115,831.7925 413.784,831.145 Q414.974,830.48 416.304,830.48 Q417.109,830.48 417.809,830.76 Q418.509,831.04 419.104,831.6 Z " fill="#000000"/><text fill="#000000" font-family="sans-serif" font-size="13.44" lengthAdjust="spacingAndGlyphs" textLength="33.6" x="436.576" y="841.0194">Logic</text><line style="stroke: #A80036; stroke-width: 1.6800000000000002;" x1="383.04" x2="490.56" y1="853.44" y2="853.44"/><line style="stroke: #A80036; stroke-width: 1.6800000000000002;" x1="383.04" x2="490.56" y1="862.4" y2="862.4"/><text fill="#FF0000" font-family="sans-serif" font-size="12.32" lengthAdjust="spacingAndGlyphs" textLength="96.32" x="388.64" y="879.6692">playCombination()</text><text fill="#FF0000" font-family="sans-serif" font-size="12.32" lengthAdjust="spacingAndGlyphs" textLength="54.88" x="388.64" y="895.1655">initGame()</text><!--MD5=[92433bfbd7559c1d4e4a44c9d1c48b0e]
class ProposeCombinationController--><rect codeLine="25" fill="#FEFECE" filter="url(#f1nxhlow1j7tpu)" height="69.2563" id="ProposeCombinationController" style="stroke: #A80036; stroke-width: 1.6800000000000002;" width="228.48" x="252" y="1090.88"/><ellipse cx="268.8" cy="1108.8" fill="#ADD1B2" rx="12.32" ry="12.32" style="stroke: #A80036; stroke-width: 1.12;"/><path d="M271.04,1104.88 Q271.2675,1104.32 271.53,1104.04 Q271.7925,1103.76 272.09,1103.76 Q272.615,1103.76 272.9475,1104.075 Q273.28,1104.39 273.28,1105.125 L273.28,1106.875 Q273.28,1107.61 272.965,1107.925 Q272.65,1108.24 272.16,1108.24 Q271.7225,1108.24 271.4425,1108.0475 Q271.1625,1107.855 271.04,1107.3475 Q270.9875,1106.9975 270.795,1106.805 Q270.445,1106.4375 269.815,1106.2275 Q269.185,1106 268.555,1106 Q267.7675,1106 267.1025,1106.315 Q266.455,1106.63 265.9475,1107.33 Q265.44,1108.03 265.44,1108.9925 L265.44,1110.025 Q265.44,1111.18 266.385,1111.95 Q267.33,1112.72 269.01,1112.72 Q270.0075,1112.72 270.7075,1112.4925 Q271.11,1112.37 271.565,1111.9675 Q271.8625,1111.74 272.02,1111.67 Q272.1775,1111.6 272.37,1111.6 Q272.7375,1111.6 273,1111.8975 Q273.28,1112.1775 273.28,1112.58 Q273.28,1112.965 272.895,1113.42 Q272.335,1114.085 271.4425,1114.4525 Q270.27,1114.96 268.835,1114.96 Q267.155,1114.96 265.8075,1114.295 Q264.7225,1113.77 263.9525,1112.6325 Q263.2,1111.495 263.2,1110.1475 L263.2,1108.9225 Q263.2,1107.5225 263.865,1106.2975 Q264.5475,1105.0725 265.72,1104.425 Q266.91,1103.76 268.24,1103.76 Q269.045,1103.76 269.745,1104.04 Q270.445,1104.32 271.04,1104.88 Z " fill="#000000"/><text fill="#000000" font-family="sans-serif" font-size="13.44" lengthAdjust="spacingAndGlyphs" textLength="192.64" x="284.48" y="1114.2994">ProposeCombinationController</text><line style="stroke: #A80036; stroke-width: 1.6800000000000002;" x1="253.12" x2="479.36" y1="1126.72" y2="1126.72"/><line style="stroke: #A80036; stroke-width: 1.6800000000000002;" x1="253.12" x2="479.36" y1="1135.68" y2="1135.68"/><text fill="#FF0000" font-family="sans-serif" font-size="12.32" lengthAdjust="spacingAndGlyphs" textLength="96.32" x="258.72" y="1152.9492">playCombination()</text><!--MD5=[1a47bbf44ccee225df9b18c5b6629853]
class ResumeController--><rect codeLine="28" fill="#FEFECE" filter="url(#f1nxhlow1j7tpu)" height="53.76" id="ResumeController" style="stroke: #A80036; stroke-width: 1.6800000000000002;" width="150.08" x="62.72" y="1098.72"/><ellipse cx="79.52" cy="1116.64" fill="#ADD1B2" rx="12.32" ry="12.32" style="stroke: #A80036; stroke-width: 1.12;"/><path d="M81.76,1112.72 Q81.9875,1112.16 82.25,1111.88 Q82.5125,1111.6 82.81,1111.6 Q83.335,1111.6 83.6675,1111.915 Q84,1112.23 84,1112.965 L84,1114.715 Q84,1115.45 83.685,1115.765 Q83.37,1116.08 82.88,1116.08 Q82.4425,1116.08 82.1625,1115.8875 Q81.8825,1115.695 81.76,1115.1875 Q81.7075,1114.8375 81.515,1114.645 Q81.165,1114.2775 80.535,1114.0675 Q79.905,1113.84 79.275,1113.84 Q78.4875,1113.84 77.8225,1114.155 Q77.175,1114.47 76.6675,1115.17 Q76.16,1115.87 76.16,1116.8325 L76.16,1117.865 Q76.16,1119.02 77.105,1119.79 Q78.05,1120.56 79.73,1120.56 Q80.7275,1120.56 81.4275,1120.3325 Q81.83,1120.21 82.285,1119.8075 Q82.5825,1119.58 82.74,1119.51 Q82.8975,1119.44 83.09,1119.44 Q83.4575,1119.44 83.72,1119.7375 Q84,1120.0175 84,1120.42 Q84,1120.805 83.615,1121.26 Q83.055,1121.925 82.1625,1122.2925 Q80.99,1122.8 79.555,1122.8 Q77.875,1122.8 76.5275,1122.135 Q75.4425,1121.61 74.6725,1120.4725 Q73.92,1119.335 73.92,1117.9875 L73.92,1116.7625 Q73.92,1115.3625 74.585,1114.1375 Q75.2675,1112.9125 76.44,1112.265 Q77.63,1111.6 78.96,1111.6 Q79.765,1111.6 80.465,1111.88 Q81.165,1112.16 81.76,1112.72 Z " fill="#000000"/><text fill="#000000" font-family="sans-serif" font-size="13.44" lengthAdjust="spacingAndGlyphs" textLength="114.24" x="95.2" y="1122.1394">ResumeController</text><line style="stroke: #A80036; stroke-width: 1.6800000000000002;" x1="63.84" x2="211.68" y1="1134.56" y2="1134.56"/><line style="stroke: #A80036; stroke-width: 1.6800000000000002;" x1="63.84" x2="211.68" y1="1143.52" y2="1143.52"/><!--MD5=[47c371471411cfedeee61b1a5bdaee47]
class StartController--><rect codeLine="29" fill="#FEFECE" filter="url(#f1nxhlow1j7tpu)" height="69.2563" id="StartController" style="stroke: #A80036; stroke-width: 1.6800000000000002;" width="124.32" x="520.24" y="1090.88"/><ellipse cx="537.04" cy="1108.8" fill="#ADD1B2" rx="12.32" ry="12.32" style="stroke: #A80036; stroke-width: 1.12;"/><path d="M539.28,1104.88 Q539.5075,1104.32 539.77,1104.04 Q540.0325,1103.76 540.33,1103.76 Q540.855,1103.76 541.1875,1104.075 Q541.52,1104.39 541.52,1105.125 L541.52,1106.875 Q541.52,1107.61 541.205,1107.925 Q540.89,1108.24 540.4,1108.24 Q539.9625,1108.24 539.6825,1108.0475 Q539.4025,1107.855 539.28,1107.3475 Q539.2275,1106.9975 539.035,1106.805 Q538.685,1106.4375 538.055,1106.2275 Q537.425,1106 536.795,1106 Q536.0075,1106 535.3425,1106.315 Q534.695,1106.63 534.1875,1107.33 Q533.68,1108.03 533.68,1108.9925 L533.68,1110.025 Q533.68,1111.18 534.625,1111.95 Q535.57,1112.72 537.25,1112.72 Q538.2475,1112.72 538.9475,1112.4925 Q539.35,1112.37 539.805,1111.9675 Q540.1025,1111.74 540.26,1111.67 Q540.4175,1111.6 540.61,1111.6 Q540.9775,1111.6 541.24,1111.8975 Q541.52,1112.1775 541.52,1112.58 Q541.52,1112.965 541.135,1113.42 Q540.575,1114.085 539.6825,1114.4525 Q538.51,1114.96 537.075,1114.96 Q535.395,1114.96 534.0475,1114.295 Q532.9625,1113.77 532.1925,1112.6325 Q531.44,1111.495 531.44,1110.1475 L531.44,1108.9225 Q531.44,1107.5225 532.105,1106.2975 Q532.7875,1105.0725 533.96,1104.425 Q535.15,1103.76 536.48,1103.76 Q537.285,1103.76 537.985,1104.04 Q538.685,1104.32 539.28,1104.88 Z " fill="#000000"/><text fill="#000000" font-family="sans-serif" font-size="13.44" lengthAdjust="spacingAndGlyphs" textLength="88.48" x="552.72" y="1114.2994">StartController</text><line style="stroke: #A80036; stroke-width: 1.6800000000000002;" x1="521.36" x2="643.44" y1="1126.72" y2="1126.72"/><line style="stroke: #A80036; stroke-width: 1.6800000000000002;" x1="521.36" x2="643.44" y1="1135.68" y2="1135.68"/><text fill="#FF0000" font-family="sans-serif" font-size="12.32" lengthAdjust="spacingAndGlyphs" textLength="54.88" x="526.96" y="1152.9492">initGame()</text><!--MD5=[b6dcce5e5ef3c84b0b048d11301373dd]
class Game--><rect codeLine="35" fill="#FEFECE" filter="url(#f1nxhlow1j7tpu)" height="53.76" id="Game" style="stroke: #A80036; stroke-width: 1.6800000000000002;" width="73.92" x="707.84" y="969.92"/><ellipse cx="724.64" cy="987.84" fill="#ADD1B2" rx="12.32" ry="12.32" style="stroke: #A80036; stroke-width: 1.12;"/><path d="M726.88,983.92 Q727.1075,983.36 727.37,983.08 Q727.6325,982.8 727.93,982.8 Q728.455,982.8 728.7875,983.115 Q729.12,983.43 729.12,984.165 L729.12,985.915 Q729.12,986.65 728.805,986.965 Q728.49,987.28 728,987.28 Q727.5625,987.28 727.2825,987.0875 Q727.0025,986.895 726.88,986.3875 Q726.8275,986.0375 726.635,985.845 Q726.285,985.4775 725.655,985.2675 Q725.025,985.04 724.395,985.04 Q723.6075,985.04 722.9425,985.355 Q722.295,985.67 721.7875,986.37 Q721.28,987.07 721.28,988.0325 L721.28,989.065 Q721.28,990.22 722.225,990.99 Q723.17,991.76 724.85,991.76 Q725.8475,991.76 726.5475,991.5325 Q726.95,991.41 727.405,991.0075 Q727.7025,990.78 727.86,990.71 Q728.0175,990.64 728.21,990.64 Q728.5775,990.64 728.84,990.9375 Q729.12,991.2175 729.12,991.62 Q729.12,992.005 728.735,992.46 Q728.175,993.125 727.2825,993.4925 Q726.11,994 724.675,994 Q722.995,994 721.6475,993.335 Q720.5625,992.81 719.7925,991.6725 Q719.04,990.535 719.04,989.1875 L719.04,987.9625 Q719.04,986.5625 719.705,985.3375 Q720.3875,984.1125 721.56,983.465 Q722.75,982.8 724.08,982.8 Q724.885,982.8 725.585,983.08 Q726.285,983.36 726.88,983.92 Z " fill="#000000"/><text fill="#000000" font-family="sans-serif" font-size="13.44" lengthAdjust="spacingAndGlyphs" textLength="38.08" x="740.32" y="993.3394">Game</text><line style="stroke: #A80036; stroke-width: 1.6800000000000002;" x1="708.96" x2="780.64" y1="1005.76" y2="1005.76"/><line style="stroke: #A80036; stroke-width: 1.6800000000000002;" x1="708.96" x2="780.64" y1="1014.72" y2="1014.72"/><!--MD5=[c045e12321b83266d36d22b9096c24ea]
class View--><rect codeLine="40" fill="#FEFECE" filter="url(#f1nxhlow1j7tpu)" height="53.76" id="View" style="stroke: #A80036; stroke-width: 1.6800000000000002;" width="64.96" x="420" y="288.96"/><ellipse cx="436.8" cy="306.88" fill="#ADD1B2" rx="12.32" ry="12.32" style="stroke: #A80036; stroke-width: 1.12;"/><path d="M439.04,302.96 Q439.2675,302.4 439.53,302.12 Q439.7925,301.84 440.09,301.84 Q440.615,301.84 440.9475,302.155 Q441.28,302.47 441.28,303.205 L441.28,304.955 Q441.28,305.69 440.965,306.005 Q440.65,306.32 440.16,306.32 Q439.7225,306.32 439.4425,306.1275 Q439.1625,305.935 439.04,305.4275 Q438.9875,305.0775 438.795,304.885 Q438.445,304.5175 437.815,304.3075 Q437.185,304.08 436.555,304.08 Q435.7675,304.08 435.1025,304.395 Q434.455,304.71 433.9475,305.41 Q433.44,306.11 433.44,307.0725 L433.44,308.105 Q433.44,309.26 434.385,310.03 Q435.33,310.8 437.01,310.8 Q438.0075,310.8 438.7075,310.5725 Q439.11,310.45 439.565,310.0475 Q439.8625,309.82 440.02,309.75 Q440.1775,309.68 440.37,309.68 Q440.7375,309.68 441,309.9775 Q441.28,310.2575 441.28,310.66 Q441.28,311.045 440.895,311.5 Q440.335,312.165 439.4425,312.5325 Q438.27,313.04 436.835,313.04 Q435.155,313.04 433.8075,312.375 Q432.7225,311.85 431.9525,310.7125 Q431.2,309.575 431.2,308.2275 L431.2,307.0025 Q431.2,305.6025 431.865,304.3775 Q432.5475,303.1525 433.72,302.505 Q434.91,301.84 436.24,301.84 Q437.045,301.84 437.745,302.12 Q438.445,302.4 439.04,302.96 Z " fill="#000000"/><text fill="#000000" font-family="sans-serif" font-size="13.44" lengthAdjust="spacingAndGlyphs" textLength="29.12" x="452.48" y="312.3794">View</text><line style="stroke: #A80036; stroke-width: 1.6800000000000002;" x1="421.12" x2="483.84" y1="324.8" y2="324.8"/><line style="stroke: #A80036; stroke-width: 1.6800000000000002;" x1="421.12" x2="483.84" y1="333.76" y2="333.76"/><!--MD5=[51d729737bd84a4c43136dd336c2eea1]
class ConsoleView--><rect codeLine="41" fill="#FEFECE" filter="url(#f1nxhlow1j7tpu)" height="53.76" id="ConsoleView" style="stroke: #A80036; stroke-width: 1.6800000000000002;" width="117.6" x="439.6" y="409.92"/><ellipse cx="456.4" cy="427.84" fill="#ADD1B2" rx="12.32" ry="12.32" style="stroke: #A80036; stroke-width: 1.12;"/><path d="M458.64,423.92 Q458.8675,423.36 459.13,423.08 Q459.3925,422.8 459.69,422.8 Q460.215,422.8 460.5475,423.115 Q460.88,423.43 460.88,424.165 L460.88,425.915 Q460.88,426.65 460.565,426.965 Q460.25,427.28 459.76,427.28 Q459.3225,427.28 459.0425,427.0875 Q458.7625,426.895 458.64,426.3875 Q458.5875,426.0375 458.395,425.845 Q458.045,425.4775 457.415,425.2675 Q456.785,425.04 456.155,425.04 Q455.3675,425.04 454.7025,425.355 Q454.055,425.67 453.5475,426.37 Q453.04,427.07 453.04,428.0325 L453.04,429.065 Q453.04,430.22 453.985,430.99 Q454.93,431.76 456.61,431.76 Q457.6075,431.76 458.3075,431.5325 Q458.71,431.41 459.165,431.0075 Q459.4625,430.78 459.62,430.71 Q459.7775,430.64 459.97,430.64 Q460.3375,430.64 460.6,430.9375 Q460.88,431.2175 460.88,431.62 Q460.88,432.005 460.495,432.46 Q459.935,433.125 459.0425,433.4925 Q457.87,434 456.435,434 Q454.755,434 453.4075,433.335 Q452.3225,432.81 451.5525,431.6725 Q450.8,430.535 450.8,429.1875 L450.8,427.9625 Q450.8,426.5625 451.465,425.3375 Q452.1475,424.1125 453.32,423.465 Q454.51,422.8 455.84,422.8 Q456.645,422.8 457.345,423.08 Q458.045,423.36 458.64,423.92 Z " fill="#000000"/><text fill="#000000" font-family="sans-serif" font-size="13.44" lengthAdjust="spacingAndGlyphs" textLength="81.76" x="472.08" y="433.3394">ConsoleView</text><line style="stroke: #A80036; stroke-width: 1.6800000000000002;" x1="440.72" x2="556.08" y1="445.76" y2="445.76"/><line style="stroke: #A80036; stroke-width: 1.6800000000000002;" x1="440.72" x2="556.08" y1="454.72" y2="454.72"/><!--MD5=[443c52daef265809fdf31be84fc8ae4a]
class StartView--><rect codeLine="44" fill="#FEFECE" filter="url(#f1nxhlow1j7tpu)" height="53.76" id="StartView" style="stroke: #A80036; stroke-width: 1.6800000000000002;" width="92.96" x="589.68" y="530.88"/><ellipse cx="606.48" cy="548.8" fill="#ADD1B2" rx="12.32" ry="12.32" style="stroke: #A80036; stroke-width: 1.12;"/><path d="M608.72,544.88 Q608.9475,544.32 609.21,544.04 Q609.4725,543.76 609.77,543.76 Q610.295,543.76 610.6275,544.075 Q610.96,544.39 610.96,545.125 L610.96,546.875 Q610.96,547.61 610.645,547.925 Q610.33,548.24 609.84,548.24 Q609.4025,548.24 609.1225,548.0475 Q608.8425,547.855 608.72,547.3475 Q608.6675,546.9975 608.475,546.805 Q608.125,546.4375 607.495,546.2275 Q606.865,546 606.235,546 Q605.4475,546 604.7825,546.315 Q604.135,546.63 603.6275,547.33 Q603.12,548.03 603.12,548.9925 L603.12,550.025 Q603.12,551.18 604.065,551.95 Q605.01,552.72 606.69,552.72 Q607.6875,552.72 608.3875,552.4925 Q608.79,552.37 609.245,551.9675 Q609.5425,551.74 609.7,551.67 Q609.8575,551.6 610.05,551.6 Q610.4175,551.6 610.68,551.8975 Q610.96,552.1775 610.96,552.58 Q610.96,552.965 610.575,553.42 Q610.015,554.085 609.1225,554.4525 Q607.95,554.96 606.515,554.96 Q604.835,554.96 603.4875,554.295 Q602.4025,553.77 601.6325,552.6325 Q600.88,551.495 600.88,550.1475 L600.88,548.9225 Q600.88,547.5225 601.545,546.2975 Q602.2275,545.0725 603.4,544.425 Q604.59,543.76 605.92,543.76 Q606.725,543.76 607.425,544.04 Q608.125,544.32 608.72,544.88 Z " fill="#000000"/><text fill="#000000" font-family="sans-serif" font-size="13.44" lengthAdjust="spacingAndGlyphs" textLength="57.12" x="622.16" y="554.2994">StartView</text><line style="stroke: #A80036; stroke-width: 1.6800000000000002;" x1="590.8" x2="681.52" y1="566.72" y2="566.72"/><line style="stroke: #A80036; stroke-width: 1.6800000000000002;" x1="590.8" x2="681.52" y1="575.68" y2="575.68"/><!--MD5=[0523615cfa2fa70c8ab764401f29a299]
class ProposedCombinationView--><rect codeLine="45" fill="#FEFECE" filter="url(#f1nxhlow1j7tpu)" height="53.76" id="ProposedCombinationView" style="stroke: #A80036; stroke-width: 1.6800000000000002;" width="204.96" x="477.68" y="651.84"/><ellipse cx="494.48" cy="669.76" fill="#ADD1B2" rx="12.32" ry="12.32" style="stroke: #A80036; stroke-width: 1.12;"/><path d="M496.72,665.84 Q496.9475,665.28 497.21,665 Q497.4725,664.72 497.77,664.72 Q498.295,664.72 498.6275,665.035 Q498.96,665.35 498.96,666.085 L498.96,667.835 Q498.96,668.57 498.645,668.885 Q498.33,669.2 497.84,669.2 Q497.4025,669.2 497.1225,669.0075 Q496.8425,668.815 496.72,668.3075 Q496.6675,667.9575 496.475,667.765 Q496.125,667.3975 495.495,667.1875 Q494.865,666.96 494.235,666.96 Q493.4475,666.96 492.7825,667.275 Q492.135,667.59 491.6275,668.29 Q491.12,668.99 491.12,669.9525 L491.12,670.985 Q491.12,672.14 492.065,672.91 Q493.01,673.68 494.69,673.68 Q495.6875,673.68 496.3875,673.4525 Q496.79,673.33 497.245,672.9275 Q497.5425,672.7 497.7,672.63 Q497.8575,672.56 498.05,672.56 Q498.4175,672.56 498.68,672.8575 Q498.96,673.1375 498.96,673.54 Q498.96,673.925 498.575,674.38 Q498.015,675.045 497.1225,675.4125 Q495.95,675.92 494.515,675.92 Q492.835,675.92 491.4875,675.255 Q490.4025,674.73 489.6325,673.5925 Q488.88,672.455 488.88,671.1075 L488.88,669.8825 Q488.88,668.4825 489.545,667.2575 Q490.2275,666.0325 491.4,665.385 Q492.59,664.72 493.92,664.72 Q494.725,664.72 495.425,665 Q496.125,665.28 496.72,665.84 Z " fill="#000000"/><text fill="#000000" font-family="sans-serif" font-size="13.44" lengthAdjust="spacingAndGlyphs" textLength="169.12" x="510.16" y="675.2594">ProposedCombinationView</text><line style="stroke: #A80036; stroke-width: 1.6800000000000002;" x1="478.8" x2="681.52" y1="687.68" y2="687.68"/><line style="stroke: #A80036; stroke-width: 1.6800000000000002;" x1="478.8" x2="681.52" y1="696.64" y2="696.64"/><!--MD5=[5d3822d29342fbd355d1b65ea3562ec9]
class GameView--><rect codeLine="46" fill="#FEFECE" filter="url(#f1nxhlow1j7tpu)" height="53.76" id="GameView" style="stroke: #A80036; stroke-width: 1.6800000000000002;" width="103.04" x="446.88" y="530.88"/><ellipse cx="463.68" cy="548.8" fill="#ADD1B2" rx="12.32" ry="12.32" style="stroke: #A80036; stroke-width: 1.12;"/><path d="M465.92,544.88 Q466.1475,544.32 466.41,544.04 Q466.6725,543.76 466.97,543.76 Q467.495,543.76 467.8275,544.075 Q468.16,544.39 468.16,545.125 L468.16,546.875 Q468.16,547.61 467.845,547.925 Q467.53,548.24 467.04,548.24 Q466.6025,548.24 466.3225,548.0475 Q466.0425,547.855 465.92,547.3475 Q465.8675,546.9975 465.675,546.805 Q465.325,546.4375 464.695,546.2275 Q464.065,546 463.435,546 Q462.6475,546 461.9825,546.315 Q461.335,546.63 460.8275,547.33 Q460.32,548.03 460.32,548.9925 L460.32,550.025 Q460.32,551.18 461.265,551.95 Q462.21,552.72 463.89,552.72 Q464.8875,552.72 465.5875,552.4925 Q465.99,552.37 466.445,551.9675 Q466.7425,551.74 466.9,551.67 Q467.0575,551.6 467.25,551.6 Q467.6175,551.6 467.88,551.8975 Q468.16,552.1775 468.16,552.58 Q468.16,552.965 467.775,553.42 Q467.215,554.085 466.3225,554.4525 Q465.15,554.96 463.715,554.96 Q462.035,554.96 460.6875,554.295 Q459.6025,553.77 458.8325,552.6325 Q458.08,551.495 458.08,550.1475 L458.08,548.9225 Q458.08,547.5225 458.745,546.2975 Q459.4275,545.0725 460.6,544.425 Q461.79,543.76 463.12,543.76 Q463.925,543.76 464.625,544.04 Q465.325,544.32 465.92,544.88 Z " fill="#000000"/><text fill="#000000" font-family="sans-serif" font-size="13.44" lengthAdjust="spacingAndGlyphs" textLength="67.2" x="479.36" y="554.2994">GameView</text><line style="stroke: #A80036; stroke-width: 1.6800000000000002;" x1="448" x2="548.8" y1="566.72" y2="566.72"/><line style="stroke: #A80036; stroke-width: 1.6800000000000002;" x1="448" x2="548.8" y1="575.68" y2="575.68"/><!--MD5=[a1b33916ae7328de9d8df5a2edffcf3b]
reverse link Mastermind to View--><path codeLine="53" d="M419.6584,235.6502 C426.8958,253.0853 435.195,273.0795 441.6373,288.5994 " fill="none" id="Mastermind-backto-View" style="stroke: #000000; stroke-width: 1.12;"/><polygon fill="#000000" points="413.8926,221.76,412.3314,229.6841,419.0454,234.173,420.6067,226.2489,413.8926,221.76" style="stroke: #000000; stroke-width: 1.12;"/><!--MD5=[68ecb4c13504d415978561d0da067088]
reverse link Mastermind to Logic--><path codeLine="54" d="M389.8093,235.9526 C375.2157,283.1158 353.92,364.1893 353.92,435.68 C353.92,435.68 353.92,435.68 353.92,558.88 C353.92,654.0274 393.0942,760.2202 417.5774,817.2976 " fill="none" id="Mastermind-backto-Logic" style="stroke: #008000; stroke-width: 1.12;"/><polygon fill="#008000" points="394.2758,221.8866,387.9722,226.9356,390.2083,234.6963,396.512,229.6473,394.2758,221.8866" style="stroke: #008000; stroke-width: 1.12;"/><!--MD5=[535344f3358c01d37ed18bab87bee925]
link ConsoleMastermind to Mastermind--><path codeLine="55" d="M403.2,100.8 C403.2,113.7786 403.2,129.9525 403.2,145.1531 " fill="none" id="ConsoleMastermind-to-Mastermind" style="stroke: #000000; stroke-width: 1.12;"/><polygon fill="none" points="411.04,145.2394,403.2,167.6394,395.36,145.2394,411.04,145.2394" style="stroke: #000000; stroke-width: 1.12;"/><!--MD5=[a63dd7f30baaeb88fc8dd2ca46e0cc37]
reverse link View to ConsoleView--><path codeLine="56" d="M470.699,364.0638 C476.691,379.5557 483.1344,396.2123 488.2965,409.5594 " fill="none" id="View-backto-ConsoleView" style="stroke: #000000; stroke-width: 1.12;"/><polygon fill="none" points="463.213,366.4405,462.4435,342.72,477.8368,360.7834,463.213,366.4405" style="stroke: #000000; stroke-width: 1.12;"/><!--MD5=[97867749d16b9bcaa8d3d4c3b3669e31]
link View to Logic--><path codeLine="57" d="M440.8197,342.7827 C433.2093,361.0992 423.9749,386.4918 420,409.92 C395.4317,554.7226 416.0755,729.3955 428.727,811.7267 " fill="none" id="View-to-Logic" style="stroke: #008000; stroke-width: 1.12;"/><polygon fill="#008000" points="429.623,817.4936,432.5032,806.8455,428.7637,811.9599,423.6493,808.2205,429.623,817.4936" style="stroke: #008000; stroke-width: 1.12;"/><!--MD5=[80ab1a49ad0d9c1b1494d1e2d9def107]
reverse link Logic to Game--><path codeLine="58" d="M506.6544,870.613 C553.112,878.9278 614.3122,894.0467 663.04,920.64 C685.8712,933.1 707.3595,953.2869 722.5714,969.5862 " fill="none" id="Logic-backto-Game" style="stroke: #000000; stroke-width: 1.12;"/><polygon fill="#000000" points="492.1235,868.1456,497.999,873.6871,505.374,870.3949,499.4985,864.8534,492.1235,868.1456" style="stroke: #000000; stroke-width: 1.12;"/><!--MD5=[c9286e163b9bbc963d600c0afe46706f]
reverse link Logic to ProposeCombinationController--><path codeLine="59" d="M389.9078,915.4712 C389.0499,917.1792 388.2502,918.904 387.52,920.64 C363.9138,976.7173 362.3491,1048.8285 363.9126,1090.5328 " fill="none" id="Logic-backto-ProposeCombinationController" style="stroke: #008000; stroke-width: 1.12;"/><polygon fill="#008000" points="397.4723,902.7413,390.188,906.2295,390.6062,914.2951,397.8905,910.8069,397.4723,902.7413" style="stroke: #008000; stroke-width: 1.12;"/><!--MD5=[845c510d97bec972487eae756b278597]
reverse link Logic to ResumeController--><path codeLine="60" d="M369.7131,908.1397 C364.3013,912.2781 358.9757,916.4781 353.92,920.64 C281.2454,980.4749 202.3336,1058.5926 163.0115,1098.5162 " fill="none" id="Logic-backto-ResumeController" style="stroke: #008000; stroke-width: 1.12;"/><polygon fill="#008000" points="381.6266,899.2155,373.5622,899.6578,370.8689,907.272,378.9332,906.8296,381.6266,899.2155" style="stroke: #008000; stroke-width: 1.12;"/><!--MD5=[aa06d97dc9e32effb7317f5f23e39cac]
reverse link Logic to StartController--><path codeLine="61" d="M503.6125,899.9883 C510.8734,906.1998 517.5912,913.099 523.04,920.64 C560.4917,972.4758 574.4446,1047.6782 579.5474,1090.7658 " fill="none" id="Logic-backto-StartController" style="stroke: #008000; stroke-width: 1.12;"/><polygon fill="#008000" points="491.8581,890.7987,494.3927,898.4671,502.4461,899.0768,499.9115,891.4084,491.8581,890.7987" style="stroke: #008000; stroke-width: 1.12;"/><!--MD5=[27021d7192df067fe1906bbc86d987c3]
reverse link ConsoleView to GameView--><path codeLine="63" d="M498.4,478.6186 C498.4,495.8027 498.4,515.3098 498.4,530.5194 " fill="none" id="ConsoleView-backto-GameView" style="stroke: #000000; stroke-width: 1.12;"/><polygon fill="#000000" points="498.4,463.68,493.92,470.4,498.4,477.12,502.88,470.4,498.4,463.68" style="stroke: #000000; stroke-width: 1.12;"/><!--MD5=[56bdcb266f45864af3131be201f47f99]
reverse link ConsoleView to StartView--><path codeLine="64" d="M557.667,472.0285 C561.979,475.1118 566.1656,478.3162 570.08,481.6 C587.3683,496.104 604.1381,515.228 616.4581,530.5406 " fill="none" id="ConsoleView-backto-StartView" style="stroke: #000000; stroke-width: 1.12;"/><polygon fill="#000000" points="545.3112,463.6867,548.3738,471.1599,556.4501,471.2072,553.3875,463.734,545.3112,463.6867" style="stroke: #000000; stroke-width: 1.12;"/><!--MD5=[1a2a8fca0b6e363b5cf9d4bd576f3fc8]
reverse link GameView to ProposedCombinationView--><path codeLine="66" d="M524.6304,596.9678 C536.8843,614.7613 551.1621,635.4936 562.1717,651.4794 " fill="none" id="GameView-backto-ProposedCombinationView" style="stroke: #000000; stroke-width: 1.12;"/><polygon fill="#000000" points="516.1408,584.64,516.2629,592.7155,523.7642,595.7088,523.6421,587.6333,516.1408,584.64" style="stroke: #000000; stroke-width: 1.12;"/><!--MD5=[d6c611d92670e93c8fc93f7c4d5cdd34]
link GameView to Logic--><path codeLine="67" d="M484.5131,584.9536 C475.459,603.1749 464.2221,628.3536 458.08,651.84 C444.0834,705.3581 439.2158,768.9035 437.565,811.3806 " fill="none" id="GameView-to-Logic" style="stroke: #000000; stroke-width: 1.12;"/><polygon fill="#000000" points="437.3443,817.4914,442.1872,807.5806,437.5476,811.895,433.2331,807.2554,437.3443,817.4914" style="stroke: #000000; stroke-width: 1.12;"/><!--MD5=[c16d60ac9a2d344dce2ec2432a17c605]
link StartView to Logic--><path codeLine="68" d="M661.3813,584.8718 C676.4442,602.2789 694.1715,626.5638 702.24,651.84 C716.772,697.3635 729.4504,720.0771 702.24,759.36 C656.3939,825.5475 560.775,847.8501 497.6989,855.325 " fill="none" id="StartView-to-Logic" style="stroke: #000000; stroke-width: 1.12;"/><polygon fill="#000000" points="492.0787,855.9622,502.5999,859.2761,497.643,855.3303,501.5888,850.3734,492.0787,855.9622" style="stroke: #000000; stroke-width: 1.12;"/><!--MD5=[d4f829ea0ce9b52c07586a532c689c0f]
link ProposedCombinationView to Logic--><path codeLine="69" d="M559.3146,705.8968 C536.9437,733.8598 500.9637,778.8357 473.7701,812.8277 " fill="none" id="ProposedCombinationView-to-Logic" style="stroke: #000000; stroke-width: 1.12;"/><polygon fill="#000000" points="470.1626,817.3368,479.9573,812.2634,473.6605,812.9636,472.9602,806.6668,470.1626,817.3368" style="stroke: #000000; stroke-width: 1.12;"/><!--MD5=[354d6deacb49030493b7fd8cb23ebdce]
reverse link Controller to StartController--><path codeLine="70" d="M497.1008,1039.929 C513.6454,1056.3291 532.3662,1074.8853 548.0462,1090.4275 " fill="none" id="Controller-backto-StartController" style="stroke: #000000; stroke-width: 1.12;"/><polygon fill="none" points="491.2555,1045.1739,480.8664,1023.8368,502.2942,1034.0378,491.2555,1045.1739" style="stroke: #000000; stroke-width: 1.12;"/><!--MD5=[dfabfd7c269c7ef3ab5bdd4c723fcdb8]
reverse link Controller to ResumeController--><path codeLine="71" d="M385.3875,1025.6042 C330.9309,1047.3478 255.6613,1077.403 202.4389,1098.6539 " fill="none" id="Controller-backto-ResumeController" style="stroke: #000000; stroke-width: 1.12;"/><polygon fill="none" points="382.5248,1018.3051,406.2352,1017.2792,388.3398,1032.8674,382.5248,1018.3051" style="stroke: #000000; stroke-width: 1.12;"/><!--MD5=[d45f03342f2432c669a4cb0ca24546da]
reverse link Controller to ProposeCombinationController--><path codeLine="72" d="M423.528,1042.5363 C412.5251,1058.2734 400.3406,1075.704 390.0467,1090.4275 " fill="none" id="Controller-backto-ProposeCombinationController" style="stroke: #000000; stroke-width: 1.12;"/><polygon fill="none" points="417.3411,1037.7035,436.6018,1023.8368,430.192,1046.687,417.3411,1037.7035" style="stroke: #000000; stroke-width: 1.12;"/><!--MD5=[2bba2765c3ae9f8e45a20ef5479fecc5]
@startuml
skinparam {
    BoundaryBackgroundColor #629EF9
    BoundaryBorderColor black
    BoundaryFontSize 12
    BoundarySize 10
    ControlBackgroundColor #b5bd68
    ControlBorderColor #718c00
    EntityBackgroundColor #F2AC4E
    EntityBorderColor black
    ArrowColor black

}

package mastermind {

abstract class Mastermind
class ConsoleMastermind

package controllers {
    class Controller
    class Logic {
        <color:red>playCombination()
        <color:red>initGame()
    }
    class ProposeCombinationController{
            <color:red>playCombination()          
    }
    class ResumeController
    class StartController{
    <color:red>initGame()
    }
}

package models {
    class Game
}

package views {

    class View
    class ConsoleView

    package console{
        class StartView
        class ProposedCombinationView
        class GameView
}



}

Mastermind *- - View
Mastermind *- - -[#green]- Logic
Mastermind <|-up- ConsoleMastermind
View <|- - ConsoleView
View -[#green]-> Logic
Logic *- - Game
Logic *-[#green]- - ProposeCombinationController
Logic *-[#green]- - ResumeController
Logic *-[#green]- - StartController

ConsoleView *- - GameView
ConsoleView *- - StartView

GameView *- - ProposedCombinationView
GameView - -> Logic
StartView - -> Logic
ProposedCombinationView - -> Logic
Controller <|- - StartController
Controller <|- - ResumeController
Controller <|- - ProposeCombinationController


}


@enduml

PlantUML version 1.2020.20(Sat Nov 21 11:02:45 CET 2020)
(GPL source distribution)
Java Runtime: OpenJDK Runtime Environment
JVM: OpenJDK 64-Bit Server VM
Default Encoding: Cp1252
Language: en
Country: GB
--></g></svg>