<?xml version="1.0" encoding="UTF-8" standalone="no"?><svg xmlns="http://www.w3.org/2000/svg" xmlns:xlink="http://www.w3.org/1999/xlink" contentScriptType="application/ecmascript" contentStyleType="text/css" height="1345.12px" preserveAspectRatio="none" style="width:1052px;height:1345px;" version="1.1" viewBox="0 0 1052 1345" width="1052.8px" zoomAndPan="magnify"><defs><filter height="300%" id="fbyiidyqio3oy" width="300%" x="-1" y="-1"><feGaussianBlur result="blurOut" stdDeviation="2.24"/><feColorMatrix in="blurOut" result="blurOut2" type="matrix" values="0 0 0 0 0 0 0 0 0 0 0 0 0 0 0 0 0 0 .4 0"/><feOffset dx="4.48" dy="4.48" in="blurOut2" result="blurOut3"/><feBlend in="SourceGraphic" in2="blurOut3" mode="normal"/></filter></defs><g><!--MD5=[b56d8ef9af079015670ad96965866810]
cluster mastermind--><polygon fill="#FFFFFF" filter="url(#fbyiidyqio3oy)" points="17.92,6.72,116.48,6.72,124.32,33.1625,1033.76,33.1625,1033.76,1337.28,17.92,1337.28,17.92,6.72" style="stroke: #000000; stroke-width: 1.6800000000000002;"/><line style="stroke: #000000; stroke-width: 1.6800000000000002;" x1="17.92" x2="124.32" y1="33.1625" y2="33.1625"/><text fill="#000000" font-family="sans-serif" font-size="15.68" font-weight="bold" lengthAdjust="spacingAndGlyphs" textLength="91.84" x="22.4" y="25.2372">mastermind</text><!--MD5=[f4e70ef68289585296b9045165e58692]
cluster controllers--><polygon fill="#FFFFFF" filter="url(#fbyiidyqio3oy)" points="225.12,507.36,318.08,507.36,325.92,533.8025,654.08,533.8025,654.08,1039.36,225.12,1039.36,225.12,507.36" style="stroke: #000000; stroke-width: 1.6800000000000002;"/><line style="stroke: #000000; stroke-width: 1.6800000000000002;" x1="225.12" x2="325.92" y1="533.8025" y2="533.8025"/><text fill="#000000" font-family="sans-serif" font-size="15.68" font-weight="bold" lengthAdjust="spacingAndGlyphs" textLength="86.24" x="229.6" y="525.8772">controllers</text><!--MD5=[a60570e4b426f702ccbb0d459e3b9417]
cluster models--><polygon fill="#FFFFFF" filter="url(#fbyiidyqio3oy)" points="44.8,1076.32,108.64,1076.32,116.48,1102.7625,260.96,1102.7625,260.96,1310.4,44.8,1310.4,44.8,1076.32" style="stroke: #000000; stroke-width: 1.6800000000000002;"/><line style="stroke: #000000; stroke-width: 1.6800000000000002;" x1="44.8" x2="116.48" y1="1102.7625" y2="1102.7625"/><text fill="#000000" font-family="sans-serif" font-size="15.68" font-weight="bold" lengthAdjust="spacingAndGlyphs" textLength="57.12" x="49.28" y="1094.8372">models</text><!--MD5=[e2a75efa8a0f57c2afae8bf75386f79c]
cluster views--><polygon fill="#FFFFFF" filter="url(#fbyiidyqio3oy)" points="680.96,344.96,733.6,344.96,741.44,371.4025,1006.88,371.4025,1006.88,915.04,680.96,915.04,680.96,344.96" style="stroke: #000000; stroke-width: 1.6800000000000002;"/><line style="stroke: #000000; stroke-width: 1.6800000000000002;" x1="680.96" x2="741.44" y1="371.4025" y2="371.4025"/><text fill="#000000" font-family="sans-serif" font-size="15.68" font-weight="bold" lengthAdjust="spacingAndGlyphs" textLength="45.92" x="685.44" y="363.4772">views</text><!--MD5=[4b7a55d430ce43d42ce9ebad9e6b4010]
cluster console--><polygon fill="#FFFFFF" filter="url(#fbyiidyqio3oy)" points="707.84,654.08,777.28,654.08,785.12,680.5225,980,680.5225,980,888.16,707.84,888.16,707.84,654.08" style="stroke: #000000; stroke-width: 1.6800000000000002;"/><line style="stroke: #000000; stroke-width: 1.6800000000000002;" x1="707.84" x2="785.12" y1="680.5225" y2="680.5225"/><text fill="#000000" font-family="sans-serif" font-size="15.68" font-weight="bold" lengthAdjust="spacingAndGlyphs" textLength="62.72" x="712.32" y="672.5972">console</text><!--MD5=[7283a9eed84464550b6d5ebf39c68b05]
class Mastermind--><rect codeLine="20" fill="#FEFECE" filter="url(#fbyiidyqio3oy)" height="53.76" id="Mastermind" style="stroke: #A80036; stroke-width: 1.6800000000000002;" width="107.52" x="334.88" y="169.12"/><ellipse cx="351.68" cy="187.04" fill="#A9DCDF" rx="12.32" ry="12.32" style="stroke: #A80036; stroke-width: 1.12;"/><path d="M353.64,188.72 L349.9475,188.72 L349.4575,189.84 L349.4575,189.84 L349.9825,189.84 L350.56,190.54 L350.56,190.96 L350.56,191.38 L349.9825,192.08 L349.4575,192.08 L347.34,192.08 L346.6575,192.08 L346.08,191.38 L346.08,190.96 L346.08,190.54 L346.6575,189.84 L347.34,189.84 L349.93,183.12 L348.95,183.12 L347.7775,183.12 L347.2,182.42 L347.2,182 L347.2,181.58 L347.7775,180.88 L348.95,180.88 L353.0625,180.88 L356.0725,189.84 L356.7025,189.84 L356.7025,189.84 L357.28,190.54 L357.28,190.96 L357.28,191.38 L356.7025,192.08 L356.0725,192.08 L353.955,192.08 L353.3775,192.08 L352.8,191.38 L352.8,190.96 L352.8,190.54 L353.3775,189.84 L353.955,189.84 L353.955,189.84 L353.64,188.72 Z M353.0275,186.48 L351.68,182.4725 L350.525,186.48 L353.0275,186.48 Z " fill="#000000"/><text fill="#000000" font-family="sans-serif" font-size="13.44" font-style="italic" lengthAdjust="spacingAndGlyphs" textLength="71.68" x="367.36" y="192.5394">Mastermind</text><line style="stroke: #A80036; stroke-width: 1.6800000000000002;" x1="336" x2="441.28" y1="204.96" y2="204.96"/><line style="stroke: #A80036; stroke-width: 1.6800000000000002;" x1="336" x2="441.28" y1="213.92" y2="213.92"/><!--MD5=[b42ceb2c5584a967df5f7acfe803d0f5]
class ConsoleMastermind--><rect codeLine="21" fill="#FEFECE" filter="url(#fbyiidyqio3oy)" height="53.76" id="ConsoleMastermind" style="stroke: #A80036; stroke-width: 1.6800000000000002;" width="161.28" x="308" y="47.04"/><ellipse cx="324.8" cy="64.96" fill="#ADD1B2" rx="12.32" ry="12.32" style="stroke: #A80036; stroke-width: 1.12;"/><path d="M327.04,61.04 Q327.2675,60.48 327.53,60.2 Q327.7925,59.92 328.09,59.92 Q328.615,59.92 328.9475,60.235 Q329.28,60.55 329.28,61.285 L329.28,63.035 Q329.28,63.77 328.965,64.085 Q328.65,64.4 328.16,64.4 Q327.7225,64.4 327.4425,64.2075 Q327.1625,64.015 327.04,63.5075 Q326.9875,63.1575 326.795,62.965 Q326.445,62.5975 325.815,62.3875 Q325.185,62.16 324.555,62.16 Q323.7675,62.16 323.1025,62.475 Q322.455,62.79 321.9475,63.49 Q321.44,64.19 321.44,65.1525 L321.44,66.185 Q321.44,67.34 322.385,68.11 Q323.33,68.88 325.01,68.88 Q326.0075,68.88 326.7075,68.6525 Q327.11,68.53 327.565,68.1275 Q327.8625,67.9 328.02,67.83 Q328.1775,67.76 328.37,67.76 Q328.7375,67.76 329,68.0575 Q329.28,68.3375 329.28,68.74 Q329.28,69.125 328.895,69.58 Q328.335,70.245 327.4425,70.6125 Q326.27,71.12 324.835,71.12 Q323.155,71.12 321.8075,70.455 Q320.7225,69.93 319.9525,68.7925 Q319.2,67.655 319.2,66.3075 L319.2,65.0825 Q319.2,63.6825 319.865,62.4575 Q320.5475,61.2325 321.72,60.585 Q322.91,59.92 324.24,59.92 Q325.045,59.92 325.745,60.2 Q326.445,60.48 327.04,61.04 Z " fill="#000000"/><text fill="#000000" font-family="sans-serif" font-size="13.44" lengthAdjust="spacingAndGlyphs" textLength="125.44" x="340.48" y="70.4594">ConsoleMastermind</text><line style="stroke: #A80036; stroke-width: 1.6800000000000002;" x1="309.12" x2="468.16" y1="82.88" y2="82.88"/><line style="stroke: #A80036; stroke-width: 1.6800000000000002;" x1="309.12" x2="468.16" y1="91.84" y2="91.84"/><!--MD5=[1d7ba1c7002d54515419844fbd155368]
class Controller--><rect codeLine="24" fill="#FEFECE" filter="url(#fbyiidyqio3oy)" height="53.76" id="Controller" style="stroke: #A80036; stroke-width: 1.6800000000000002;" width="96.32" x="278.88" y="816.48"/><ellipse cx="295.68" cy="834.4" fill="#ADD1B2" rx="12.32" ry="12.32" style="stroke: #A80036; stroke-width: 1.12;"/><path d="M297.92,830.48 Q298.1475,829.92 298.41,829.64 Q298.6725,829.36 298.97,829.36 Q299.495,829.36 299.8275,829.675 Q300.16,829.99 300.16,830.725 L300.16,832.475 Q300.16,833.21 299.845,833.525 Q299.53,833.84 299.04,833.84 Q298.6025,833.84 298.3225,833.6475 Q298.0425,833.455 297.92,832.9475 Q297.8675,832.5975 297.675,832.405 Q297.325,832.0375 296.695,831.8275 Q296.065,831.6 295.435,831.6 Q294.6475,831.6 293.9825,831.915 Q293.335,832.23 292.8275,832.93 Q292.32,833.63 292.32,834.5925 L292.32,835.625 Q292.32,836.78 293.265,837.55 Q294.21,838.32 295.89,838.32 Q296.8875,838.32 297.5875,838.0925 Q297.99,837.97 298.445,837.5675 Q298.7425,837.34 298.9,837.27 Q299.0575,837.2 299.25,837.2 Q299.6175,837.2 299.88,837.4975 Q300.16,837.7775 300.16,838.18 Q300.16,838.565 299.775,839.02 Q299.215,839.685 298.3225,840.0525 Q297.15,840.56 295.715,840.56 Q294.035,840.56 292.6875,839.895 Q291.6025,839.37 290.8325,838.2325 Q290.08,837.095 290.08,835.7475 L290.08,834.5225 Q290.08,833.1225 290.745,831.8975 Q291.4275,830.6725 292.6,830.025 Q293.79,829.36 295.12,829.36 Q295.925,829.36 296.625,829.64 Q297.325,829.92 297.92,830.48 Z " fill="#000000"/><text fill="#000000" font-family="sans-serif" font-size="13.44" lengthAdjust="spacingAndGlyphs" textLength="60.48" x="311.36" y="839.8994">Controller</text><line style="stroke: #A80036; stroke-width: 1.6800000000000002;" x1="280" x2="374.08" y1="852.32" y2="852.32"/><line style="stroke: #A80036; stroke-width: 1.6800000000000002;" x1="280" x2="374.08" y1="861.28" y2="861.28"/><!--MD5=[ddc5120d7a2baaae02afcce9f14d4ffc]
class StateController--><rect codeLine="25" fill="#FEFECE" filter="url(#fbyiidyqio3oy)" height="53.76" id="StateController" style="stroke: #008000; stroke-width: 1.6800000000000002;" width="127.68" x="243.04" y="694.4"/><ellipse cx="259.84" cy="712.32" fill="#ADD1B2" rx="12.32" ry="12.32" style="stroke: #008000; stroke-width: 1.12;"/><path d="M262.08,708.4 Q262.3075,707.84 262.57,707.56 Q262.8325,707.28 263.13,707.28 Q263.655,707.28 263.9875,707.595 Q264.32,707.91 264.32,708.645 L264.32,710.395 Q264.32,711.13 264.005,711.445 Q263.69,711.76 263.2,711.76 Q262.7625,711.76 262.4825,711.5675 Q262.2025,711.375 262.08,710.8675 Q262.0275,710.5175 261.835,710.325 Q261.485,709.9575 260.855,709.7475 Q260.225,709.52 259.595,709.52 Q258.8075,709.52 258.1425,709.835 Q257.495,710.15 256.9875,710.85 Q256.48,711.55 256.48,712.5125 L256.48,713.545 Q256.48,714.7 257.425,715.47 Q258.37,716.24 260.05,716.24 Q261.0475,716.24 261.7475,716.0125 Q262.15,715.89 262.605,715.4875 Q262.9025,715.26 263.06,715.19 Q263.2175,715.12 263.41,715.12 Q263.7775,715.12 264.04,715.4175 Q264.32,715.6975 264.32,716.1 Q264.32,716.485 263.935,716.94 Q263.375,717.605 262.4825,717.9725 Q261.31,718.48 259.875,718.48 Q258.195,718.48 256.8475,717.815 Q255.7625,717.29 254.9925,716.1525 Q254.24,715.015 254.24,713.6675 L254.24,712.4425 Q254.24,711.0425 254.905,709.8175 Q255.5875,708.5925 256.76,707.945 Q257.95,707.28 259.28,707.28 Q260.085,707.28 260.785,707.56 Q261.485,707.84 262.08,708.4 Z " fill="#000000"/><text fill="#000000" font-family="sans-serif" font-size="13.44" lengthAdjust="spacingAndGlyphs" textLength="91.84" x="275.52" y="717.8194">StateController</text><line style="stroke: #008000; stroke-width: 1.6800000000000002;" x1="244.16" x2="369.6" y1="730.24" y2="730.24"/><line style="stroke: #008000; stroke-width: 1.6800000000000002;" x1="244.16" x2="369.6" y1="739.2" y2="739.2"/><!--MD5=[42fa18dda7351a0ae87d9497de925436]
class Logic--><rect codeLine="26" fill="#FEFECE" filter="url(#fbyiidyqio3oy)" height="53.76" id="Logic" style="stroke: #A80036; stroke-width: 1.6800000000000002;" width="69.44" x="257.6" y="547.68"/><ellipse cx="274.4" cy="565.6" fill="#ADD1B2" rx="12.32" ry="12.32" style="stroke: #A80036; stroke-width: 1.12;"/><path d="M276.64,561.68 Q276.8675,561.12 277.13,560.84 Q277.3925,560.56 277.69,560.56 Q278.215,560.56 278.5475,560.875 Q278.88,561.19 278.88,561.925 L278.88,563.675 Q278.88,564.41 278.565,564.725 Q278.25,565.04 277.76,565.04 Q277.3225,565.04 277.0425,564.8475 Q276.7625,564.655 276.64,564.1475 Q276.5875,563.7975 276.395,563.605 Q276.045,563.2375 275.415,563.0275 Q274.785,562.8 274.155,562.8 Q273.3675,562.8 272.7025,563.115 Q272.055,563.43 271.5475,564.13 Q271.04,564.83 271.04,565.7925 L271.04,566.825 Q271.04,567.98 271.985,568.75 Q272.93,569.52 274.61,569.52 Q275.6075,569.52 276.3075,569.2925 Q276.71,569.17 277.165,568.7675 Q277.4625,568.54 277.62,568.47 Q277.7775,568.4 277.97,568.4 Q278.3375,568.4 278.6,568.6975 Q278.88,568.9775 278.88,569.38 Q278.88,569.765 278.495,570.22 Q277.935,570.885 277.0425,571.2525 Q275.87,571.76 274.435,571.76 Q272.755,571.76 271.4075,571.095 Q270.3225,570.57 269.5525,569.4325 Q268.8,568.295 268.8,566.9475 L268.8,565.7225 Q268.8,564.3225 269.465,563.0975 Q270.1475,561.8725 271.32,561.225 Q272.51,560.56 273.84,560.56 Q274.645,560.56 275.345,560.84 Q276.045,561.12 276.64,561.68 Z " fill="#000000"/><text fill="#000000" font-family="sans-serif" font-size="13.44" lengthAdjust="spacingAndGlyphs" textLength="33.6" x="290.08" y="571.0994">Logic</text><line style="stroke: #A80036; stroke-width: 1.6800000000000002;" x1="258.72" x2="325.92" y1="583.52" y2="583.52"/><line style="stroke: #A80036; stroke-width: 1.6800000000000002;" x1="258.72" x2="325.92" y1="592.48" y2="592.48"/><!--MD5=[92433bfbd7559c1d4e4a44c9d1c48b0e]
class ProposeCombinationController--><rect codeLine="28" fill="#FEFECE" filter="url(#fbyiidyqio3oy)" height="53.76" id="ProposeCombinationController" style="stroke: #A80036; stroke-width: 1.6800000000000002;" width="228.48" x="407.68" y="967.68"/><ellipse cx="424.48" cy="985.6" fill="#ADD1B2" rx="12.32" ry="12.32" style="stroke: #A80036; stroke-width: 1.12;"/><path d="M426.72,981.68 Q426.9475,981.12 427.21,980.84 Q427.4725,980.56 427.77,980.56 Q428.295,980.56 428.6275,980.875 Q428.96,981.19 428.96,981.925 L428.96,983.675 Q428.96,984.41 428.645,984.725 Q428.33,985.04 427.84,985.04 Q427.4025,985.04 427.1225,984.8475 Q426.8425,984.655 426.72,984.1475 Q426.6675,983.7975 426.475,983.605 Q426.125,983.2375 425.495,983.0275 Q424.865,982.8 424.235,982.8 Q423.4475,982.8 422.7825,983.115 Q422.135,983.43 421.6275,984.13 Q421.12,984.83 421.12,985.7925 L421.12,986.825 Q421.12,987.98 422.065,988.75 Q423.01,989.52 424.69,989.52 Q425.6875,989.52 426.3875,989.2925 Q426.79,989.17 427.245,988.7675 Q427.5425,988.54 427.7,988.47 Q427.8575,988.4 428.05,988.4 Q428.4175,988.4 428.68,988.6975 Q428.96,988.9775 428.96,989.38 Q428.96,989.765 428.575,990.22 Q428.015,990.885 427.1225,991.2525 Q425.95,991.76 424.515,991.76 Q422.835,991.76 421.4875,991.095 Q420.4025,990.57 419.6325,989.4325 Q418.88,988.295 418.88,986.9475 L418.88,985.7225 Q418.88,984.3225 419.545,983.0975 Q420.2275,981.8725 421.4,981.225 Q422.59,980.56 423.92,980.56 Q424.725,980.56 425.425,980.84 Q426.125,981.12 426.72,981.68 Z " fill="#000000"/><text fill="#000000" font-family="sans-serif" font-size="13.44" lengthAdjust="spacingAndGlyphs" textLength="192.64" x="440.16" y="991.0994">ProposeCombinationController</text><line style="stroke: #A80036; stroke-width: 1.6800000000000002;" x1="408.8" x2="635.04" y1="1003.52" y2="1003.52"/><line style="stroke: #A80036; stroke-width: 1.6800000000000002;" x1="408.8" x2="635.04" y1="1012.48" y2="1012.48"/><!--MD5=[47c371471411cfedeee61b1a5bdaee47]
class StartController--><rect codeLine="30" fill="#FEFECE" filter="url(#fbyiidyqio3oy)" height="53.76" id="StartController" style="stroke: #A80036; stroke-width: 1.6800000000000002;" width="124.32" x="243.6" y="967.68"/><ellipse cx="260.4" cy="985.6" fill="#ADD1B2" rx="12.32" ry="12.32" style="stroke: #A80036; stroke-width: 1.12;"/><path d="M262.64,981.68 Q262.8675,981.12 263.13,980.84 Q263.3925,980.56 263.69,980.56 Q264.215,980.56 264.5475,980.875 Q264.88,981.19 264.88,981.925 L264.88,983.675 Q264.88,984.41 264.565,984.725 Q264.25,985.04 263.76,985.04 Q263.3225,985.04 263.0425,984.8475 Q262.7625,984.655 262.64,984.1475 Q262.5875,983.7975 262.395,983.605 Q262.045,983.2375 261.415,983.0275 Q260.785,982.8 260.155,982.8 Q259.3675,982.8 258.7025,983.115 Q258.055,983.43 257.5475,984.13 Q257.04,984.83 257.04,985.7925 L257.04,986.825 Q257.04,987.98 257.985,988.75 Q258.93,989.52 260.61,989.52 Q261.6075,989.52 262.3075,989.2925 Q262.71,989.17 263.165,988.7675 Q263.4625,988.54 263.62,988.47 Q263.7775,988.4 263.97,988.4 Q264.3375,988.4 264.6,988.6975 Q264.88,988.9775 264.88,989.38 Q264.88,989.765 264.495,990.22 Q263.935,990.885 263.0425,991.2525 Q261.87,991.76 260.435,991.76 Q258.755,991.76 257.4075,991.095 Q256.3225,990.57 255.5525,989.4325 Q254.8,988.295 254.8,986.9475 L254.8,985.7225 Q254.8,984.3225 255.465,983.0975 Q256.1475,981.8725 257.32,981.225 Q258.51,980.56 259.84,980.56 Q260.645,980.56 261.345,980.84 Q262.045,981.12 262.64,981.68 Z " fill="#000000"/><text fill="#000000" font-family="sans-serif" font-size="13.44" lengthAdjust="spacingAndGlyphs" textLength="88.48" x="276.08" y="991.0994">StartController</text><line style="stroke: #A80036; stroke-width: 1.6800000000000002;" x1="244.72" x2="366.8" y1="1003.52" y2="1003.52"/><line style="stroke: #A80036; stroke-width: 1.6800000000000002;" x1="244.72" x2="366.8" y1="1012.48" y2="1012.48"/><!--MD5=[b6dcce5e5ef3c84b0b048d11301373dd]
class Game--><rect codeLine="34" fill="#FEFECE" filter="url(#fbyiidyqio3oy)" height="53.76" id="Game" style="stroke: #A80036; stroke-width: 1.6800000000000002;" width="73.92" x="62.72" y="1116.64"/><ellipse cx="79.52" cy="1134.56" fill="#ADD1B2" rx="12.32" ry="12.32" style="stroke: #A80036; stroke-width: 1.12;"/><path d="M81.76,1130.64 Q81.9875,1130.08 82.25,1129.8 Q82.5125,1129.52 82.81,1129.52 Q83.335,1129.52 83.6675,1129.835 Q84,1130.15 84,1130.885 L84,1132.635 Q84,1133.37 83.685,1133.685 Q83.37,1134 82.88,1134 Q82.4425,1134 82.1625,1133.8075 Q81.8825,1133.615 81.76,1133.1075 Q81.7075,1132.7575 81.515,1132.565 Q81.165,1132.1975 80.535,1131.9875 Q79.905,1131.76 79.275,1131.76 Q78.4875,1131.76 77.8225,1132.075 Q77.175,1132.39 76.6675,1133.09 Q76.16,1133.79 76.16,1134.7525 L76.16,1135.785 Q76.16,1136.94 77.105,1137.71 Q78.05,1138.48 79.73,1138.48 Q80.7275,1138.48 81.4275,1138.2525 Q81.83,1138.13 82.285,1137.7275 Q82.5825,1137.5 82.74,1137.43 Q82.8975,1137.36 83.09,1137.36 Q83.4575,1137.36 83.72,1137.6575 Q84,1137.9375 84,1138.34 Q84,1138.725 83.615,1139.18 Q83.055,1139.845 82.1625,1140.2125 Q80.99,1140.72 79.555,1140.72 Q77.875,1140.72 76.5275,1140.055 Q75.4425,1139.53 74.6725,1138.3925 Q73.92,1137.255 73.92,1135.9075 L73.92,1134.6825 Q73.92,1133.2825 74.585,1132.0575 Q75.2675,1130.8325 76.44,1130.185 Q77.63,1129.52 78.96,1129.52 Q79.765,1129.52 80.465,1129.8 Q81.165,1130.08 81.76,1130.64 Z " fill="#000000"/><text fill="#000000" font-family="sans-serif" font-size="13.44" lengthAdjust="spacingAndGlyphs" textLength="38.08" x="95.2" y="1140.0594">Game</text><line style="stroke: #A80036; stroke-width: 1.6800000000000002;" x1="63.84" x2="135.52" y1="1152.48" y2="1152.48"/><line style="stroke: #A80036; stroke-width: 1.6800000000000002;" x1="63.84" x2="135.52" y1="1161.44" y2="1161.44"/><!--MD5=[60d6b92408f98aed8df94d5c6e04aa63]
class State--><rect codeLine="36" fill="#FEFECE" filter="url(#fbyiidyqio3oy)" height="53.76" id="State" style="stroke: #008000; stroke-width: 1.6800000000000002;" width="67.2" x="175.84" y="1116.64"/><ellipse cx="192.64" cy="1134.56" fill="#ADD1B2" rx="12.32" ry="12.32" style="stroke: #008000; stroke-width: 1.12;"/><path d="M194.88,1130.64 Q195.1075,1130.08 195.37,1129.8 Q195.6325,1129.52 195.93,1129.52 Q196.455,1129.52 196.7875,1129.835 Q197.12,1130.15 197.12,1130.885 L197.12,1132.635 Q197.12,1133.37 196.805,1133.685 Q196.49,1134 196,1134 Q195.5625,1134 195.2825,1133.8075 Q195.0025,1133.615 194.88,1133.1075 Q194.8275,1132.7575 194.635,1132.565 Q194.285,1132.1975 193.655,1131.9875 Q193.025,1131.76 192.395,1131.76 Q191.6075,1131.76 190.9425,1132.075 Q190.295,1132.39 189.7875,1133.09 Q189.28,1133.79 189.28,1134.7525 L189.28,1135.785 Q189.28,1136.94 190.225,1137.71 Q191.17,1138.48 192.85,1138.48 Q193.8475,1138.48 194.5475,1138.2525 Q194.95,1138.13 195.405,1137.7275 Q195.7025,1137.5 195.86,1137.43 Q196.0175,1137.36 196.21,1137.36 Q196.5775,1137.36 196.84,1137.6575 Q197.12,1137.9375 197.12,1138.34 Q197.12,1138.725 196.735,1139.18 Q196.175,1139.845 195.2825,1140.2125 Q194.11,1140.72 192.675,1140.72 Q190.995,1140.72 189.6475,1140.055 Q188.5625,1139.53 187.7925,1138.3925 Q187.04,1137.255 187.04,1135.9075 L187.04,1134.6825 Q187.04,1133.2825 187.705,1132.0575 Q188.3875,1130.8325 189.56,1130.185 Q190.75,1129.52 192.08,1129.52 Q192.885,1129.52 193.585,1129.8 Q194.285,1130.08 194.88,1130.64 Z " fill="#000000"/><text fill="#000000" font-family="sans-serif" font-size="13.44" lengthAdjust="spacingAndGlyphs" textLength="31.36" x="208.32" y="1140.0594">State</text><line style="stroke: #008000; stroke-width: 1.6800000000000002;" x1="176.96" x2="241.92" y1="1152.48" y2="1152.48"/><line style="stroke: #008000; stroke-width: 1.6800000000000002;" x1="176.96" x2="241.92" y1="1161.44" y2="1161.44"/><!--MD5=[167506e288131cdf3986fedef83acd94]
class StateValue--><rect codeLine="37" fill="#FEFECE" filter="url(#fbyiidyqio3oy)" height="53.76" id="StateValue" style="stroke: #008000; stroke-width: 1.6800000000000002;" width="101.92" x="140.56" y="1238.72"/><ellipse cx="157.36" cy="1256.64" fill="#ADD1B2" rx="12.32" ry="12.32" style="stroke: #008000; stroke-width: 1.12;"/><path d="M159.6,1252.72 Q159.8275,1252.16 160.09,1251.88 Q160.3525,1251.6 160.65,1251.6 Q161.175,1251.6 161.5075,1251.915 Q161.84,1252.23 161.84,1252.965 L161.84,1254.715 Q161.84,1255.45 161.525,1255.765 Q161.21,1256.08 160.72,1256.08 Q160.2825,1256.08 160.0025,1255.8875 Q159.7225,1255.695 159.6,1255.1875 Q159.5475,1254.8375 159.355,1254.645 Q159.005,1254.2775 158.375,1254.0675 Q157.745,1253.84 157.115,1253.84 Q156.3275,1253.84 155.6625,1254.155 Q155.015,1254.47 154.5075,1255.17 Q154,1255.87 154,1256.8325 L154,1257.865 Q154,1259.02 154.945,1259.79 Q155.89,1260.56 157.57,1260.56 Q158.5675,1260.56 159.2675,1260.3325 Q159.67,1260.21 160.125,1259.8075 Q160.4225,1259.58 160.58,1259.51 Q160.7375,1259.44 160.93,1259.44 Q161.2975,1259.44 161.56,1259.7375 Q161.84,1260.0175 161.84,1260.42 Q161.84,1260.805 161.455,1261.26 Q160.895,1261.925 160.0025,1262.2925 Q158.83,1262.8 157.395,1262.8 Q155.715,1262.8 154.3675,1262.135 Q153.2825,1261.61 152.5125,1260.4725 Q151.76,1259.335 151.76,1257.9875 L151.76,1256.7625 Q151.76,1255.3625 152.425,1254.1375 Q153.1075,1252.9125 154.28,1252.265 Q155.47,1251.6 156.8,1251.6 Q157.605,1251.6 158.305,1251.88 Q159.005,1252.16 159.6,1252.72 Z " fill="#000000"/><text fill="#000000" font-family="sans-serif" font-size="13.44" lengthAdjust="spacingAndGlyphs" textLength="66.08" x="173.04" y="1262.1394">StateValue</text><line style="stroke: #008000; stroke-width: 1.6800000000000002;" x1="141.68" x2="241.36" y1="1274.56" y2="1274.56"/><line style="stroke: #008000; stroke-width: 1.6800000000000002;" x1="141.68" x2="241.36" y1="1283.52" y2="1283.52"/><!--MD5=[c045e12321b83266d36d22b9096c24ea]
class View--><rect codeLine="42" fill="#FEFECE" filter="url(#fbyiidyqio3oy)" height="69.2563" id="View" style="stroke: #A80036; stroke-width: 1.6800000000000002;" width="168" x="698.88" y="385.28"/><ellipse cx="763.56" cy="403.2" fill="#A9DCDF" rx="12.32" ry="12.32" style="stroke: #A80036; stroke-width: 1.12;"/><path d="M765.52,404.88 L761.8275,404.88 L761.3375,406 L761.3375,406 L761.8625,406 L762.44,406.7 L762.44,407.12 L762.44,407.54 L761.8625,408.24 L761.3375,408.24 L759.22,408.24 L758.5375,408.24 L757.96,407.54 L757.96,407.12 L757.96,406.7 L758.5375,406 L759.22,406 L761.81,399.28 L760.83,399.28 L759.6575,399.28 L759.08,398.58 L759.08,398.16 L759.08,397.74 L759.6575,397.04 L760.83,397.04 L764.9425,397.04 L767.9525,406 L768.5825,406 L768.5825,406 L769.16,406.7 L769.16,407.12 L769.16,407.54 L768.5825,408.24 L767.9525,408.24 L765.835,408.24 L765.2575,408.24 L764.68,407.54 L764.68,407.12 L764.68,406.7 L765.2575,406 L765.835,406 L765.835,406 L765.52,404.88 Z M764.9075,402.64 L763.56,398.6325 L762.405,402.64 L764.9075,402.64 Z " fill="#000000"/><text fill="#000000" font-family="sans-serif" font-size="13.44" font-style="italic" lengthAdjust="spacingAndGlyphs" textLength="29.12" x="786.52" y="408.6994">View</text><line style="stroke: #A80036; stroke-width: 1.6800000000000002;" x1="700" x2="865.76" y1="421.12" y2="421.12"/><line style="stroke: #A80036; stroke-width: 1.6800000000000002;" x1="700" x2="865.76" y1="430.08" y2="430.08"/><text fill="#000000" font-family="sans-serif" font-size="12.32" lengthAdjust="spacingAndGlyphs" textLength="154.56" x="705.6" y="447.3492">interact(Controller controller)</text><!--MD5=[51d729737bd84a4c43136dd336c2eea1]
class ConsoleView--><rect codeLine="46" fill="#FEFECE" filter="url(#fbyiidyqio3oy)" height="53.76" id="ConsoleView" style="stroke: #A80036; stroke-width: 1.6800000000000002;" width="117.6" x="714" y="547.68"/><ellipse cx="730.8" cy="565.6" fill="#ADD1B2" rx="12.32" ry="12.32" style="stroke: #A80036; stroke-width: 1.12;"/><path d="M733.04,561.68 Q733.2675,561.12 733.53,560.84 Q733.7925,560.56 734.09,560.56 Q734.615,560.56 734.9475,560.875 Q735.28,561.19 735.28,561.925 L735.28,563.675 Q735.28,564.41 734.965,564.725 Q734.65,565.04 734.16,565.04 Q733.7225,565.04 733.4425,564.8475 Q733.1625,564.655 733.04,564.1475 Q732.9875,563.7975 732.795,563.605 Q732.445,563.2375 731.815,563.0275 Q731.185,562.8 730.555,562.8 Q729.7675,562.8 729.1025,563.115 Q728.455,563.43 727.9475,564.13 Q727.44,564.83 727.44,565.7925 L727.44,566.825 Q727.44,567.98 728.385,568.75 Q729.33,569.52 731.01,569.52 Q732.0075,569.52 732.7075,569.2925 Q733.11,569.17 733.565,568.7675 Q733.8625,568.54 734.02,568.47 Q734.1775,568.4 734.37,568.4 Q734.7375,568.4 735,568.6975 Q735.28,568.9775 735.28,569.38 Q735.28,569.765 734.895,570.22 Q734.335,570.885 733.4425,571.2525 Q732.27,571.76 730.835,571.76 Q729.155,571.76 727.8075,571.095 Q726.7225,570.57 725.9525,569.4325 Q725.2,568.295 725.2,566.9475 L725.2,565.7225 Q725.2,564.3225 725.865,563.0975 Q726.5475,561.8725 727.72,561.225 Q728.91,560.56 730.24,560.56 Q731.045,560.56 731.745,560.84 Q732.445,561.12 733.04,561.68 Z " fill="#000000"/><text fill="#000000" font-family="sans-serif" font-size="13.44" lengthAdjust="spacingAndGlyphs" textLength="81.76" x="746.48" y="571.0994">ConsoleView</text><line style="stroke: #A80036; stroke-width: 1.6800000000000002;" x1="715.12" x2="830.48" y1="583.52" y2="583.52"/><line style="stroke: #A80036; stroke-width: 1.6800000000000002;" x1="715.12" x2="830.48" y1="592.48" y2="592.48"/><!--MD5=[443c52daef265809fdf31be84fc8ae4a]
class StartView--><rect codeLine="49" fill="#FEFECE" filter="url(#fbyiidyqio3oy)" height="53.76" id="StartView" style="stroke: #A80036; stroke-width: 1.6800000000000002;" width="92.96" x="726.32" y="694.4"/><ellipse cx="743.12" cy="712.32" fill="#ADD1B2" rx="12.32" ry="12.32" style="stroke: #A80036; stroke-width: 1.12;"/><path d="M745.36,708.4 Q745.5875,707.84 745.85,707.56 Q746.1125,707.28 746.41,707.28 Q746.935,707.28 747.2675,707.595 Q747.6,707.91 747.6,708.645 L747.6,710.395 Q747.6,711.13 747.285,711.445 Q746.97,711.76 746.48,711.76 Q746.0425,711.76 745.7625,711.5675 Q745.4825,711.375 745.36,710.8675 Q745.3075,710.5175 745.115,710.325 Q744.765,709.9575 744.135,709.7475 Q743.505,709.52 742.875,709.52 Q742.0875,709.52 741.4225,709.835 Q740.775,710.15 740.2675,710.85 Q739.76,711.55 739.76,712.5125 L739.76,713.545 Q739.76,714.7 740.705,715.47 Q741.65,716.24 743.33,716.24 Q744.3275,716.24 745.0275,716.0125 Q745.43,715.89 745.885,715.4875 Q746.1825,715.26 746.34,715.19 Q746.4975,715.12 746.69,715.12 Q747.0575,715.12 747.32,715.4175 Q747.6,715.6975 747.6,716.1 Q747.6,716.485 747.215,716.94 Q746.655,717.605 745.7625,717.9725 Q744.59,718.48 743.155,718.48 Q741.475,718.48 740.1275,717.815 Q739.0425,717.29 738.2725,716.1525 Q737.52,715.015 737.52,713.6675 L737.52,712.4425 Q737.52,711.0425 738.185,709.8175 Q738.8675,708.5925 740.04,707.945 Q741.23,707.28 742.56,707.28 Q743.365,707.28 744.065,707.56 Q744.765,707.84 745.36,708.4 Z " fill="#000000"/><text fill="#000000" font-family="sans-serif" font-size="13.44" lengthAdjust="spacingAndGlyphs" textLength="57.12" x="758.8" y="717.8194">StartView</text><line style="stroke: #A80036; stroke-width: 1.6800000000000002;" x1="727.44" x2="818.16" y1="730.24" y2="730.24"/><line style="stroke: #A80036; stroke-width: 1.6800000000000002;" x1="727.44" x2="818.16" y1="739.2" y2="739.2"/><!--MD5=[0523615cfa2fa70c8ab764401f29a299]
class ProposedCombinationView--><rect codeLine="50" fill="#FEFECE" filter="url(#fbyiidyqio3oy)" height="53.76" id="ProposedCombinationView" style="stroke: #A80036; stroke-width: 1.6800000000000002;" width="204.96" x="740.88" y="816.48"/><ellipse cx="757.68" cy="834.4" fill="#ADD1B2" rx="12.32" ry="12.32" style="stroke: #A80036; stroke-width: 1.12;"/><path d="M759.92,830.48 Q760.1475,829.92 760.41,829.64 Q760.6725,829.36 760.97,829.36 Q761.495,829.36 761.8275,829.675 Q762.16,829.99 762.16,830.725 L762.16,832.475 Q762.16,833.21 761.845,833.525 Q761.53,833.84 761.04,833.84 Q760.6025,833.84 760.3225,833.6475 Q760.0425,833.455 759.92,832.9475 Q759.8675,832.5975 759.675,832.405 Q759.325,832.0375 758.695,831.8275 Q758.065,831.6 757.435,831.6 Q756.6475,831.6 755.9825,831.915 Q755.335,832.23 754.8275,832.93 Q754.32,833.63 754.32,834.5925 L754.32,835.625 Q754.32,836.78 755.265,837.55 Q756.21,838.32 757.89,838.32 Q758.8875,838.32 759.5875,838.0925 Q759.99,837.97 760.445,837.5675 Q760.7425,837.34 760.9,837.27 Q761.0575,837.2 761.25,837.2 Q761.6175,837.2 761.88,837.4975 Q762.16,837.7775 762.16,838.18 Q762.16,838.565 761.775,839.02 Q761.215,839.685 760.3225,840.0525 Q759.15,840.56 757.715,840.56 Q756.035,840.56 754.6875,839.895 Q753.6025,839.37 752.8325,838.2325 Q752.08,837.095 752.08,835.7475 L752.08,834.5225 Q752.08,833.1225 752.745,831.8975 Q753.4275,830.6725 754.6,830.025 Q755.79,829.36 757.12,829.36 Q757.925,829.36 758.625,829.64 Q759.325,829.92 759.92,830.48 Z " fill="#000000"/><text fill="#000000" font-family="sans-serif" font-size="13.44" lengthAdjust="spacingAndGlyphs" textLength="169.12" x="773.36" y="839.8994">ProposedCombinationView</text><line style="stroke: #A80036; stroke-width: 1.6800000000000002;" x1="742" x2="944.72" y1="852.32" y2="852.32"/><line style="stroke: #A80036; stroke-width: 1.6800000000000002;" x1="742" x2="944.72" y1="861.28" y2="861.28"/><!--MD5=[5d3822d29342fbd355d1b65ea3562ec9]
class GameView--><rect codeLine="51" fill="#FEFECE" filter="url(#fbyiidyqio3oy)" height="53.76" id="GameView" style="stroke: #A80036; stroke-width: 1.6800000000000002;" width="103.04" x="859.04" y="694.4"/><ellipse cx="875.84" cy="712.32" fill="#ADD1B2" rx="12.32" ry="12.32" style="stroke: #A80036; stroke-width: 1.12;"/><path d="M878.08,708.4 Q878.3075,707.84 878.57,707.56 Q878.8325,707.28 879.13,707.28 Q879.655,707.28 879.9875,707.595 Q880.32,707.91 880.32,708.645 L880.32,710.395 Q880.32,711.13 880.005,711.445 Q879.69,711.76 879.2,711.76 Q878.7625,711.76 878.4825,711.5675 Q878.2025,711.375 878.08,710.8675 Q878.0275,710.5175 877.835,710.325 Q877.485,709.9575 876.855,709.7475 Q876.225,709.52 875.595,709.52 Q874.8075,709.52 874.1425,709.835 Q873.495,710.15 872.9875,710.85 Q872.48,711.55 872.48,712.5125 L872.48,713.545 Q872.48,714.7 873.425,715.47 Q874.37,716.24 876.05,716.24 Q877.0475,716.24 877.7475,716.0125 Q878.15,715.89 878.605,715.4875 Q878.9025,715.26 879.06,715.19 Q879.2175,715.12 879.41,715.12 Q879.7775,715.12 880.04,715.4175 Q880.32,715.6975 880.32,716.1 Q880.32,716.485 879.935,716.94 Q879.375,717.605 878.4825,717.9725 Q877.31,718.48 875.875,718.48 Q874.195,718.48 872.8475,717.815 Q871.7625,717.29 870.9925,716.1525 Q870.24,715.015 870.24,713.6675 L870.24,712.4425 Q870.24,711.0425 870.905,709.8175 Q871.5875,708.5925 872.76,707.945 Q873.95,707.28 875.28,707.28 Q876.085,707.28 876.785,707.56 Q877.485,707.84 878.08,708.4 Z " fill="#000000"/><text fill="#000000" font-family="sans-serif" font-size="13.44" lengthAdjust="spacingAndGlyphs" textLength="67.2" x="891.52" y="717.8194">GameView</text><line style="stroke: #A80036; stroke-width: 1.6800000000000002;" x1="860.16" x2="960.96" y1="730.24" y2="730.24"/><line style="stroke: #A80036; stroke-width: 1.6800000000000002;" x1="860.16" x2="960.96" y1="739.2" y2="739.2"/><!--MD5=[a1b33916ae7328de9d8df5a2edffcf3b]
reverse link Mastermind to View--><path codeLine="58" d="M456.4605,220.584 C520.697,244.4635 618.3722,285.1453 694.4,336 C715.2186,349.925 735.8008,368.8138 751.8683,385.0414 " fill="none" id="Mastermind-backto-View" style="stroke: #000000; stroke-width: 1.12;"/><polygon fill="#000000" points="442.4829,215.4544,447.2481,221.9753,455.1001,220.0847,450.3349,213.5638,442.4829,215.4544" style="stroke: #000000; stroke-width: 1.12;"/><!--MD5=[68ecb4c13504d415978561d0da067088]
reverse link Mastermind to Logic--><path codeLine="59" d="M378.3808,237.2014 C358.568,314.6114 315.5331,482.748 298.9862,547.3933 " fill="none" id="Mastermind-backto-Logic" style="stroke: #000000; stroke-width: 1.12;"/><polygon fill="#000000" points="382.0197,222.9808,376.013,228.3797,378.6864,236.0009,384.6931,230.6019,382.0197,222.9808" style="stroke: #000000; stroke-width: 1.12;"/><!--MD5=[535344f3358c01d37ed18bab87bee925]
link ConsoleMastermind to Mastermind--><path codeLine="60" d="M388.64,101.0464 C388.64,114.24 388.64,130.6928 388.64,146.1376 " fill="none" id="ConsoleMastermind-to-Mastermind" style="stroke: #000000; stroke-width: 1.12;"/><polygon fill="none" points="396.48,146.5296,388.64,168.9296,380.8,146.5296,396.48,146.5296" style="stroke: #000000; stroke-width: 1.12;"/><!--MD5=[a63dd7f30baaeb88fc8dd2ca46e0cc37]
reverse link View to ConsoleView--><path codeLine="61" d="M779.147,477.5254 C777.5645,501.4397 775.7971,528.1461 774.5304,547.2936 " fill="none" id="View-backto-ConsoleView" style="stroke: #000000; stroke-width: 1.12;"/><polygon fill="none" points="771.3406,476.7582,780.6434,454.925,786.987,477.7931,771.3406,476.7582" style="stroke: #000000; stroke-width: 1.12;"/><!--MD5=[57070e04af1ab79c5a79c6aefe469b18]
link View to Controller--><path codeLine="62" d="M726.6694,454.8902 C664.3336,493.8427 562.6275,561.9678 487.2,635.04 C429.305,691.1274 374.7834,768.9069 346.7307,811.431 " fill="none" id="View-to-Controller" style="stroke: #000000; stroke-width: 1.12; stroke-dasharray: 7.0,7.0;"/><polygon fill="#000000" points="343.4424,816.4386,352.7204,810.4724,346.5165,811.7578,345.2312,805.5538,343.4424,816.4386" style="stroke: #000000; stroke-width: 1.12;"/><!--MD5=[dbdcaab34fb81d463c2fea3758e8e729]
link ConsoleView to StartController--><path codeLine="63" d="M713.6976,595.5421 C684.2394,607.1822 649.1262,623.8154 621.6,645.12 C495.1363,743.0002 508.3635,811.9754 394.24,924 C379.8435,938.1322 362.656,952.1669 347.2762,963.881 " fill="none" id="ConsoleView-to-StartController" style="stroke: #FF0000; stroke-width: 1.12; stroke-dasharray: 7.0,7.0;"/><polygon fill="#FF0000" points="342.5654,967.4403,353.3088,964.9389,347.0337,964.0647,347.9078,957.7896,342.5654,967.4403" style="stroke: #FF0000; stroke-width: 1.12;"/><!--MD5=[2c02b91f9520399315aabffb74985b38]
link ConsoleView to ProposeCombinationController--><path codeLine="64" d="M746.8126,601.5229 C734.5083,614.2349 719.9024,630.0347 707.84,645.12 C650.3269,717.0408 634.331,735.0314 591.36,816.48 C565.6325,865.2448 543.9112,925.7248 531.9238,961.8627 " fill="none" id="ConsoleView-to-ProposeCombinationController" style="stroke: #FF0000; stroke-width: 1.12; stroke-dasharray: 7.0,7.0;"/><polygon fill="#FF0000" points="530.0848,967.4482,537.4937,959.276,531.8369,962.1293,528.9836,956.4725,530.0848,967.4482" style="stroke: #FF0000; stroke-width: 1.12;"/><!--MD5=[80ab1a49ad0d9c1b1494d1e2d9def107]
reverse link Logic to Game--><path codeLine="66" d="M242.8843,581.327 C168.6429,592.8619 36.96,626.519 36.96,720.16 C36.96,720.16 36.96,720.16 36.96,995.68 C36.96,1040.8339 62.3874,1087.9691 80.862,1116.257 " fill="none" id="Logic-backto-Game" style="stroke: #000000; stroke-width: 1.12;"/><polygon fill="#000000" points="257.3491,579.245,250.0596,575.7677,244.0461,581.1591,251.3357,584.6364,257.3491,579.245" style="stroke: #000000; stroke-width: 1.12;"/><!--MD5=[63338b9150ac7d4921123327ce1a1ef0]
reverse link Logic to State--><path codeLine="67" d="M253.5658,611.781 C210.196,655.321 142.9736,733.1139 119.84,816.48 C88.8493,928.1574 159.0053,1061.5035 192.687,1116.6154 " fill="none" id="Logic-backto-State" style="stroke: #008000; stroke-width: 1.12;"/><polygon fill="#008000" points="264.0366,601.468,256.1053,602.9922,254.4618,610.8996,262.3931,609.3754,264.0366,601.468" style="stroke: #008000; stroke-width: 1.12;"/><text fill="#000000" font-family="sans-serif" font-size="14.56" lengthAdjust="spacingAndGlyphs" textLength="79.52" x="120.96" y="849.5145">currentState</text><!--MD5=[9f8def4ec7b3205f74636e4f624f2758]
reverse link Logic to StateController--><path codeLine="68" d="M296.3923,616.0896 C298.9078,641.0488 302.0618,672.345 304.2502,694.0662 " fill="none" id="Logic-backto-StateController" style="stroke: #008000; stroke-width: 1.12;"/><polygon fill="#008000" points="294.9229,601.5106,291.1389,608.6457,296.2699,614.8829,300.0538,607.7477,294.9229,601.5106" style="stroke: #008000; stroke-width: 1.12;"/><text fill="#000000" font-family="sans-serif" font-size="14.56" lengthAdjust="spacingAndGlyphs" textLength="5.6" x="297.2589" y="682.0417">*</text><!--MD5=[0e82a18b80c0924e71b1cbbc617182b0]
reverse link StateController to Controller--><path codeLine="69" d="M313.7198,763.0582 C316.6811,780.6635 320.0602,800.7496 322.6742,816.2874 " fill="none" id="StateController-backto-Controller" style="stroke: #008000; stroke-width: 1.12;"/><polygon fill="#008000" points="311.2547,748.403,307.9519,755.7733,313.4848,761.6567,316.7877,754.2865,311.2547,748.403" style="stroke: #008000; stroke-width: 1.12;"/><!--MD5=[05678260e38141ca768f56112cacdaaf]
reverse link StateController to State--><path codeLine="70" d="M283.0632,761.1106 C255.8483,807.9725 213.1494,890.2589 198.24,967.68 C188.2093,1019.7634 197.0573,1082.023 203.7078,1116.3869 " fill="none" id="StateController-backto-State" style="stroke: #008000; stroke-width: 1.12;"/><polygon fill="#008000" points="290.6277,748.3078,283.3521,751.8143,283.7906,759.8788,291.0661,756.3724,290.6277,748.3078" style="stroke: #008000; stroke-width: 1.12;"/><!--MD5=[27021d7192df067fe1906bbc86d987c3]
reverse link ConsoleView to GameView--><path codeLine="72" d="M807.6768,612.2581 C832.0077,637.7762 863.8941,671.2182 885.6803,694.0662 " fill="none" id="ConsoleView-backto-GameView" style="stroke: #000000; stroke-width: 1.12;"/><polygon fill="#000000" points="797.4288,601.5106,798.824,609.4656,806.7037,611.2374,805.3085,603.2823,797.4288,601.5106" style="stroke: #000000; stroke-width: 1.12;"/><!--MD5=[56bdcb266f45864af3131be201f47f99]
reverse link ConsoleView to StartView--><path codeLine="73" d="M772.8,616.0896 C772.8,641.0488 772.8,672.345 772.8,694.0662 " fill="none" id="ConsoleView-backto-StartView" style="stroke: #000000; stroke-width: 1.12;"/><polygon fill="#000000" points="772.8,601.5106,768.32,608.2306,772.8,614.9506,777.28,608.2306,772.8,601.5106" style="stroke: #000000; stroke-width: 1.12;"/><!--MD5=[1a2a8fca0b6e363b5cf9d4bd576f3fc8]
reverse link GameView to ProposedCombinationView--><path codeLine="75" d="M888.6539,761.4656 C878.5739,779.4416 866.889,800.2792 857.9133,816.2874 " fill="none" id="GameView-backto-ProposedCombinationView" style="stroke: #000000; stroke-width: 1.12;"/><polygon fill="#000000" points="895.9787,748.403,888.7843,752.073,889.4048,760.1256,896.5993,756.4556,895.9787,748.403" style="stroke: #000000; stroke-width: 1.12;"/><!--MD5=[7ae0dacd428787fa171ae8b386981743]
link GameView to ProposeCombinationController--><path codeLine="76" d="M858.7253,743.6934 C819.4973,760.8496 765.0832,786.9221 721.28,816.48 C703.463,828.5032 606.5158,916.2686 554.671,963.5136 " fill="none" id="GameView-to-ProposeCombinationController" style="stroke: #000000; stroke-width: 1.12; stroke-dasharray: 7.0,7.0;"/><polygon fill="#000000" points="550.4083,967.3989,560.876,963.9196,554.5471,963.6265,554.8401,957.2976,550.4083,967.3989" style="stroke: #000000; stroke-width: 1.12;"/><!--MD5=[3ad0bd69ff7a093d2131bc46b011fe78]
link StartView to StartController--><path codeLine="77" d="M726.2696,739.6211 C687.577,755.5038 632.5581,781.8518 592.48,816.48 C543.6581,858.6637 560.289,897.1805 507.36,934.08 C461.9832,965.7144 440.5374,951.9003 387.52,967.68 C383.0086,969.0229 378.3651,970.4262 373.6891,971.8565 " fill="none" id="StartView-to-StartController" style="stroke: #000000; stroke-width: 1.12; stroke-dasharray: 7.0,7.0;"/><polygon fill="#000000" points="368.1922,973.5443,379.143,974.8694,373.5457,971.9011,376.5139,966.3038,368.1922,973.5443" style="stroke: #000000; stroke-width: 1.12;"/><!--MD5=[1201a740707a6d9a77245a23c16c366f]
link ProposedCombinationView to ProposeCombinationController--><path codeLine="78" d="M802.1418,870.4058 C770.8512,889.4558 726.3726,915.2002 685.44,934.08 C660.4763,945.5936 632.5917,956.4251 607.0187,965.6024 " fill="none" id="ProposedCombinationView-to-ProposeCombinationController" style="stroke: #000000; stroke-width: 1.12; stroke-dasharray: 7.0,7.0;"/><polygon fill="#000000" points="601.599,967.5355,612.5983,968.3687,606.8736,965.6542,609.5881,959.9295,601.599,967.5355" style="stroke: #000000; stroke-width: 1.12;"/><!--MD5=[354d6deacb49030493b7fd8cb23ebdce]
reverse link Controller to StartController--><path codeLine="79" d="M320.1363,892.8091 C316.5982,917.569 312.4307,946.7472 309.4952,967.2902 " fill="none" id="Controller-backto-StartController" style="stroke: #000000; stroke-width: 1.12;"/><polygon fill="none" points="312.4038,891.4931,323.3328,870.427,327.927,893.7107,312.4038,891.4931" style="stroke: #000000; stroke-width: 1.12;"/><!--MD5=[d45f03342f2432c669a4cb0ca24546da]
reverse link Controller to ProposeCombinationController--><path codeLine="80" d="M379.0192,884.212 C413.5779,910.6272 457.9691,944.5576 488.0366,967.5411 " fill="none" id="Controller-backto-ProposeCombinationController" style="stroke: #000000; stroke-width: 1.12;"/><polygon fill="none" points="374.0206,890.2589,360.985,870.427,383.5429,877.8011,374.0206,890.2589" style="stroke: #000000; stroke-width: 1.12;"/><!--MD5=[af3c341f28b4ad1078e652ece2043f79]
link Controller to Game--><path codeLine="81" d="M304.4451,870.4259 C289.4965,886.7958 268.9691,907.825 248.64,924 C242.6939,928.7309 240.0798,928.2974 234.08,932.96 C216.5677,946.568 211.7931,950.1251 198.24,967.68 C162.4381,1014.0558 131.1285,1074.9301 113.867,1111.2214 " fill="none" id="Controller-to-Game" style="stroke: #000000; stroke-width: 1.12;"/><polygon fill="#000000" points="111.4239,1116.3925,119.7808,1109.1926,113.8163,1111.3292,111.6796,1105.3647,111.4239,1116.3925" style="stroke: #000000; stroke-width: 1.12;"/><!--MD5=[680da7a522096492fc62467c7a6dd068]
link Controller to State--><path codeLine="82" d="M296.847,870.4562 C272.5386,893.3445 239.895,928.993 224,967.68 C204.7539,1014.5229 204.3742,1074.276 206.4675,1110.3736 " fill="none" id="Controller-to-State" style="stroke: #008000; stroke-width: 1.12;"/><polygon fill="#008000" points="206.8528,1116.3936,210.6815,1106.0486,206.496,1110.805,201.7397,1106.6195,206.8528,1116.3936" style="stroke: #008000; stroke-width: 1.12;"/><!--MD5=[159ec9f8adfff7f9b422ced66bda5b65]
reverse link State to StateValue--><path codeLine="83" d="M203.3606,1185.2982 C200.7275,1202.9035 197.7237,1222.9896 195.4008,1238.5274 " fill="none" id="State-backto-StateValue" style="stroke: #000000; stroke-width: 1.12;"/><polygon fill="#000000" points="205.5514,1170.643,200.1273,1176.6271,203.5649,1183.9354,208.9889,1177.9514,205.5514,1170.643" style="stroke: #000000; stroke-width: 1.12;"/><!--MD5=[53c5cd54c0b97690028198a0cfc20e2b]
@startuml
skinparam {
    BoundaryBackgroundColor #629EF9
    BoundaryBorderColor black
    BoundaryFontSize 12
    BoundarySize 10
    ControlBackgroundColor #b5bd68
    ControlBorderColor #718c00
    EntityBackgroundColor #F2AC4E
    EntityBorderColor black
    ArrowColor black
}

hide stereotype
skinparam class {
    BorderColor<<new>> green
}

package mastermind {

abstract class Mastermind
class ConsoleMastermind

package controllers {
    class Controller
    class StateController <<new>>
    class Logic {
    }
    class ProposeCombinationController{
    }
    class StartController{
    }
}
package models {
    class Game

    class State <<new>>
    class StateValue <<new>>
}

package views {

    Abstract View {
        interact(Controller controller)
    }

    class ConsoleView

    package console{
        class StartView
        class ProposedCombinationView
        class GameView
}



}

Mastermind *- - View
Mastermind *- - - - Logic
Mastermind <|-up- ConsoleMastermind
View <|- - ConsoleView
View ..> Controller
ConsoleView .[#red].> StartController
ConsoleView .[#red].> ProposeCombinationController

Logic *- - Game
Logic *-[#green]- State : currentState
Logic *-[#green]- "*" StateController
StateController *-[#green]- Controller
StateController *-[#green]- State

ConsoleView *- - GameView
ConsoleView *- - StartView

GameView *- - ProposedCombinationView
GameView ..> ProposeCombinationController
StartView ..> StartController
ProposedCombinationView ..> ProposeCombinationController
Controller <|- - StartController
Controller <|- - ProposeCombinationController
Controller - -> Game
Controller -[#green]- -> State
State *- - StateValue
}


@enduml

PlantUML version 1.2020.20(Sat Nov 21 11:02:45 CET 2020)
(GPL source distribution)
Java Runtime: OpenJDK Runtime Environment
JVM: OpenJDK 64-Bit Server VM
Default Encoding: Cp1252
Language: en
Country: GB
--></g></svg>