<?xml version="1.0" encoding="UTF-8" standalone="no"?><svg xmlns="http://www.w3.org/2000/svg" xmlns:xlink="http://www.w3.org/1999/xlink" contentScriptType="application/ecmascript" contentStyleType="text/css" height="941.92px" preserveAspectRatio="none" style="width:1061px;height:941px;" version="1.1" viewBox="0 0 1061 941" width="1061.76px" zoomAndPan="magnify"><defs><filter height="300%" id="fsewqhgsc779a" width="300%" x="-1" y="-1"><feGaussianBlur result="blurOut" stdDeviation="2.24"/><feColorMatrix in="blurOut" result="blurOut2" type="matrix" values="0 0 0 0 0 0 0 0 0 0 0 0 0 0 0 0 0 0 .4 0"/><feOffset dx="4.48" dy="4.48" in="blurOut2" result="blurOut3"/><feBlend in="SourceGraphic" in2="blurOut3" mode="normal"/></filter></defs><g><!--MD5=[b56d8ef9af079015670ad96965866810]
cluster mastermind--><polygon fill="#FFFFFF" filter="url(#fsewqhgsc779a)" points="17.92,6.72,116.48,6.72,124.32,33.1625,1042.72,33.1625,1042.72,934.08,17.92,934.08,17.92,6.72" style="stroke: #000000; stroke-width: 1.6800000000000002;"/><line style="stroke: #000000; stroke-width: 1.6800000000000002;" x1="17.92" x2="124.32" y1="33.1625" y2="33.1625"/><text fill="#000000" font-family="sans-serif" font-size="15.68" font-weight="bold" lengthAdjust="spacingAndGlyphs" textLength="91.84" x="22.4" y="25.2372">mastermind</text><!--MD5=[f4e70ef68289585296b9045165e58692]
cluster controllers--><polygon fill="#FFFFFF" filter="url(#fsewqhgsc779a)" points="44.8,387.52,137.76,387.52,145.6,413.9625,663.04,413.9625,663.04,620.48,44.8,620.48,44.8,387.52" style="stroke: #000000; stroke-width: 1.6800000000000002;"/><line style="stroke: #000000; stroke-width: 1.6800000000000002;" x1="44.8" x2="145.6" y1="413.9625" y2="413.9625"/><text fill="#000000" font-family="sans-serif" font-size="15.68" font-weight="bold" lengthAdjust="spacingAndGlyphs" textLength="86.24" x="49.28" y="406.0372">controllers</text><!--MD5=[a60570e4b426f702ccbb0d459e3b9417]
cluster models--><polygon fill="#FFFFFF" filter="url(#fsewqhgsc779a)" points="378.56,248.64,442.4,248.64,450.24,275.0825,488.32,275.0825,488.32,360.64,378.56,360.64,378.56,248.64" style="stroke: #000000; stroke-width: 1.6800000000000002;"/><line style="stroke: #000000; stroke-width: 1.6800000000000002;" x1="378.56" x2="450.24" y1="275.0825" y2="275.0825"/><text fill="#000000" font-family="sans-serif" font-size="15.68" font-weight="bold" lengthAdjust="spacingAndGlyphs" textLength="57.12" x="383.04" y="267.1572">models</text><!--MD5=[e2a75efa8a0f57c2afae8bf75386f79c]
cluster views--><polygon fill="#FFFFFF" filter="url(#fsewqhgsc779a)" points="689.92,387.52,742.56,387.52,750.4,413.9625,1015.84,413.9625,1015.84,907.2,689.92,907.2,689.92,387.52" style="stroke: #000000; stroke-width: 1.6800000000000002;"/><line style="stroke: #000000; stroke-width: 1.6800000000000002;" x1="689.92" x2="750.4" y1="413.9625" y2="413.9625"/><text fill="#000000" font-family="sans-serif" font-size="15.68" font-weight="bold" lengthAdjust="spacingAndGlyphs" textLength="45.92" x="694.4" y="406.0372">views</text><!--MD5=[4b7a55d430ce43d42ce9ebad9e6b4010]
cluster console--><polygon fill="#FFFFFF" filter="url(#fsewqhgsc779a)" points="716.8,647.36,786.24,647.36,794.08,673.8025,988.96,673.8025,988.96,880.32,716.8,880.32,716.8,647.36" style="stroke: #000000; stroke-width: 1.6800000000000002;"/><line style="stroke: #000000; stroke-width: 1.6800000000000002;" x1="716.8" x2="794.08" y1="673.8025" y2="673.8025"/><text fill="#000000" font-family="sans-serif" font-size="15.68" font-weight="bold" lengthAdjust="spacingAndGlyphs" textLength="62.72" x="721.28" y="665.8772">console</text><!--MD5=[7283a9eed84464550b6d5ebf39c68b05]
class Mastermind--><rect codeLine="16" fill="#FEFECE" filter="url(#fsewqhgsc779a)" height="53.76" id="Mastermind" style="stroke: #A80036; stroke-width: 1.6800000000000002;" width="107.52" x="302.4" y="168"/><ellipse cx="319.2" cy="185.92" fill="#A9DCDF" rx="12.32" ry="12.32" style="stroke: #A80036; stroke-width: 1.12;"/><path d="M321.16,187.6 L317.4675,187.6 L316.9775,188.72 L316.9775,188.72 L317.5025,188.72 L318.08,189.42 L318.08,189.84 L318.08,190.26 L317.5025,190.96 L316.9775,190.96 L314.86,190.96 L314.1775,190.96 L313.6,190.26 L313.6,189.84 L313.6,189.42 L314.1775,188.72 L314.86,188.72 L317.45,182 L316.47,182 L315.2975,182 L314.72,181.3 L314.72,180.88 L314.72,180.46 L315.2975,179.76 L316.47,179.76 L320.5825,179.76 L323.5925,188.72 L324.2225,188.72 L324.2225,188.72 L324.8,189.42 L324.8,189.84 L324.8,190.26 L324.2225,190.96 L323.5925,190.96 L321.475,190.96 L320.8975,190.96 L320.32,190.26 L320.32,189.84 L320.32,189.42 L320.8975,188.72 L321.475,188.72 L321.475,188.72 L321.16,187.6 Z M320.5475,185.36 L319.2,181.3525 L318.045,185.36 L320.5475,185.36 Z " fill="#000000"/><text fill="#000000" font-family="sans-serif" font-size="13.44" font-style="italic" lengthAdjust="spacingAndGlyphs" textLength="71.68" x="334.88" y="191.4194">Mastermind</text><line style="stroke: #A80036; stroke-width: 1.6800000000000002;" x1="303.52" x2="408.8" y1="203.84" y2="203.84"/><line style="stroke: #A80036; stroke-width: 1.6800000000000002;" x1="303.52" x2="408.8" y1="212.8" y2="212.8"/><!--MD5=[b42ceb2c5584a967df5f7acfe803d0f5]
class ConsoleMastermind--><rect codeLine="17" fill="#FEFECE" filter="url(#fsewqhgsc779a)" height="53.76" id="ConsoleMastermind" style="stroke: #A80036; stroke-width: 1.6800000000000002;" width="161.28" x="275.52" y="47.04"/><ellipse cx="292.32" cy="64.96" fill="#ADD1B2" rx="12.32" ry="12.32" style="stroke: #A80036; stroke-width: 1.12;"/><path d="M294.56,61.04 Q294.7875,60.48 295.05,60.2 Q295.3125,59.92 295.61,59.92 Q296.135,59.92 296.4675,60.235 Q296.8,60.55 296.8,61.285 L296.8,63.035 Q296.8,63.77 296.485,64.085 Q296.17,64.4 295.68,64.4 Q295.2425,64.4 294.9625,64.2075 Q294.6825,64.015 294.56,63.5075 Q294.5075,63.1575 294.315,62.965 Q293.965,62.5975 293.335,62.3875 Q292.705,62.16 292.075,62.16 Q291.2875,62.16 290.6225,62.475 Q289.975,62.79 289.4675,63.49 Q288.96,64.19 288.96,65.1525 L288.96,66.185 Q288.96,67.34 289.905,68.11 Q290.85,68.88 292.53,68.88 Q293.5275,68.88 294.2275,68.6525 Q294.63,68.53 295.085,68.1275 Q295.3825,67.9 295.54,67.83 Q295.6975,67.76 295.89,67.76 Q296.2575,67.76 296.52,68.0575 Q296.8,68.3375 296.8,68.74 Q296.8,69.125 296.415,69.58 Q295.855,70.245 294.9625,70.6125 Q293.79,71.12 292.355,71.12 Q290.675,71.12 289.3275,70.455 Q288.2425,69.93 287.4725,68.7925 Q286.72,67.655 286.72,66.3075 L286.72,65.0825 Q286.72,63.6825 287.385,62.4575 Q288.0675,61.2325 289.24,60.585 Q290.43,59.92 291.76,59.92 Q292.565,59.92 293.265,60.2 Q293.965,60.48 294.56,61.04 Z " fill="#000000"/><text fill="#000000" font-family="sans-serif" font-size="13.44" lengthAdjust="spacingAndGlyphs" textLength="125.44" x="308" y="70.4594">ConsoleMastermind</text><line style="stroke: #A80036; stroke-width: 1.6800000000000002;" x1="276.64" x2="435.68" y1="82.88" y2="82.88"/><line style="stroke: #A80036; stroke-width: 1.6800000000000002;" x1="276.64" x2="435.68" y1="91.84" y2="91.84"/><!--MD5=[1d7ba1c7002d54515419844fbd155368]
class Controller--><rect codeLine="20" fill="#FEFECE" filter="url(#fsewqhgsc779a)" height="53.76" id="Controller" style="stroke: #A80036; stroke-width: 1.6800000000000002;" width="96.32" x="396.48" y="427.84"/><ellipse cx="413.28" cy="445.76" fill="#ADD1B2" rx="12.32" ry="12.32" style="stroke: #A80036; stroke-width: 1.12;"/><path d="M415.52,441.84 Q415.7475,441.28 416.01,441 Q416.2725,440.72 416.57,440.72 Q417.095,440.72 417.4275,441.035 Q417.76,441.35 417.76,442.085 L417.76,443.835 Q417.76,444.57 417.445,444.885 Q417.13,445.2 416.64,445.2 Q416.2025,445.2 415.9225,445.0075 Q415.6425,444.815 415.52,444.3075 Q415.4675,443.9575 415.275,443.765 Q414.925,443.3975 414.295,443.1875 Q413.665,442.96 413.035,442.96 Q412.2475,442.96 411.5825,443.275 Q410.935,443.59 410.4275,444.29 Q409.92,444.99 409.92,445.9525 L409.92,446.985 Q409.92,448.14 410.865,448.91 Q411.81,449.68 413.49,449.68 Q414.4875,449.68 415.1875,449.4525 Q415.59,449.33 416.045,448.9275 Q416.3425,448.7 416.5,448.63 Q416.6575,448.56 416.85,448.56 Q417.2175,448.56 417.48,448.8575 Q417.76,449.1375 417.76,449.54 Q417.76,449.925 417.375,450.38 Q416.815,451.045 415.9225,451.4125 Q414.75,451.92 413.315,451.92 Q411.635,451.92 410.2875,451.255 Q409.2025,450.73 408.4325,449.5925 Q407.68,448.455 407.68,447.1075 L407.68,445.8825 Q407.68,444.4825 408.345,443.2575 Q409.0275,442.0325 410.2,441.385 Q411.39,440.72 412.72,440.72 Q413.525,440.72 414.225,441 Q414.925,441.28 415.52,441.84 Z " fill="#000000"/><text fill="#000000" font-family="sans-serif" font-size="13.44" lengthAdjust="spacingAndGlyphs" textLength="60.48" x="428.96" y="451.2594">Controller</text><line style="stroke: #A80036; stroke-width: 1.6800000000000002;" x1="397.6" x2="491.68" y1="463.68" y2="463.68"/><line style="stroke: #A80036; stroke-width: 1.6800000000000002;" x1="397.6" x2="491.68" y1="472.64" y2="472.64"/><!--MD5=[92433bfbd7559c1d4e4a44c9d1c48b0e]
class ProposeCombinationController--><rect codeLine="21" fill="#FEFECE" filter="url(#fsewqhgsc779a)" height="53.76" id="ProposeCombinationController" style="stroke: #A80036; stroke-width: 1.6800000000000002;" width="228.48" x="416.64" y="548.8"/><ellipse cx="433.44" cy="566.72" fill="#ADD1B2" rx="12.32" ry="12.32" style="stroke: #A80036; stroke-width: 1.12;"/><path d="M435.68,562.8 Q435.9075,562.24 436.17,561.96 Q436.4325,561.68 436.73,561.68 Q437.255,561.68 437.5875,561.995 Q437.92,562.31 437.92,563.045 L437.92,564.795 Q437.92,565.53 437.605,565.845 Q437.29,566.16 436.8,566.16 Q436.3625,566.16 436.0825,565.9675 Q435.8025,565.775 435.68,565.2675 Q435.6275,564.9175 435.435,564.725 Q435.085,564.3575 434.455,564.1475 Q433.825,563.92 433.195,563.92 Q432.4075,563.92 431.7425,564.235 Q431.095,564.55 430.5875,565.25 Q430.08,565.95 430.08,566.9125 L430.08,567.945 Q430.08,569.1 431.025,569.87 Q431.97,570.64 433.65,570.64 Q434.6475,570.64 435.3475,570.4125 Q435.75,570.29 436.205,569.8875 Q436.5025,569.66 436.66,569.59 Q436.8175,569.52 437.01,569.52 Q437.3775,569.52 437.64,569.8175 Q437.92,570.0975 437.92,570.5 Q437.92,570.885 437.535,571.34 Q436.975,572.005 436.0825,572.3725 Q434.91,572.88 433.475,572.88 Q431.795,572.88 430.4475,572.215 Q429.3625,571.69 428.5925,570.5525 Q427.84,569.415 427.84,568.0675 L427.84,566.8425 Q427.84,565.4425 428.505,564.2175 Q429.1875,562.9925 430.36,562.345 Q431.55,561.68 432.88,561.68 Q433.685,561.68 434.385,561.96 Q435.085,562.24 435.68,562.8 Z " fill="#000000"/><text fill="#000000" font-family="sans-serif" font-size="13.44" lengthAdjust="spacingAndGlyphs" textLength="192.64" x="449.12" y="572.2194">ProposeCombinationController</text><line style="stroke: #A80036; stroke-width: 1.6800000000000002;" x1="417.76" x2="644" y1="584.64" y2="584.64"/><line style="stroke: #A80036; stroke-width: 1.6800000000000002;" x1="417.76" x2="644" y1="593.6" y2="593.6"/><!--MD5=[1a47bbf44ccee225df9b18c5b6629853]
class ResumeController--><rect codeLine="22" fill="#FEFECE" filter="url(#fsewqhgsc779a)" height="53.76" id="ResumeController" style="stroke: #A80036; stroke-width: 1.6800000000000002;" width="150.08" x="62.72" y="548.8"/><ellipse cx="79.52" cy="566.72" fill="#ADD1B2" rx="12.32" ry="12.32" style="stroke: #A80036; stroke-width: 1.12;"/><path d="M81.76,562.8 Q81.9875,562.24 82.25,561.96 Q82.5125,561.68 82.81,561.68 Q83.335,561.68 83.6675,561.995 Q84,562.31 84,563.045 L84,564.795 Q84,565.53 83.685,565.845 Q83.37,566.16 82.88,566.16 Q82.4425,566.16 82.1625,565.9675 Q81.8825,565.775 81.76,565.2675 Q81.7075,564.9175 81.515,564.725 Q81.165,564.3575 80.535,564.1475 Q79.905,563.92 79.275,563.92 Q78.4875,563.92 77.8225,564.235 Q77.175,564.55 76.6675,565.25 Q76.16,565.95 76.16,566.9125 L76.16,567.945 Q76.16,569.1 77.105,569.87 Q78.05,570.64 79.73,570.64 Q80.7275,570.64 81.4275,570.4125 Q81.83,570.29 82.285,569.8875 Q82.5825,569.66 82.74,569.59 Q82.8975,569.52 83.09,569.52 Q83.4575,569.52 83.72,569.8175 Q84,570.0975 84,570.5 Q84,570.885 83.615,571.34 Q83.055,572.005 82.1625,572.3725 Q80.99,572.88 79.555,572.88 Q77.875,572.88 76.5275,572.215 Q75.4425,571.69 74.6725,570.5525 Q73.92,569.415 73.92,568.0675 L73.92,566.8425 Q73.92,565.4425 74.585,564.2175 Q75.2675,562.9925 76.44,562.345 Q77.63,561.68 78.96,561.68 Q79.765,561.68 80.465,561.96 Q81.165,562.24 81.76,562.8 Z " fill="#000000"/><text fill="#000000" font-family="sans-serif" font-size="13.44" lengthAdjust="spacingAndGlyphs" textLength="114.24" x="95.2" y="572.2194">ResumeController</text><line style="stroke: #A80036; stroke-width: 1.6800000000000002;" x1="63.84" x2="211.68" y1="584.64" y2="584.64"/><line style="stroke: #A80036; stroke-width: 1.6800000000000002;" x1="63.84" x2="211.68" y1="593.6" y2="593.6"/><!--MD5=[47c371471411cfedeee61b1a5bdaee47]
class StartController--><rect codeLine="23" fill="#FEFECE" filter="url(#fsewqhgsc779a)" height="53.76" id="StartController" style="stroke: #A80036; stroke-width: 1.6800000000000002;" width="124.32" x="252.56" y="548.8"/><ellipse cx="269.36" cy="566.72" fill="#ADD1B2" rx="12.32" ry="12.32" style="stroke: #A80036; stroke-width: 1.12;"/><path d="M271.6,562.8 Q271.8275,562.24 272.09,561.96 Q272.3525,561.68 272.65,561.68 Q273.175,561.68 273.5075,561.995 Q273.84,562.31 273.84,563.045 L273.84,564.795 Q273.84,565.53 273.525,565.845 Q273.21,566.16 272.72,566.16 Q272.2825,566.16 272.0025,565.9675 Q271.7225,565.775 271.6,565.2675 Q271.5475,564.9175 271.355,564.725 Q271.005,564.3575 270.375,564.1475 Q269.745,563.92 269.115,563.92 Q268.3275,563.92 267.6625,564.235 Q267.015,564.55 266.5075,565.25 Q266,565.95 266,566.9125 L266,567.945 Q266,569.1 266.945,569.87 Q267.89,570.64 269.57,570.64 Q270.5675,570.64 271.2675,570.4125 Q271.67,570.29 272.125,569.8875 Q272.4225,569.66 272.58,569.59 Q272.7375,569.52 272.93,569.52 Q273.2975,569.52 273.56,569.8175 Q273.84,570.0975 273.84,570.5 Q273.84,570.885 273.455,571.34 Q272.895,572.005 272.0025,572.3725 Q270.83,572.88 269.395,572.88 Q267.715,572.88 266.3675,572.215 Q265.2825,571.69 264.5125,570.5525 Q263.76,569.415 263.76,568.0675 L263.76,566.8425 Q263.76,565.4425 264.425,564.2175 Q265.1075,562.9925 266.28,562.345 Q267.47,561.68 268.8,561.68 Q269.605,561.68 270.305,561.96 Q271.005,562.24 271.6,562.8 Z " fill="#000000"/><text fill="#000000" font-family="sans-serif" font-size="13.44" lengthAdjust="spacingAndGlyphs" textLength="88.48" x="285.04" y="572.2194">StartController</text><line style="stroke: #A80036; stroke-width: 1.6800000000000002;" x1="253.68" x2="375.76" y1="584.64" y2="584.64"/><line style="stroke: #A80036; stroke-width: 1.6800000000000002;" x1="253.68" x2="375.76" y1="593.6" y2="593.6"/><!--MD5=[b6dcce5e5ef3c84b0b048d11301373dd]
class Game--><rect codeLine="27" fill="#FEFECE" filter="url(#fsewqhgsc779a)" height="53.76" id="Game" style="stroke: #A80036; stroke-width: 1.6800000000000002;" width="73.92" x="396.48" y="288.96"/><ellipse cx="413.28" cy="306.88" fill="#ADD1B2" rx="12.32" ry="12.32" style="stroke: #A80036; stroke-width: 1.12;"/><path d="M415.52,302.96 Q415.7475,302.4 416.01,302.12 Q416.2725,301.84 416.57,301.84 Q417.095,301.84 417.4275,302.155 Q417.76,302.47 417.76,303.205 L417.76,304.955 Q417.76,305.69 417.445,306.005 Q417.13,306.32 416.64,306.32 Q416.2025,306.32 415.9225,306.1275 Q415.6425,305.935 415.52,305.4275 Q415.4675,305.0775 415.275,304.885 Q414.925,304.5175 414.295,304.3075 Q413.665,304.08 413.035,304.08 Q412.2475,304.08 411.5825,304.395 Q410.935,304.71 410.4275,305.41 Q409.92,306.11 409.92,307.0725 L409.92,308.105 Q409.92,309.26 410.865,310.03 Q411.81,310.8 413.49,310.8 Q414.4875,310.8 415.1875,310.5725 Q415.59,310.45 416.045,310.0475 Q416.3425,309.82 416.5,309.75 Q416.6575,309.68 416.85,309.68 Q417.2175,309.68 417.48,309.9775 Q417.76,310.2575 417.76,310.66 Q417.76,311.045 417.375,311.5 Q416.815,312.165 415.9225,312.5325 Q414.75,313.04 413.315,313.04 Q411.635,313.04 410.2875,312.375 Q409.2025,311.85 408.4325,310.7125 Q407.68,309.575 407.68,308.2275 L407.68,307.0025 Q407.68,305.6025 408.345,304.3775 Q409.0275,303.1525 410.2,302.505 Q411.39,301.84 412.72,301.84 Q413.525,301.84 414.225,302.12 Q414.925,302.4 415.52,302.96 Z " fill="#000000"/><text fill="#000000" font-family="sans-serif" font-size="13.44" lengthAdjust="spacingAndGlyphs" textLength="38.08" x="428.96" y="312.3794">Game</text><line style="stroke: #A80036; stroke-width: 1.6800000000000002;" x1="397.6" x2="469.28" y1="324.8" y2="324.8"/><line style="stroke: #A80036; stroke-width: 1.6800000000000002;" x1="397.6" x2="469.28" y1="333.76" y2="333.76"/><!--MD5=[c045e12321b83266d36d22b9096c24ea]
class View--><rect codeLine="32" fill="#FEFECE" filter="url(#fsewqhgsc779a)" height="53.76" id="View" style="stroke: #A80036; stroke-width: 1.6800000000000002;" width="64.96" x="707.84" y="427.84"/><ellipse cx="724.64" cy="445.76" fill="#ADD1B2" rx="12.32" ry="12.32" style="stroke: #A80036; stroke-width: 1.12;"/><path d="M726.88,441.84 Q727.1075,441.28 727.37,441 Q727.6325,440.72 727.93,440.72 Q728.455,440.72 728.7875,441.035 Q729.12,441.35 729.12,442.085 L729.12,443.835 Q729.12,444.57 728.805,444.885 Q728.49,445.2 728,445.2 Q727.5625,445.2 727.2825,445.0075 Q727.0025,444.815 726.88,444.3075 Q726.8275,443.9575 726.635,443.765 Q726.285,443.3975 725.655,443.1875 Q725.025,442.96 724.395,442.96 Q723.6075,442.96 722.9425,443.275 Q722.295,443.59 721.7875,444.29 Q721.28,444.99 721.28,445.9525 L721.28,446.985 Q721.28,448.14 722.225,448.91 Q723.17,449.68 724.85,449.68 Q725.8475,449.68 726.5475,449.4525 Q726.95,449.33 727.405,448.9275 Q727.7025,448.7 727.86,448.63 Q728.0175,448.56 728.21,448.56 Q728.5775,448.56 728.84,448.8575 Q729.12,449.1375 729.12,449.54 Q729.12,449.925 728.735,450.38 Q728.175,451.045 727.2825,451.4125 Q726.11,451.92 724.675,451.92 Q722.995,451.92 721.6475,451.255 Q720.5625,450.73 719.7925,449.5925 Q719.04,448.455 719.04,447.1075 L719.04,445.8825 Q719.04,444.4825 719.705,443.2575 Q720.3875,442.0325 721.56,441.385 Q722.75,440.72 724.08,440.72 Q724.885,440.72 725.585,441 Q726.285,441.28 726.88,441.84 Z " fill="#000000"/><text fill="#000000" font-family="sans-serif" font-size="13.44" lengthAdjust="spacingAndGlyphs" textLength="29.12" x="740.32" y="451.2594">View</text><line style="stroke: #A80036; stroke-width: 1.6800000000000002;" x1="708.96" x2="771.68" y1="463.68" y2="463.68"/><line style="stroke: #A80036; stroke-width: 1.6800000000000002;" x1="708.96" x2="771.68" y1="472.64" y2="472.64"/><!--MD5=[51d729737bd84a4c43136dd336c2eea1]
class ConsoleView--><rect codeLine="33" fill="#FEFECE" filter="url(#fsewqhgsc779a)" height="53.76" id="ConsoleView" style="stroke: #A80036; stroke-width: 1.6800000000000002;" width="117.6" x="727.44" y="548.8"/><ellipse cx="744.24" cy="566.72" fill="#ADD1B2" rx="12.32" ry="12.32" style="stroke: #A80036; stroke-width: 1.12;"/><path d="M746.48,562.8 Q746.7075,562.24 746.97,561.96 Q747.2325,561.68 747.53,561.68 Q748.055,561.68 748.3875,561.995 Q748.72,562.31 748.72,563.045 L748.72,564.795 Q748.72,565.53 748.405,565.845 Q748.09,566.16 747.6,566.16 Q747.1625,566.16 746.8825,565.9675 Q746.6025,565.775 746.48,565.2675 Q746.4275,564.9175 746.235,564.725 Q745.885,564.3575 745.255,564.1475 Q744.625,563.92 743.995,563.92 Q743.2075,563.92 742.5425,564.235 Q741.895,564.55 741.3875,565.25 Q740.88,565.95 740.88,566.9125 L740.88,567.945 Q740.88,569.1 741.825,569.87 Q742.77,570.64 744.45,570.64 Q745.4475,570.64 746.1475,570.4125 Q746.55,570.29 747.005,569.8875 Q747.3025,569.66 747.46,569.59 Q747.6175,569.52 747.81,569.52 Q748.1775,569.52 748.44,569.8175 Q748.72,570.0975 748.72,570.5 Q748.72,570.885 748.335,571.34 Q747.775,572.005 746.8825,572.3725 Q745.71,572.88 744.275,572.88 Q742.595,572.88 741.2475,572.215 Q740.1625,571.69 739.3925,570.5525 Q738.64,569.415 738.64,568.0675 L738.64,566.8425 Q738.64,565.4425 739.305,564.2175 Q739.9875,562.9925 741.16,562.345 Q742.35,561.68 743.68,561.68 Q744.485,561.68 745.185,561.96 Q745.885,562.24 746.48,562.8 Z " fill="#000000"/><text fill="#000000" font-family="sans-serif" font-size="13.44" lengthAdjust="spacingAndGlyphs" textLength="81.76" x="759.92" y="572.2194">ConsoleView</text><line style="stroke: #A80036; stroke-width: 1.6800000000000002;" x1="728.56" x2="843.92" y1="584.64" y2="584.64"/><line style="stroke: #A80036; stroke-width: 1.6800000000000002;" x1="728.56" x2="843.92" y1="593.6" y2="593.6"/><!--MD5=[443c52daef265809fdf31be84fc8ae4a]
class StartView--><rect codeLine="36" fill="#FEFECE" filter="url(#fsewqhgsc779a)" height="53.76" id="StartView" style="stroke: #A80036; stroke-width: 1.6800000000000002;" width="92.96" x="877.52" y="687.68"/><ellipse cx="894.32" cy="705.6" fill="#ADD1B2" rx="12.32" ry="12.32" style="stroke: #A80036; stroke-width: 1.12;"/><path d="M896.56,701.68 Q896.7875,701.12 897.05,700.84 Q897.3125,700.56 897.61,700.56 Q898.135,700.56 898.4675,700.875 Q898.8,701.19 898.8,701.925 L898.8,703.675 Q898.8,704.41 898.485,704.725 Q898.17,705.04 897.68,705.04 Q897.2425,705.04 896.9625,704.8475 Q896.6825,704.655 896.56,704.1475 Q896.5075,703.7975 896.315,703.605 Q895.965,703.2375 895.335,703.0275 Q894.705,702.8 894.075,702.8 Q893.2875,702.8 892.6225,703.115 Q891.975,703.43 891.4675,704.13 Q890.96,704.83 890.96,705.7925 L890.96,706.825 Q890.96,707.98 891.905,708.75 Q892.85,709.52 894.53,709.52 Q895.5275,709.52 896.2275,709.2925 Q896.63,709.17 897.085,708.7675 Q897.3825,708.54 897.54,708.47 Q897.6975,708.4 897.89,708.4 Q898.2575,708.4 898.52,708.6975 Q898.8,708.9775 898.8,709.38 Q898.8,709.765 898.415,710.22 Q897.855,710.885 896.9625,711.2525 Q895.79,711.76 894.355,711.76 Q892.675,711.76 891.3275,711.095 Q890.2425,710.57 889.4725,709.4325 Q888.72,708.295 888.72,706.9475 L888.72,705.7225 Q888.72,704.3225 889.385,703.0975 Q890.0675,701.8725 891.24,701.225 Q892.43,700.56 893.76,700.56 Q894.565,700.56 895.265,700.84 Q895.965,701.12 896.56,701.68 Z " fill="#000000"/><text fill="#000000" font-family="sans-serif" font-size="13.44" lengthAdjust="spacingAndGlyphs" textLength="57.12" x="910" y="711.0994">StartView</text><line style="stroke: #A80036; stroke-width: 1.6800000000000002;" x1="878.64" x2="969.36" y1="723.52" y2="723.52"/><line style="stroke: #A80036; stroke-width: 1.6800000000000002;" x1="878.64" x2="969.36" y1="732.48" y2="732.48"/><!--MD5=[0523615cfa2fa70c8ab764401f29a299]
class ProposedCombinationView--><rect codeLine="37" fill="#FEFECE" filter="url(#fsewqhgsc779a)" height="53.76" id="ProposedCombinationView" style="stroke: #A80036; stroke-width: 1.6800000000000002;" width="204.96" x="735.28" y="808.64"/><ellipse cx="752.08" cy="826.56" fill="#ADD1B2" rx="12.32" ry="12.32" style="stroke: #A80036; stroke-width: 1.12;"/><path d="M754.32,822.64 Q754.5475,822.08 754.81,821.8 Q755.0725,821.52 755.37,821.52 Q755.895,821.52 756.2275,821.835 Q756.56,822.15 756.56,822.885 L756.56,824.635 Q756.56,825.37 756.245,825.685 Q755.93,826 755.44,826 Q755.0025,826 754.7225,825.8075 Q754.4425,825.615 754.32,825.1075 Q754.2675,824.7575 754.075,824.565 Q753.725,824.1975 753.095,823.9875 Q752.465,823.76 751.835,823.76 Q751.0475,823.76 750.3825,824.075 Q749.735,824.39 749.2275,825.09 Q748.72,825.79 748.72,826.7525 L748.72,827.785 Q748.72,828.94 749.665,829.71 Q750.61,830.48 752.29,830.48 Q753.2875,830.48 753.9875,830.2525 Q754.39,830.13 754.845,829.7275 Q755.1425,829.5 755.3,829.43 Q755.4575,829.36 755.65,829.36 Q756.0175,829.36 756.28,829.6575 Q756.56,829.9375 756.56,830.34 Q756.56,830.725 756.175,831.18 Q755.615,831.845 754.7225,832.2125 Q753.55,832.72 752.115,832.72 Q750.435,832.72 749.0875,832.055 Q748.0025,831.53 747.2325,830.3925 Q746.48,829.255 746.48,827.9075 L746.48,826.6825 Q746.48,825.2825 747.145,824.0575 Q747.8275,822.8325 749,822.185 Q750.19,821.52 751.52,821.52 Q752.325,821.52 753.025,821.8 Q753.725,822.08 754.32,822.64 Z " fill="#000000"/><text fill="#000000" font-family="sans-serif" font-size="13.44" lengthAdjust="spacingAndGlyphs" textLength="169.12" x="767.76" y="832.0594">ProposedCombinationView</text><line style="stroke: #A80036; stroke-width: 1.6800000000000002;" x1="736.4" x2="939.12" y1="844.48" y2="844.48"/><line style="stroke: #A80036; stroke-width: 1.6800000000000002;" x1="736.4" x2="939.12" y1="853.44" y2="853.44"/><!--MD5=[5d3822d29342fbd355d1b65ea3562ec9]
class GameView--><rect codeLine="38" fill="#FEFECE" filter="url(#fsewqhgsc779a)" height="53.76" id="GameView" style="stroke: #A80036; stroke-width: 1.6800000000000002;" width="103.04" x="734.72" y="687.68"/><ellipse cx="751.52" cy="705.6" fill="#ADD1B2" rx="12.32" ry="12.32" style="stroke: #A80036; stroke-width: 1.12;"/><path d="M753.76,701.68 Q753.9875,701.12 754.25,700.84 Q754.5125,700.56 754.81,700.56 Q755.335,700.56 755.6675,700.875 Q756,701.19 756,701.925 L756,703.675 Q756,704.41 755.685,704.725 Q755.37,705.04 754.88,705.04 Q754.4425,705.04 754.1625,704.8475 Q753.8825,704.655 753.76,704.1475 Q753.7075,703.7975 753.515,703.605 Q753.165,703.2375 752.535,703.0275 Q751.905,702.8 751.275,702.8 Q750.4875,702.8 749.8225,703.115 Q749.175,703.43 748.6675,704.13 Q748.16,704.83 748.16,705.7925 L748.16,706.825 Q748.16,707.98 749.105,708.75 Q750.05,709.52 751.73,709.52 Q752.7275,709.52 753.4275,709.2925 Q753.83,709.17 754.285,708.7675 Q754.5825,708.54 754.74,708.47 Q754.8975,708.4 755.09,708.4 Q755.4575,708.4 755.72,708.6975 Q756,708.9775 756,709.38 Q756,709.765 755.615,710.22 Q755.055,710.885 754.1625,711.2525 Q752.99,711.76 751.555,711.76 Q749.875,711.76 748.5275,711.095 Q747.4425,710.57 746.6725,709.4325 Q745.92,708.295 745.92,706.9475 L745.92,705.7225 Q745.92,704.3225 746.585,703.0975 Q747.2675,701.8725 748.44,701.225 Q749.63,700.56 750.96,700.56 Q751.765,700.56 752.465,700.84 Q753.165,701.12 753.76,701.68 Z " fill="#000000"/><text fill="#000000" font-family="sans-serif" font-size="13.44" lengthAdjust="spacingAndGlyphs" textLength="67.2" x="767.2" y="711.0994">GameView</text><line style="stroke: #A80036; stroke-width: 1.6800000000000002;" x1="735.84" x2="836.64" y1="723.52" y2="723.52"/><line style="stroke: #A80036; stroke-width: 1.6800000000000002;" x1="735.84" x2="836.64" y1="732.48" y2="732.48"/><!--MD5=[656610ce8f577c8af05a302e0baea7d9]
reverse link Mastermind to Game--><path codeLine="44" d="M388.127,234.1674 C389.4632,236.0098 390.7613,237.8533 392,239.68 C402.6075,255.323 412.8891,273.9139 420.5578,288.6766 " fill="none" id="Mastermind-backto-Game" style="stroke: #000000; stroke-width: 1.12;"/><polygon fill="#000000" points="378.9464,222.1979,379.481,230.2566,387.1255,232.8626,386.5908,224.8039,378.9464,222.1979" style="stroke: #000000; stroke-width: 1.12;"/><!--MD5=[a1b33916ae7328de9d8df5a2edffcf3b]
reverse link Mastermind to View--><path codeLine="45" d="M424.0186,213.3891 C445.2638,220.145 468.3594,228.8944 488.32,239.68 C583.4909,291.1059 675.1371,382.7824 716.8493,427.5522 " fill="none" id="Mastermind-backto-View" style="stroke: #000000; stroke-width: 1.12;"/><polygon fill="#000000" points="410.0219,209.1331,415.1481,215.3742,422.8807,213.0427,417.7545,206.8017,410.0219,209.1331" style="stroke: #000000; stroke-width: 1.12;"/><!--MD5=[7b18fcb13f074e0a191cdc3e1f49f602]
reverse link Mastermind to StartController--><path codeLine="46" d="M346.5325,236.9909 C346.3746,237.8947 346.2234,238.7918 346.08,239.68 C327.6034,354.1082 318.9256,492.4237 315.9587,548.7843 " fill="none" id="Mastermind-backto-StartController" style="stroke: #FF0000; stroke-width: 1.12;"/><polygon fill="#FF0000" points="349.5117,222.2203,343.7911,227.9215,346.8534,235.3948,352.5741,229.6936,349.5117,222.2203" style="stroke: #FF0000; stroke-width: 1.12;"/><!--MD5=[db9edbae1f0415a2531254fc6a7032f8]
reverse link Mastermind to ProposeCombinationController--><path codeLine="47" d="M354.5136,236.9528 C352.4774,305.9358 351.8592,441.6933 376.32,481.6 C395.0565,512.1682 427.952,533.988 458.593,548.7709 " fill="none" id="Mastermind-backto-ProposeCombinationController" style="stroke: #FF0000; stroke-width: 1.12;"/><polygon fill="#FF0000" points="355.0042,222.124,350.3043,228.6921,354.5596,235.5566,359.2594,228.9885,355.0042,222.124" style="stroke: #FF0000; stroke-width: 1.12;"/><!--MD5=[01a13c32869654eba7ee76eee1618704]
reverse link Mastermind to ResumeController--><path codeLine="48" d="M325.7195,233.4786 C324.24,235.5517 322.8042,237.6282 321.44,239.68 C248.3925,349.5744 177.9198,490.9733 150.1595,548.492 " fill="none" id="Mastermind-backto-ResumeController" style="stroke: #FF0000; stroke-width: 1.12;"/><polygon fill="#FF0000" points="334.4835,221.788,326.8682,224.4778,326.4221,232.5419,334.0375,229.8521,334.4835,221.788" style="stroke: #FF0000; stroke-width: 1.12;"/><!--MD5=[535344f3358c01d37ed18bab87bee925]
link ConsoleMastermind to Mastermind--><path codeLine="49" d="M356.16,100.8 C356.16,113.7786 356.16,129.9525 356.16,145.1531 " fill="none" id="ConsoleMastermind-to-Mastermind" style="stroke: #000000; stroke-width: 1.12;"/><polygon fill="none" points="364,145.2394,356.16,167.6394,348.32,145.2394,364,145.2394" style="stroke: #000000; stroke-width: 1.12;"/><!--MD5=[a63dd7f30baaeb88fc8dd2ca46e0cc37]
reverse link View to ConsoleView--><path codeLine="50" d="M758.539,502.9438 C764.531,518.4357 770.9744,535.0923 776.1365,548.4394 " fill="none" id="View-backto-ConsoleView" style="stroke: #000000; stroke-width: 1.12;"/><polygon fill="none" points="751.053,505.3205,750.2835,481.6,765.6768,499.6634,751.053,505.3205" style="stroke: #000000; stroke-width: 1.12;"/><!--MD5=[53df6433c5feb4d0b52cb60597c3987b]
link View to StartController--><path codeLine="51" d="M707.7762,467.2886 C694.0427,471.9635 677.8363,477.2757 663.04,481.6 C545.7682,515.8754 514.0307,515.4946 396.48,548.8 C391.9518,550.0835 387.2949,551.4421 382.6088,552.8387 " fill="none" id="View-to-StartController" style="stroke: #FF0000; stroke-width: 1.12;"/><polygon fill="#FF0000" points="377.1029,554.4941,388.046,555.8815,382.4656,552.8814,385.4657,547.3011,377.1029,554.4941" style="stroke: #FF0000; stroke-width: 1.12;"/><!--MD5=[975384a2b2168e63c509e3c2e6a8b99a]
link View to ResumeController--><path codeLine="52" d="M707.579,468.0984 C693.9554,472.845 677.8822,477.9936 663.04,481.6 C475.0446,527.2814 422.1907,508.5405 232.96,548.8 C228.265,549.799 223.4579,550.8877 218.6173,552.0346 " fill="none" id="View-to-ResumeController" style="stroke: #FF0000; stroke-width: 1.12;"/><polygon fill="#FF0000" points="212.9254,553.4066,223.7744,555.4006,218.3696,552.0947,221.6755,546.6899,212.9254,553.4066" style="stroke: #FF0000; stroke-width: 1.12;"/><!--MD5=[6d7d286aab98f57f43efdf9142e28f59]
link View to ProposeCombinationController--><path codeLine="53" d="M707.5947,474.3894 C673.9029,493.4888 620.9392,523.5104 581.7728,545.7122 " fill="none" id="View-to-ProposeCombinationController" style="stroke: #FF0000; stroke-width: 1.12;"/><polygon fill="#FF0000" points="576.5838,548.6533,587.5622,547.58,581.4556,545.8918,583.1439,539.7852,576.5838,548.6533" style="stroke: #FF0000; stroke-width: 1.12;"/><!--MD5=[27021d7192df067fe1906bbc86d987c3]
reverse link ConsoleView to GameView--><path codeLine="55" d="M786.24,617.5859 C786.24,640.257 786.24,667.7854 786.24,687.5142 " fill="none" id="ConsoleView-backto-GameView" style="stroke: #000000; stroke-width: 1.12;"/><polygon fill="#000000" points="786.24,602.8221,781.76,609.5421,786.24,616.2621,790.72,609.5421,786.24,602.8221" style="stroke: #000000; stroke-width: 1.12;"/><!--MD5=[56bdcb266f45864af3131be201f47f99]
reverse link ConsoleView to StartView--><path codeLine="56" d="M829.2189,612.0397 C838.8912,620.4318 848.9432,629.5307 857.92,638.4 C873.7266,654.0162 890.2466,672.7762 902.8141,687.6318 " fill="none" id="ConsoleView-backto-StartView" style="stroke: #000000; stroke-width: 1.12;"/><polygon fill="#000000" points="818.1286,602.5712,820.3304,610.3417,828.35,611.298,826.1483,603.5275,818.1286,602.5712" style="stroke: #000000; stroke-width: 1.12;"/><!--MD5=[1a2a8fca0b6e363b5cf9d4bd576f3fc8]
reverse link GameView to ProposedCombinationView--><path codeLine="58" d="M803.2203,754.8072 C810.8386,772.3643 819.6227,792.6038 826.4245,808.2794 " fill="none" id="GameView-backto-ProposedCombinationView" style="stroke: #000000; stroke-width: 1.12;"/><polygon fill="#000000" points="797.4187,741.44,795.9836,749.3879,802.7682,753.7695,804.2033,745.8216,797.4187,741.44" style="stroke: #000000; stroke-width: 1.12;"/><!--MD5=[354d6deacb49030493b7fd8cb23ebdce]
reverse link Controller to StartController--><path codeLine="59" d="M399.8131,496.8018 C381.0789,513.9221 359.8638,533.307 343.3046,548.4394 " fill="none" id="Controller-backto-StartController" style="stroke: #000000; stroke-width: 1.12;"/><polygon fill="none" points="394.6242,490.9229,416.4496,481.6,405.2026,502.4981,394.6242,490.9229" style="stroke: #000000; stroke-width: 1.12;"/><!--MD5=[dfabfd7c269c7ef3ab5bdd4c723fcdb8]
reverse link Controller to ResumeController--><path codeLine="60" d="M375.2672,488.5552 C317.9624,512.1894 258.5397,533.6184 213.0979,549.3354 " fill="none" id="Controller-backto-ResumeController" style="stroke: #000000; stroke-width: 1.12;"/><polygon fill="none" points="372.5646,481.1867,396.2538,479.7542,378.6283,495.647,372.5646,481.1867" style="stroke: #000000; stroke-width: 1.12;"/><!--MD5=[d45f03342f2432c669a4cb0ca24546da]
reverse link Controller to ProposeCombinationController--><path codeLine="61" d="M476.9027,500.2547 C488.6952,516.488 501.6469,534.3162 511.9061,548.4394 " fill="none" id="Controller-backto-ProposeCombinationController" style="stroke: #000000; stroke-width: 1.12;"/><polygon fill="none" points="470.1749,504.3315,463.353,481.6,482.8611,495.1162,470.1749,504.3315" style="stroke: #000000; stroke-width: 1.12;"/><!--MD5=[52567206b31f89064e4cdc4c3aea7b8d]
@startuml
skinparam {
    BoundaryBackgroundColor #629EF9
    BoundaryBorderColor black
    BoundaryFontSize 12
    BoundarySize 10
    ControlBackgroundColor #b5bd68
    ControlBorderColor #718c00
    EntityBackgroundColor #F2AC4E
    EntityBorderColor black
    ArrowColor black

}

package mastermind {

abstract class Mastermind
class ConsoleMastermind

package controllers {
    class Controller
    class ProposeCombinationController
    class ResumeController
    class StartController
}

package models {
    class Game
}

package views {

    class View
    class ConsoleView

    package console{
        class StartView
        class ProposedCombinationView
        class GameView
}



}
Mastermind *- - Game
Mastermind *- - View
Mastermind *- - -[#red]- StartController
Mastermind *- - -[#red]- ProposeCombinationController
Mastermind *- - -[#red]- ResumeController
Mastermind <|-up- ConsoleMastermind
View <|- - ConsoleView
View -[#red]-> StartController
View -[#red]-> ResumeController
View -[#red]-> ProposeCombinationController

ConsoleView *- - GameView
ConsoleView *- - StartView

GameView *- - ProposedCombinationView
Controller <|- - StartController
Controller <|- - ResumeController
Controller <|- - ProposeCombinationController


}


@enduml

PlantUML version 1.2020.20(Sat Nov 21 11:02:45 CET 2020)
(GPL source distribution)
Java Runtime: OpenJDK Runtime Environment
JVM: OpenJDK 64-Bit Server VM
Default Encoding: Cp1252
Language: en
Country: GB
--></g></svg>