<?xml version="1.0" encoding="UTF-8" standalone="no"?><svg xmlns="http://www.w3.org/2000/svg" xmlns:xlink="http://www.w3.org/1999/xlink" contentScriptType="application/ecmascript" contentStyleType="text/css" height="1111.04px" preserveAspectRatio="none" style="width:1285px;height:1111px;" version="1.1" viewBox="0 0 1285 1111" width="1285.76px" zoomAndPan="magnify"><defs><filter height="300%" id="f11gpeodmqgn5i" width="300%" x="-1" y="-1"><feGaussianBlur result="blurOut" stdDeviation="2.24"/><feColorMatrix in="blurOut" result="blurOut2" type="matrix" values="0 0 0 0 0 0 0 0 0 0 0 0 0 0 0 0 0 0 .4 0"/><feOffset dx="4.48" dy="4.48" in="blurOut2" result="blurOut3"/><feBlend in="SourceGraphic" in2="blurOut3" mode="normal"/></filter></defs><g><!--MD5=[b56d8ef9af079015670ad96965866810]
cluster mastermind--><polygon fill="#FFFFFF" filter="url(#f11gpeodmqgn5i)" points="17.92,6.72,116.48,6.72,124.32,33.1625,1266.72,33.1625,1266.72,1103.2,17.92,1103.2,17.92,6.72" style="stroke: #000000; stroke-width: 1.6800000000000002;"/><line style="stroke: #000000; stroke-width: 1.6800000000000002;" x1="17.92" x2="124.32" y1="33.1625" y2="33.1625"/><text fill="#000000" font-family="sans-serif" font-size="15.68" font-weight="bold" lengthAdjust="spacingAndGlyphs" textLength="91.84" x="22.4" y="25.2372">mastermind</text><!--MD5=[f4e70ef68289585296b9045165e58692]
cluster controllers--><polygon fill="#FFFFFF" filter="url(#f11gpeodmqgn5i)" points="567.84,292.32,660.8,292.32,668.64,318.7625,996.8,318.7625,996.8,925.12,567.84,925.12,567.84,292.32" style="stroke: #000000; stroke-width: 1.6800000000000002;"/><line style="stroke: #000000; stroke-width: 1.6800000000000002;" x1="567.84" x2="668.64" y1="318.7625" y2="318.7625"/><text fill="#000000" font-family="sans-serif" font-size="15.68" font-weight="bold" lengthAdjust="spacingAndGlyphs" textLength="86.24" x="572.32" y="310.8372">controllers</text><!--MD5=[a60570e4b426f702ccbb0d459e3b9417]
cluster models--><polygon fill="#FFFFFF" filter="url(#f11gpeodmqgn5i)" points="1023.68,813.12,1087.52,813.12,1095.36,839.5625,1239.84,839.5625,1239.84,1076.32,1023.68,1076.32,1023.68,813.12" style="stroke: #000000; stroke-width: 1.6800000000000002;"/><line style="stroke: #000000; stroke-width: 1.6800000000000002;" x1="1023.68" x2="1095.36" y1="839.5625" y2="839.5625"/><text fill="#000000" font-family="sans-serif" font-size="15.68" font-weight="bold" lengthAdjust="spacingAndGlyphs" textLength="57.12" x="1028.16" y="831.6372">models</text><!--MD5=[e2a75efa8a0f57c2afae8bf75386f79c]
cluster views--><polygon fill="#FFFFFF" filter="url(#f11gpeodmqgn5i)" points="215.04,300.16,267.68,300.16,275.52,326.6025,540.96,326.6025,540.96,952,215.04,952,215.04,300.16" style="stroke: #000000; stroke-width: 1.6800000000000002;"/><line style="stroke: #000000; stroke-width: 1.6800000000000002;" x1="215.04" x2="275.52" y1="326.6025" y2="326.6025"/><text fill="#000000" font-family="sans-serif" font-size="15.68" font-weight="bold" lengthAdjust="spacingAndGlyphs" textLength="45.92" x="219.52" y="318.6772">views</text><!--MD5=[4b7a55d430ce43d42ce9ebad9e6b4010]
cluster console--><polygon fill="#FFFFFF" filter="url(#f11gpeodmqgn5i)" points="241.92,658.56,311.36,658.56,319.2,685.0025,514.08,685.0025,514.08,925.12,241.92,925.12,241.92,658.56" style="stroke: #000000; stroke-width: 1.6800000000000002;"/><line style="stroke: #000000; stroke-width: 1.6800000000000002;" x1="241.92" x2="319.2" y1="685.0025" y2="685.0025"/><text fill="#000000" font-family="sans-serif" font-size="15.68" font-weight="bold" lengthAdjust="spacingAndGlyphs" textLength="62.72" x="246.4" y="677.0772">console</text><!--MD5=[7283a9eed84464550b6d5ebf39c68b05]
class Mastermind--><rect codeLine="20" fill="#FEFECE" filter="url(#f11gpeodmqgn5i)" height="53.76" id="Mastermind" style="stroke: #A80036; stroke-width: 1.6800000000000002;" width="107.52" x="377.44" y="47.04"/><ellipse cx="394.24" cy="64.96" fill="#A9DCDF" rx="12.32" ry="12.32" style="stroke: #A80036; stroke-width: 1.12;"/><path d="M396.2,66.64 L392.5075,66.64 L392.0175,67.76 L392.0175,67.76 L392.5425,67.76 L393.12,68.46 L393.12,68.88 L393.12,69.3 L392.5425,70 L392.0175,70 L389.9,70 L389.2175,70 L388.64,69.3 L388.64,68.88 L388.64,68.46 L389.2175,67.76 L389.9,67.76 L392.49,61.04 L391.51,61.04 L390.3375,61.04 L389.76,60.34 L389.76,59.92 L389.76,59.5 L390.3375,58.8 L391.51,58.8 L395.6225,58.8 L398.6325,67.76 L399.2625,67.76 L399.2625,67.76 L399.84,68.46 L399.84,68.88 L399.84,69.3 L399.2625,70 L398.6325,70 L396.515,70 L395.9375,70 L395.36,69.3 L395.36,68.88 L395.36,68.46 L395.9375,67.76 L396.515,67.76 L396.515,67.76 L396.2,66.64 Z M395.5875,64.4 L394.24,60.3925 L393.085,64.4 L395.5875,64.4 Z " fill="#000000"/><text fill="#000000" font-family="sans-serif" font-size="13.44" font-style="italic" lengthAdjust="spacingAndGlyphs" textLength="71.68" x="409.92" y="70.4594">Mastermind</text><line style="stroke: #A80036; stroke-width: 1.6800000000000002;" x1="378.56" x2="483.84" y1="82.88" y2="82.88"/><line style="stroke: #A80036; stroke-width: 1.6800000000000002;" x1="378.56" x2="483.84" y1="91.84" y2="91.84"/><!--MD5=[b42ceb2c5584a967df5f7acfe803d0f5]
class ConsoleMastermind--><rect codeLine="21" fill="#FEFECE" filter="url(#f11gpeodmqgn5i)" height="53.76" id="ConsoleMastermind" style="stroke: #A80036; stroke-width: 1.6800000000000002;" width="161.28" x="35.84" y="348.32"/><ellipse cx="52.64" cy="366.24" fill="#ADD1B2" rx="12.32" ry="12.32" style="stroke: #A80036; stroke-width: 1.12;"/><path d="M54.88,362.32 Q55.1075,361.76 55.37,361.48 Q55.6325,361.2 55.93,361.2 Q56.455,361.2 56.7875,361.515 Q57.12,361.83 57.12,362.565 L57.12,364.315 Q57.12,365.05 56.805,365.365 Q56.49,365.68 56,365.68 Q55.5625,365.68 55.2825,365.4875 Q55.0025,365.295 54.88,364.7875 Q54.8275,364.4375 54.635,364.245 Q54.285,363.8775 53.655,363.6675 Q53.025,363.44 52.395,363.44 Q51.6075,363.44 50.9425,363.755 Q50.295,364.07 49.7875,364.77 Q49.28,365.47 49.28,366.4325 L49.28,367.465 Q49.28,368.62 50.225,369.39 Q51.17,370.16 52.85,370.16 Q53.8475,370.16 54.5475,369.9325 Q54.95,369.81 55.405,369.4075 Q55.7025,369.18 55.86,369.11 Q56.0175,369.04 56.21,369.04 Q56.5775,369.04 56.84,369.3375 Q57.12,369.6175 57.12,370.02 Q57.12,370.405 56.735,370.86 Q56.175,371.525 55.2825,371.8925 Q54.11,372.4 52.675,372.4 Q50.995,372.4 49.6475,371.735 Q48.5625,371.21 47.7925,370.0725 Q47.04,368.935 47.04,367.5875 L47.04,366.3625 Q47.04,364.9625 47.705,363.7375 Q48.3875,362.5125 49.56,361.865 Q50.75,361.2 52.08,361.2 Q52.885,361.2 53.585,361.48 Q54.285,361.76 54.88,362.32 Z " fill="#000000"/><text fill="#000000" font-family="sans-serif" font-size="13.44" lengthAdjust="spacingAndGlyphs" textLength="125.44" x="68.32" y="371.7394">ConsoleMastermind</text><line style="stroke: #A80036; stroke-width: 1.6800000000000002;" x1="36.96" x2="196" y1="384.16" y2="384.16"/><line style="stroke: #A80036; stroke-width: 1.6800000000000002;" x1="36.96" x2="196" y1="393.12" y2="393.12"/><!--MD5=[1d7ba1c7002d54515419844fbd155368]
class Controller--><rect codeLine="24" fill="#FEFECE" filter="url(#f11gpeodmqgn5i)" height="69.2563" id="Controller" style="stroke: #A80036; stroke-width: 1.6800000000000002;" width="236.32" x="742" y="691.04"/><ellipse cx="825.16" cy="708.96" fill="#ADD1B2" rx="12.32" ry="12.32" style="stroke: #A80036; stroke-width: 1.12;"/><path d="M827.4,705.04 Q827.6275,704.48 827.89,704.2 Q828.1525,703.92 828.45,703.92 Q828.975,703.92 829.3075,704.235 Q829.64,704.55 829.64,705.285 L829.64,707.035 Q829.64,707.77 829.325,708.085 Q829.01,708.4 828.52,708.4 Q828.0825,708.4 827.8025,708.2075 Q827.5225,708.015 827.4,707.5075 Q827.3475,707.1575 827.155,706.965 Q826.805,706.5975 826.175,706.3875 Q825.545,706.16 824.915,706.16 Q824.1275,706.16 823.4625,706.475 Q822.815,706.79 822.3075,707.49 Q821.8,708.19 821.8,709.1525 L821.8,710.185 Q821.8,711.34 822.745,712.11 Q823.69,712.88 825.37,712.88 Q826.3675,712.88 827.0675,712.6525 Q827.47,712.53 827.925,712.1275 Q828.2225,711.9 828.38,711.83 Q828.5375,711.76 828.73,711.76 Q829.0975,711.76 829.36,712.0575 Q829.64,712.3375 829.64,712.74 Q829.64,713.125 829.255,713.58 Q828.695,714.245 827.8025,714.6125 Q826.63,715.12 825.195,715.12 Q823.515,715.12 822.1675,714.455 Q821.0825,713.93 820.3125,712.7925 Q819.56,711.655 819.56,710.3075 L819.56,709.0825 Q819.56,707.6825 820.225,706.4575 Q820.9075,705.2325 822.08,704.585 Q823.27,703.92 824.6,703.92 Q825.405,703.92 826.105,704.2 Q826.805,704.48 827.4,705.04 Z " fill="#000000"/><text fill="#000000" font-family="sans-serif" font-size="13.44" lengthAdjust="spacingAndGlyphs" textLength="60.48" x="848.12" y="714.4594">Controller</text><line style="stroke: #A80036; stroke-width: 1.6800000000000002;" x1="743.12" x2="977.2" y1="726.88" y2="726.88"/><line style="stroke: #A80036; stroke-width: 1.6800000000000002;" x1="743.12" x2="977.2" y1="735.84" y2="735.84"/><text fill="#008000" font-family="sans-serif" font-size="12.32" lengthAdjust="spacingAndGlyphs" textLength="222.88" x="748.72" y="753.1092">accept(ControllerVisitor controllerVisitior)</text><!--MD5=[ddc5120d7a2baaae02afcce9f14d4ffc]
class StateController--><rect codeLine="27" fill="#FEFECE" filter="url(#f11gpeodmqgn5i)" height="53.76" id="StateController" style="stroke: #A80036; stroke-width: 1.6800000000000002;" width="127.68" x="851.2" y="509.6"/><ellipse cx="868" cy="527.52" fill="#ADD1B2" rx="12.32" ry="12.32" style="stroke: #A80036; stroke-width: 1.12;"/><path d="M870.24,523.6 Q870.4675,523.04 870.73,522.76 Q870.9925,522.48 871.29,522.48 Q871.815,522.48 872.1475,522.795 Q872.48,523.11 872.48,523.845 L872.48,525.595 Q872.48,526.33 872.165,526.645 Q871.85,526.96 871.36,526.96 Q870.9225,526.96 870.6425,526.7675 Q870.3625,526.575 870.24,526.0675 Q870.1875,525.7175 869.995,525.525 Q869.645,525.1575 869.015,524.9475 Q868.385,524.72 867.755,524.72 Q866.9675,524.72 866.3025,525.035 Q865.655,525.35 865.1475,526.05 Q864.64,526.75 864.64,527.7125 L864.64,528.745 Q864.64,529.9 865.585,530.67 Q866.53,531.44 868.21,531.44 Q869.2075,531.44 869.9075,531.2125 Q870.31,531.09 870.765,530.6875 Q871.0625,530.46 871.22,530.39 Q871.3775,530.32 871.57,530.32 Q871.9375,530.32 872.2,530.6175 Q872.48,530.8975 872.48,531.3 Q872.48,531.685 872.095,532.14 Q871.535,532.805 870.6425,533.1725 Q869.47,533.68 868.035,533.68 Q866.355,533.68 865.0075,533.015 Q863.9225,532.49 863.1525,531.3525 Q862.4,530.215 862.4,528.8675 L862.4,527.6425 Q862.4,526.2425 863.065,525.0175 Q863.7475,523.7925 864.92,523.145 Q866.11,522.48 867.44,522.48 Q868.245,522.48 868.945,522.76 Q869.645,523.04 870.24,523.6 Z " fill="#000000"/><text fill="#000000" font-family="sans-serif" font-size="13.44" lengthAdjust="spacingAndGlyphs" textLength="91.84" x="883.68" y="533.0194">StateController</text><line style="stroke: #A80036; stroke-width: 1.6800000000000002;" x1="852.32" x2="977.76" y1="545.44" y2="545.44"/><line style="stroke: #A80036; stroke-width: 1.6800000000000002;" x1="852.32" x2="977.76" y1="554.4" y2="554.4"/><!--MD5=[42fa18dda7351a0ae87d9497de925436]
class Logic--><rect codeLine="28" fill="#FEFECE" filter="url(#f11gpeodmqgn5i)" height="53.76" id="Logic" style="stroke: #A80036; stroke-width: 1.6800000000000002;" width="69.44" x="902.72" y="348.32"/><ellipse cx="919.52" cy="366.24" fill="#ADD1B2" rx="12.32" ry="12.32" style="stroke: #A80036; stroke-width: 1.12;"/><path d="M921.76,362.32 Q921.9875,361.76 922.25,361.48 Q922.5125,361.2 922.81,361.2 Q923.335,361.2 923.6675,361.515 Q924,361.83 924,362.565 L924,364.315 Q924,365.05 923.685,365.365 Q923.37,365.68 922.88,365.68 Q922.4425,365.68 922.1625,365.4875 Q921.8825,365.295 921.76,364.7875 Q921.7075,364.4375 921.515,364.245 Q921.165,363.8775 920.535,363.6675 Q919.905,363.44 919.275,363.44 Q918.4875,363.44 917.8225,363.755 Q917.175,364.07 916.6675,364.77 Q916.16,365.47 916.16,366.4325 L916.16,367.465 Q916.16,368.62 917.105,369.39 Q918.05,370.16 919.73,370.16 Q920.7275,370.16 921.4275,369.9325 Q921.83,369.81 922.285,369.4075 Q922.5825,369.18 922.74,369.11 Q922.8975,369.04 923.09,369.04 Q923.4575,369.04 923.72,369.3375 Q924,369.6175 924,370.02 Q924,370.405 923.615,370.86 Q923.055,371.525 922.1625,371.8925 Q920.99,372.4 919.555,372.4 Q917.875,372.4 916.5275,371.735 Q915.4425,371.21 914.6725,370.0725 Q913.92,368.935 913.92,367.5875 L913.92,366.3625 Q913.92,364.9625 914.585,363.7375 Q915.2675,362.5125 916.44,361.865 Q917.63,361.2 918.96,361.2 Q919.765,361.2 920.465,361.48 Q921.165,361.76 921.76,362.32 Z " fill="#000000"/><text fill="#000000" font-family="sans-serif" font-size="13.44" lengthAdjust="spacingAndGlyphs" textLength="33.6" x="935.2" y="371.7394">Logic</text><line style="stroke: #A80036; stroke-width: 1.6800000000000002;" x1="903.84" x2="971.04" y1="384.16" y2="384.16"/><line style="stroke: #A80036; stroke-width: 1.6800000000000002;" x1="903.84" x2="971.04" y1="393.12" y2="393.12"/><!--MD5=[92433bfbd7559c1d4e4a44c9d1c48b0e]
class ProposeCombinationController--><rect codeLine="30" fill="#FEFECE" filter="url(#f11gpeodmqgn5i)" height="53.76" id="ProposeCombinationController" style="stroke: #A80036; stroke-width: 1.6800000000000002;" width="228.48" x="585.76" y="853.44"/><ellipse cx="602.56" cy="871.36" fill="#ADD1B2" rx="12.32" ry="12.32" style="stroke: #A80036; stroke-width: 1.12;"/><path d="M604.8,867.44 Q605.0275,866.88 605.29,866.6 Q605.5525,866.32 605.85,866.32 Q606.375,866.32 606.7075,866.635 Q607.04,866.95 607.04,867.685 L607.04,869.435 Q607.04,870.17 606.725,870.485 Q606.41,870.8 605.92,870.8 Q605.4825,870.8 605.2025,870.6075 Q604.9225,870.415 604.8,869.9075 Q604.7475,869.5575 604.555,869.365 Q604.205,868.9975 603.575,868.7875 Q602.945,868.56 602.315,868.56 Q601.5275,868.56 600.8625,868.875 Q600.215,869.19 599.7075,869.89 Q599.2,870.59 599.2,871.5525 L599.2,872.585 Q599.2,873.74 600.145,874.51 Q601.09,875.28 602.77,875.28 Q603.7675,875.28 604.4675,875.0525 Q604.87,874.93 605.325,874.5275 Q605.6225,874.3 605.78,874.23 Q605.9375,874.16 606.13,874.16 Q606.4975,874.16 606.76,874.4575 Q607.04,874.7375 607.04,875.14 Q607.04,875.525 606.655,875.98 Q606.095,876.645 605.2025,877.0125 Q604.03,877.52 602.595,877.52 Q600.915,877.52 599.5675,876.855 Q598.4825,876.33 597.7125,875.1925 Q596.96,874.055 596.96,872.7075 L596.96,871.4825 Q596.96,870.0825 597.625,868.8575 Q598.3075,867.6325 599.48,866.985 Q600.67,866.32 602,866.32 Q602.805,866.32 603.505,866.6 Q604.205,866.88 604.8,867.44 Z " fill="#000000"/><text fill="#000000" font-family="sans-serif" font-size="13.44" lengthAdjust="spacingAndGlyphs" textLength="192.64" x="618.24" y="876.8594">ProposeCombinationController</text><line style="stroke: #A80036; stroke-width: 1.6800000000000002;" x1="586.88" x2="813.12" y1="889.28" y2="889.28"/><line style="stroke: #A80036; stroke-width: 1.6800000000000002;" x1="586.88" x2="813.12" y1="898.24" y2="898.24"/><!--MD5=[47c371471411cfedeee61b1a5bdaee47]
class StartController--><rect codeLine="32" fill="#FEFECE" filter="url(#f11gpeodmqgn5i)" height="53.76" id="StartController" style="stroke: #A80036; stroke-width: 1.6800000000000002;" width="124.32" x="854" y="853.44"/><ellipse cx="870.8" cy="871.36" fill="#ADD1B2" rx="12.32" ry="12.32" style="stroke: #A80036; stroke-width: 1.12;"/><path d="M873.04,867.44 Q873.2675,866.88 873.53,866.6 Q873.7925,866.32 874.09,866.32 Q874.615,866.32 874.9475,866.635 Q875.28,866.95 875.28,867.685 L875.28,869.435 Q875.28,870.17 874.965,870.485 Q874.65,870.8 874.16,870.8 Q873.7225,870.8 873.4425,870.6075 Q873.1625,870.415 873.04,869.9075 Q872.9875,869.5575 872.795,869.365 Q872.445,868.9975 871.815,868.7875 Q871.185,868.56 870.555,868.56 Q869.7675,868.56 869.1025,868.875 Q868.455,869.19 867.9475,869.89 Q867.44,870.59 867.44,871.5525 L867.44,872.585 Q867.44,873.74 868.385,874.51 Q869.33,875.28 871.01,875.28 Q872.0075,875.28 872.7075,875.0525 Q873.11,874.93 873.565,874.5275 Q873.8625,874.3 874.02,874.23 Q874.1775,874.16 874.37,874.16 Q874.7375,874.16 875,874.4575 Q875.28,874.7375 875.28,875.14 Q875.28,875.525 874.895,875.98 Q874.335,876.645 873.4425,877.0125 Q872.27,877.52 870.835,877.52 Q869.155,877.52 867.8075,876.855 Q866.7225,876.33 865.9525,875.1925 Q865.2,874.055 865.2,872.7075 L865.2,871.4825 Q865.2,870.0825 865.865,868.8575 Q866.5475,867.6325 867.72,866.985 Q868.91,866.32 870.24,866.32 Q871.045,866.32 871.745,866.6 Q872.445,866.88 873.04,867.44 Z " fill="#000000"/><text fill="#000000" font-family="sans-serif" font-size="13.44" lengthAdjust="spacingAndGlyphs" textLength="88.48" x="886.48" y="876.8594">StartController</text><line style="stroke: #A80036; stroke-width: 1.6800000000000002;" x1="855.12" x2="977.2" y1="889.28" y2="889.28"/><line style="stroke: #A80036; stroke-width: 1.6800000000000002;" x1="855.12" x2="977.2" y1="898.24" y2="898.24"/><!--MD5=[202eb055b61e3635d6abeb6d1809ebdd]
class ControllerVisitor--><rect codeLine="34" fill="#FEFECE" filter="url(#f11gpeodmqgn5i)" height="84.7525" id="ControllerVisitor" style="stroke: #008000; stroke-width: 1.6800000000000002;" width="258.72" x="593.04" y="332.64"/><ellipse cx="668.36" cy="350.56" fill="#B4A7E5" rx="12.32" ry="12.32" style="stroke: #008000; stroke-width: 1.12;"/><path d="M669.48,347.2 L669.48,353.92 L671.72,353.92 L672.2625,353.92 L672.84,354.62 L672.84,355.04 L672.84,355.46 L672.2625,356.16 L671.72,356.16 L665,356.16 L664.4575,356.16 L663.88,355.46 L663.88,355.04 L663.88,354.62 L664.4575,353.92 L665,353.92 L667.24,353.92 L667.24,347.2 L665,347.2 L664.4575,347.2 L663.88,346.5 L663.88,346.08 L663.88,345.66 L664.4575,344.96 L665,344.96 L671.72,344.96 L672.2625,344.96 L672.84,345.66 L672.84,346.08 L672.84,346.5 L672.2625,347.2 L671.72,347.2 L669.48,347.2 Z " fill="#000000"/><text fill="#000000" font-family="sans-serif" font-size="13.44" font-style="italic" lengthAdjust="spacingAndGlyphs" textLength="98.56" x="691.32" y="356.0594">ControllerVisitor</text><line style="stroke: #008000; stroke-width: 1.6800000000000002;" x1="594.16" x2="850.64" y1="368.48" y2="368.48"/><line style="stroke: #008000; stroke-width: 1.6800000000000002;" x1="594.16" x2="850.64" y1="377.44" y2="377.44"/><text fill="#008000" font-family="sans-serif" font-size="12.32" lengthAdjust="spacingAndGlyphs" textLength="161.28" x="599.76" y="394.7092">visit(StartController controller)</text><text fill="#008000" font-family="sans-serif" font-size="12.32" lengthAdjust="spacingAndGlyphs" textLength="245.28" x="599.76" y="410.2055">visit(ProposeCombinationController controller)</text><!--MD5=[b6dcce5e5ef3c84b0b048d11301373dd]
class Game--><rect codeLine="41" fill="#FEFECE" filter="url(#f11gpeodmqgn5i)" height="53.76" id="Game" style="stroke: #A80036; stroke-width: 1.6800000000000002;" width="73.92" x="1041.6" y="853.44"/><ellipse cx="1058.4" cy="871.36" fill="#ADD1B2" rx="12.32" ry="12.32" style="stroke: #A80036; stroke-width: 1.12;"/><path d="M1060.64,867.44 Q1060.8675,866.88 1061.13,866.6 Q1061.3925,866.32 1061.69,866.32 Q1062.215,866.32 1062.5475,866.635 Q1062.88,866.95 1062.88,867.685 L1062.88,869.435 Q1062.88,870.17 1062.565,870.485 Q1062.25,870.8 1061.76,870.8 Q1061.3225,870.8 1061.0425,870.6075 Q1060.7625,870.415 1060.64,869.9075 Q1060.5875,869.5575 1060.395,869.365 Q1060.045,868.9975 1059.415,868.7875 Q1058.785,868.56 1058.155,868.56 Q1057.3675,868.56 1056.7025,868.875 Q1056.055,869.19 1055.5475,869.89 Q1055.04,870.59 1055.04,871.5525 L1055.04,872.585 Q1055.04,873.74 1055.985,874.51 Q1056.93,875.28 1058.61,875.28 Q1059.6075,875.28 1060.3075,875.0525 Q1060.71,874.93 1061.165,874.5275 Q1061.4625,874.3 1061.62,874.23 Q1061.7775,874.16 1061.97,874.16 Q1062.3375,874.16 1062.6,874.4575 Q1062.88,874.7375 1062.88,875.14 Q1062.88,875.525 1062.495,875.98 Q1061.935,876.645 1061.0425,877.0125 Q1059.87,877.52 1058.435,877.52 Q1056.755,877.52 1055.4075,876.855 Q1054.3225,876.33 1053.5525,875.1925 Q1052.8,874.055 1052.8,872.7075 L1052.8,871.4825 Q1052.8,870.0825 1053.465,868.8575 Q1054.1475,867.6325 1055.32,866.985 Q1056.51,866.32 1057.84,866.32 Q1058.645,866.32 1059.345,866.6 Q1060.045,866.88 1060.64,867.44 Z " fill="#000000"/><text fill="#000000" font-family="sans-serif" font-size="13.44" lengthAdjust="spacingAndGlyphs" textLength="38.08" x="1074.08" y="876.8594">Game</text><line style="stroke: #A80036; stroke-width: 1.6800000000000002;" x1="1042.72" x2="1114.4" y1="889.28" y2="889.28"/><line style="stroke: #A80036; stroke-width: 1.6800000000000002;" x1="1042.72" x2="1114.4" y1="898.24" y2="898.24"/><!--MD5=[60d6b92408f98aed8df94d5c6e04aa63]
class State--><rect codeLine="43" fill="#FEFECE" filter="url(#f11gpeodmqgn5i)" height="53.76" id="State" style="stroke: #A80036; stroke-width: 1.6800000000000002;" width="67.2" x="1154.72" y="853.44"/><ellipse cx="1171.52" cy="871.36" fill="#ADD1B2" rx="12.32" ry="12.32" style="stroke: #A80036; stroke-width: 1.12;"/><path d="M1173.76,867.44 Q1173.9875,866.88 1174.25,866.6 Q1174.5125,866.32 1174.81,866.32 Q1175.335,866.32 1175.6675,866.635 Q1176,866.95 1176,867.685 L1176,869.435 Q1176,870.17 1175.685,870.485 Q1175.37,870.8 1174.88,870.8 Q1174.4425,870.8 1174.1625,870.6075 Q1173.8825,870.415 1173.76,869.9075 Q1173.7075,869.5575 1173.515,869.365 Q1173.165,868.9975 1172.535,868.7875 Q1171.905,868.56 1171.275,868.56 Q1170.4875,868.56 1169.8225,868.875 Q1169.175,869.19 1168.6675,869.89 Q1168.16,870.59 1168.16,871.5525 L1168.16,872.585 Q1168.16,873.74 1169.105,874.51 Q1170.05,875.28 1171.73,875.28 Q1172.7275,875.28 1173.4275,875.0525 Q1173.83,874.93 1174.285,874.5275 Q1174.5825,874.3 1174.74,874.23 Q1174.8975,874.16 1175.09,874.16 Q1175.4575,874.16 1175.72,874.4575 Q1176,874.7375 1176,875.14 Q1176,875.525 1175.615,875.98 Q1175.055,876.645 1174.1625,877.0125 Q1172.99,877.52 1171.555,877.52 Q1169.875,877.52 1168.5275,876.855 Q1167.4425,876.33 1166.6725,875.1925 Q1165.92,874.055 1165.92,872.7075 L1165.92,871.4825 Q1165.92,870.0825 1166.585,868.8575 Q1167.2675,867.6325 1168.44,866.985 Q1169.63,866.32 1170.96,866.32 Q1171.765,866.32 1172.465,866.6 Q1173.165,866.88 1173.76,867.44 Z " fill="#000000"/><text fill="#000000" font-family="sans-serif" font-size="13.44" lengthAdjust="spacingAndGlyphs" textLength="31.36" x="1187.2" y="876.8594">State</text><line style="stroke: #A80036; stroke-width: 1.6800000000000002;" x1="1155.84" x2="1220.8" y1="889.28" y2="889.28"/><line style="stroke: #A80036; stroke-width: 1.6800000000000002;" x1="1155.84" x2="1220.8" y1="898.24" y2="898.24"/><!--MD5=[167506e288131cdf3986fedef83acd94]
class StateValue--><rect codeLine="44" fill="#FEFECE" filter="url(#f11gpeodmqgn5i)" height="53.76" id="StateValue" style="stroke: #A80036; stroke-width: 1.6800000000000002;" width="101.92" x="1119.44" y="1004.64"/><ellipse cx="1136.24" cy="1022.56" fill="#ADD1B2" rx="12.32" ry="12.32" style="stroke: #A80036; stroke-width: 1.12;"/><path d="M1138.48,1018.64 Q1138.7075,1018.08 1138.97,1017.8 Q1139.2325,1017.52 1139.53,1017.52 Q1140.055,1017.52 1140.3875,1017.835 Q1140.72,1018.15 1140.72,1018.885 L1140.72,1020.635 Q1140.72,1021.37 1140.405,1021.685 Q1140.09,1022 1139.6,1022 Q1139.1625,1022 1138.8825,1021.8075 Q1138.6025,1021.615 1138.48,1021.1075 Q1138.4275,1020.7575 1138.235,1020.565 Q1137.885,1020.1975 1137.255,1019.9875 Q1136.625,1019.76 1135.995,1019.76 Q1135.2075,1019.76 1134.5425,1020.075 Q1133.895,1020.39 1133.3875,1021.09 Q1132.88,1021.79 1132.88,1022.7525 L1132.88,1023.785 Q1132.88,1024.94 1133.825,1025.71 Q1134.77,1026.48 1136.45,1026.48 Q1137.4475,1026.48 1138.1475,1026.2525 Q1138.55,1026.13 1139.005,1025.7275 Q1139.3025,1025.5 1139.46,1025.43 Q1139.6175,1025.36 1139.81,1025.36 Q1140.1775,1025.36 1140.44,1025.6575 Q1140.72,1025.9375 1140.72,1026.34 Q1140.72,1026.725 1140.335,1027.18 Q1139.775,1027.845 1138.8825,1028.2125 Q1137.71,1028.72 1136.275,1028.72 Q1134.595,1028.72 1133.2475,1028.055 Q1132.1625,1027.53 1131.3925,1026.3925 Q1130.64,1025.255 1130.64,1023.9075 L1130.64,1022.6825 Q1130.64,1021.2825 1131.305,1020.0575 Q1131.9875,1018.8325 1133.16,1018.185 Q1134.35,1017.52 1135.68,1017.52 Q1136.485,1017.52 1137.185,1017.8 Q1137.885,1018.08 1138.48,1018.64 Z " fill="#000000"/><text fill="#000000" font-family="sans-serif" font-size="13.44" lengthAdjust="spacingAndGlyphs" textLength="66.08" x="1151.92" y="1028.0594">StateValue</text><line style="stroke: #A80036; stroke-width: 1.6800000000000002;" x1="1120.56" x2="1220.24" y1="1040.48" y2="1040.48"/><line style="stroke: #A80036; stroke-width: 1.6800000000000002;" x1="1120.56" x2="1220.24" y1="1049.44" y2="1049.44"/><!--MD5=[c045e12321b83266d36d22b9096c24ea]
class View--><rect codeLine="49" fill="#FEFECE" filter="url(#f11gpeodmqgn5i)" height="69.2563" id="View" style="stroke: #A80036; stroke-width: 1.6800000000000002;" width="168" x="347.2" y="340.48"/><ellipse cx="411.88" cy="358.4" fill="#A9DCDF" rx="12.32" ry="12.32" style="stroke: #A80036; stroke-width: 1.12;"/><path d="M413.84,360.08 L410.1475,360.08 L409.6575,361.2 L409.6575,361.2 L410.1825,361.2 L410.76,361.9 L410.76,362.32 L410.76,362.74 L410.1825,363.44 L409.6575,363.44 L407.54,363.44 L406.8575,363.44 L406.28,362.74 L406.28,362.32 L406.28,361.9 L406.8575,361.2 L407.54,361.2 L410.13,354.48 L409.15,354.48 L407.9775,354.48 L407.4,353.78 L407.4,353.36 L407.4,352.94 L407.9775,352.24 L409.15,352.24 L413.2625,352.24 L416.2725,361.2 L416.9025,361.2 L416.9025,361.2 L417.48,361.9 L417.48,362.32 L417.48,362.74 L416.9025,363.44 L416.2725,363.44 L414.155,363.44 L413.5775,363.44 L413,362.74 L413,362.32 L413,361.9 L413.5775,361.2 L414.155,361.2 L414.155,361.2 L413.84,360.08 Z M413.2275,357.84 L411.88,353.8325 L410.725,357.84 L413.2275,357.84 Z " fill="#000000"/><text fill="#000000" font-family="sans-serif" font-size="13.44" font-style="italic" lengthAdjust="spacingAndGlyphs" textLength="29.12" x="434.84" y="363.8994">View</text><line style="stroke: #A80036; stroke-width: 1.6800000000000002;" x1="348.32" x2="514.08" y1="376.32" y2="376.32"/><line style="stroke: #A80036; stroke-width: 1.6800000000000002;" x1="348.32" x2="514.08" y1="385.28" y2="385.28"/><text fill="#000000" font-family="sans-serif" font-size="12.32" lengthAdjust="spacingAndGlyphs" textLength="154.56" x="353.92" y="402.5492">interact(Controller controller)</text><!--MD5=[51d729737bd84a4c43136dd336c2eea1]
class ConsoleView--><rect codeLine="53" fill="#FEFECE" filter="url(#f11gpeodmqgn5i)" height="100.2488" id="ConsoleView" style="stroke: #A80036; stroke-width: 1.6800000000000002;" width="258.72" x="263.76" y="486.08"/><ellipse cx="347.48" cy="504" fill="#ADD1B2" rx="12.32" ry="12.32" style="stroke: #A80036; stroke-width: 1.12;"/><path d="M349.72,500.08 Q349.9475,499.52 350.21,499.24 Q350.4725,498.96 350.77,498.96 Q351.295,498.96 351.6275,499.275 Q351.96,499.59 351.96,500.325 L351.96,502.075 Q351.96,502.81 351.645,503.125 Q351.33,503.44 350.84,503.44 Q350.4025,503.44 350.1225,503.2475 Q349.8425,503.055 349.72,502.5475 Q349.6675,502.1975 349.475,502.005 Q349.125,501.6375 348.495,501.4275 Q347.865,501.2 347.235,501.2 Q346.4475,501.2 345.7825,501.515 Q345.135,501.83 344.6275,502.53 Q344.12,503.23 344.12,504.1925 L344.12,505.225 Q344.12,506.38 345.065,507.15 Q346.01,507.92 347.69,507.92 Q348.6875,507.92 349.3875,507.6925 Q349.79,507.57 350.245,507.1675 Q350.5425,506.94 350.7,506.87 Q350.8575,506.8 351.05,506.8 Q351.4175,506.8 351.68,507.0975 Q351.96,507.3775 351.96,507.78 Q351.96,508.165 351.575,508.62 Q351.015,509.285 350.1225,509.6525 Q348.95,510.16 347.515,510.16 Q345.835,510.16 344.4875,509.495 Q343.4025,508.97 342.6325,507.8325 Q341.88,506.695 341.88,505.3475 L341.88,504.1225 Q341.88,502.7225 342.545,501.4975 Q343.2275,500.2725 344.4,499.625 Q345.59,498.96 346.92,498.96 Q347.725,498.96 348.425,499.24 Q349.125,499.52 349.72,500.08 Z " fill="#000000"/><text fill="#000000" font-family="sans-serif" font-size="13.44" lengthAdjust="spacingAndGlyphs" textLength="81.76" x="370.44" y="509.4994">ConsoleView</text><line style="stroke: #A80036; stroke-width: 1.6800000000000002;" x1="264.88" x2="521.36" y1="521.92" y2="521.92"/><line style="stroke: #A80036; stroke-width: 1.6800000000000002;" x1="264.88" x2="521.36" y1="530.88" y2="530.88"/><text fill="#000000" font-family="sans-serif" font-size="12.32" lengthAdjust="spacingAndGlyphs" textLength="154.56" x="270.48" y="548.1492">interact(Controller controller)</text><text fill="#008000" font-family="sans-serif" font-size="12.32" lengthAdjust="spacingAndGlyphs" textLength="161.28" x="270.48" y="563.6455">visit(StartController controller)</text><text fill="#008000" font-family="sans-serif" font-size="12.32" lengthAdjust="spacingAndGlyphs" textLength="245.28" x="270.48" y="579.1417">visit(ProposeCombinationController controller)</text><!--MD5=[443c52daef265809fdf31be84fc8ae4a]
class StartView--><rect codeLine="60" fill="#FEFECE" filter="url(#f11gpeodmqgn5i)" height="53.76" id="StartView" style="stroke: #A80036; stroke-width: 1.6800000000000002;" width="92.96" x="402.64" y="698.88"/><ellipse cx="419.44" cy="716.8" fill="#ADD1B2" rx="12.32" ry="12.32" style="stroke: #A80036; stroke-width: 1.12;"/><path d="M421.68,712.88 Q421.9075,712.32 422.17,712.04 Q422.4325,711.76 422.73,711.76 Q423.255,711.76 423.5875,712.075 Q423.92,712.39 423.92,713.125 L423.92,714.875 Q423.92,715.61 423.605,715.925 Q423.29,716.24 422.8,716.24 Q422.3625,716.24 422.0825,716.0475 Q421.8025,715.855 421.68,715.3475 Q421.6275,714.9975 421.435,714.805 Q421.085,714.4375 420.455,714.2275 Q419.825,714 419.195,714 Q418.4075,714 417.7425,714.315 Q417.095,714.63 416.5875,715.33 Q416.08,716.03 416.08,716.9925 L416.08,718.025 Q416.08,719.18 417.025,719.95 Q417.97,720.72 419.65,720.72 Q420.6475,720.72 421.3475,720.4925 Q421.75,720.37 422.205,719.9675 Q422.5025,719.74 422.66,719.67 Q422.8175,719.6 423.01,719.6 Q423.3775,719.6 423.64,719.8975 Q423.92,720.1775 423.92,720.58 Q423.92,720.965 423.535,721.42 Q422.975,722.085 422.0825,722.4525 Q420.91,722.96 419.475,722.96 Q417.795,722.96 416.4475,722.295 Q415.3625,721.77 414.5925,720.6325 Q413.84,719.495 413.84,718.1475 L413.84,716.9225 Q413.84,715.5225 414.505,714.2975 Q415.1875,713.0725 416.36,712.425 Q417.55,711.76 418.88,711.76 Q419.685,711.76 420.385,712.04 Q421.085,712.32 421.68,712.88 Z " fill="#000000"/><text fill="#000000" font-family="sans-serif" font-size="13.44" lengthAdjust="spacingAndGlyphs" textLength="57.12" x="435.12" y="722.2994">StartView</text><line style="stroke: #A80036; stroke-width: 1.6800000000000002;" x1="403.76" x2="494.48" y1="734.72" y2="734.72"/><line style="stroke: #A80036; stroke-width: 1.6800000000000002;" x1="403.76" x2="494.48" y1="743.68" y2="743.68"/><!--MD5=[0523615cfa2fa70c8ab764401f29a299]
class ProposedCombinationView--><rect codeLine="61" fill="#FEFECE" filter="url(#f11gpeodmqgn5i)" height="53.76" id="ProposedCombinationView" style="stroke: #A80036; stroke-width: 1.6800000000000002;" width="204.96" x="274.96" y="853.44"/><ellipse cx="291.76" cy="871.36" fill="#ADD1B2" rx="12.32" ry="12.32" style="stroke: #A80036; stroke-width: 1.12;"/><path d="M294,867.44 Q294.2275,866.88 294.49,866.6 Q294.7525,866.32 295.05,866.32 Q295.575,866.32 295.9075,866.635 Q296.24,866.95 296.24,867.685 L296.24,869.435 Q296.24,870.17 295.925,870.485 Q295.61,870.8 295.12,870.8 Q294.6825,870.8 294.4025,870.6075 Q294.1225,870.415 294,869.9075 Q293.9475,869.5575 293.755,869.365 Q293.405,868.9975 292.775,868.7875 Q292.145,868.56 291.515,868.56 Q290.7275,868.56 290.0625,868.875 Q289.415,869.19 288.9075,869.89 Q288.4,870.59 288.4,871.5525 L288.4,872.585 Q288.4,873.74 289.345,874.51 Q290.29,875.28 291.97,875.28 Q292.9675,875.28 293.6675,875.0525 Q294.07,874.93 294.525,874.5275 Q294.8225,874.3 294.98,874.23 Q295.1375,874.16 295.33,874.16 Q295.6975,874.16 295.96,874.4575 Q296.24,874.7375 296.24,875.14 Q296.24,875.525 295.855,875.98 Q295.295,876.645 294.4025,877.0125 Q293.23,877.52 291.795,877.52 Q290.115,877.52 288.7675,876.855 Q287.6825,876.33 286.9125,875.1925 Q286.16,874.055 286.16,872.7075 L286.16,871.4825 Q286.16,870.0825 286.825,868.8575 Q287.5075,867.6325 288.68,866.985 Q289.87,866.32 291.2,866.32 Q292.005,866.32 292.705,866.6 Q293.405,866.88 294,867.44 Z " fill="#000000"/><text fill="#000000" font-family="sans-serif" font-size="13.44" lengthAdjust="spacingAndGlyphs" textLength="169.12" x="307.44" y="876.8594">ProposedCombinationView</text><line style="stroke: #A80036; stroke-width: 1.6800000000000002;" x1="276.08" x2="478.8" y1="889.28" y2="889.28"/><line style="stroke: #A80036; stroke-width: 1.6800000000000002;" x1="276.08" x2="478.8" y1="898.24" y2="898.24"/><!--MD5=[5d3822d29342fbd355d1b65ea3562ec9]
class GameView--><rect codeLine="62" fill="#FEFECE" filter="url(#f11gpeodmqgn5i)" height="53.76" id="GameView" style="stroke: #A80036; stroke-width: 1.6800000000000002;" width="103.04" x="259.84" y="698.88"/><ellipse cx="276.64" cy="716.8" fill="#ADD1B2" rx="12.32" ry="12.32" style="stroke: #A80036; stroke-width: 1.12;"/><path d="M278.88,712.88 Q279.1075,712.32 279.37,712.04 Q279.6325,711.76 279.93,711.76 Q280.455,711.76 280.7875,712.075 Q281.12,712.39 281.12,713.125 L281.12,714.875 Q281.12,715.61 280.805,715.925 Q280.49,716.24 280,716.24 Q279.5625,716.24 279.2825,716.0475 Q279.0025,715.855 278.88,715.3475 Q278.8275,714.9975 278.635,714.805 Q278.285,714.4375 277.655,714.2275 Q277.025,714 276.395,714 Q275.6075,714 274.9425,714.315 Q274.295,714.63 273.7875,715.33 Q273.28,716.03 273.28,716.9925 L273.28,718.025 Q273.28,719.18 274.225,719.95 Q275.17,720.72 276.85,720.72 Q277.8475,720.72 278.5475,720.4925 Q278.95,720.37 279.405,719.9675 Q279.7025,719.74 279.86,719.67 Q280.0175,719.6 280.21,719.6 Q280.5775,719.6 280.84,719.8975 Q281.12,720.1775 281.12,720.58 Q281.12,720.965 280.735,721.42 Q280.175,722.085 279.2825,722.4525 Q278.11,722.96 276.675,722.96 Q274.995,722.96 273.6475,722.295 Q272.5625,721.77 271.7925,720.6325 Q271.04,719.495 271.04,718.1475 L271.04,716.9225 Q271.04,715.5225 271.705,714.2975 Q272.3875,713.0725 273.56,712.425 Q274.75,711.76 276.08,711.76 Q276.885,711.76 277.585,712.04 Q278.285,712.32 278.88,712.88 Z " fill="#000000"/><text fill="#000000" font-family="sans-serif" font-size="13.44" lengthAdjust="spacingAndGlyphs" textLength="67.2" x="292.32" y="722.2994">GameView</text><line style="stroke: #A80036; stroke-width: 1.6800000000000002;" x1="260.96" x2="361.76" y1="734.72" y2="734.72"/><line style="stroke: #A80036; stroke-width: 1.6800000000000002;" x1="260.96" x2="361.76" y1="743.68" y2="743.68"/><!--MD5=[a1b33916ae7328de9d8df5a2edffcf3b]
reverse link Mastermind to View--><path codeLine="69" d="M431.2,115.7296 C431.2,175.2274 431.2,284.891 431.2,340.2392 " fill="none" id="Mastermind-backto-View" style="stroke: #000000; stroke-width: 1.12;"/><polygon fill="#000000" points="431.2,101.0542,426.72,107.7742,431.2,114.4942,435.68,107.7742,431.2,101.0542" style="stroke: #000000; stroke-width: 1.12;"/><!--MD5=[68ecb4c13504d415978561d0da067088]
reverse link Mastermind to Logic--><path codeLine="70" d="M499.2165,95.3904 C591.0946,125.3549 756.5522,188.2843 871.36,283.36 C893.2706,301.5051 911.6822,328.4602 923.4602,348.2752 " fill="none" id="Mastermind-backto-Logic" style="stroke: #000000; stroke-width: 1.12;"/><polygon fill="#000000" points="485.1213,90.8645,490.1501,97.1843,497.9179,94.973,492.8891,88.6532,485.1213,90.8645" style="stroke: #000000; stroke-width: 1.12;"/><!--MD5=[00344b25554080b223ed48afc3efe932]
reverse link Mastermind to ConsoleMastermind--><path codeLine="71" d="M387.2053,116.8429 C321.253,179.5091 198.6746,295.9802 144.0197,347.9123 " fill="none" id="Mastermind-backto-ConsoleMastermind" style="stroke: #000000; stroke-width: 1.12;"/><polygon fill="none" points="382.1821,110.8005,403.8216,101.0542,392.9834,122.1674,382.1821,110.8005" style="stroke: #000000; stroke-width: 1.12;"/><!--MD5=[a63dd7f30baaeb88fc8dd2ca46e0cc37]
reverse link View to ConsoleView--><path codeLine="72" d="M417.8978,431.8754 C413.681,449.4874 409.0498,468.8309 404.9438,485.9781 " fill="none" id="View-backto-ConsoleView" style="stroke: #000000; stroke-width: 1.12;"/><polygon fill="none" points="410.284,430.0072,423.1237,410.0488,425.5328,433.6584,410.284,430.0072" style="stroke: #000000; stroke-width: 1.12;"/><!--MD5=[f165b4dc51fb23ae2f8abee7a18efa47]
reverse link ControllerVisitor to View--><path codeLine="73" d="M570.5683,375.2 C552.1701,375.2 533.773,375.2 515.3747,375.2 " fill="none" id="ControllerVisitor-backto-View" style="stroke: #000000; stroke-width: 1.12;"/><polygon fill="none" points="570.6098,367.36,593.0098,375.2,570.6098,383.04,570.6098,367.36" style="stroke: #000000; stroke-width: 1.12;"/><!--MD5=[57070e04af1ab79c5a79c6aefe469b18]
link View to Controller--><path codeLine="74" d="M472.7206,410.0354 C553.28,475.4501 730.2344,619.1394 814.1997,687.3205 " fill="none" id="View-to-Controller" style="stroke: #000000; stroke-width: 1.12; stroke-dasharray: 7.0,7.0;"/><polygon fill="#000000" points="818.617,690.9067,813.6158,681.0749,814.2696,687.3767,807.9678,688.0306,818.617,690.9067" style="stroke: #000000; stroke-width: 1.12;"/><!--MD5=[9c67bf499d44dfc8371d2921d66d8312]
link ConsoleMastermind to ConsoleView--><path codeLine="76" d="M161.5432,402.2267 C199.5067,424.0522 255.0162,455.9643 302.1704,483.0728 " fill="none" id="ConsoleMastermind-to-ConsoleView" style="stroke: #000000; stroke-width: 1.12; stroke-dasharray: 7.0,7.0;"/><polygon fill="#000000" points="307.2899,486.0162,300.7822,477.1096,302.4345,483.2261,296.318,484.8784,307.2899,486.0162" style="stroke: #000000; stroke-width: 1.12;"/><!--MD5=[80ab1a49ad0d9c1b1494d1e2d9def107]
reverse link Logic to Game--><path codeLine="78" d="M962.4429,414.8827 C974.7158,435.3317 988.7886,461.2944 997.92,486.08 C1046.9323,619.1192 1068.9795,789.0602 1075.9605,853.1667 " fill="none" id="Logic-backto-Game" style="stroke: #000000; stroke-width: 1.12;"/><polygon fill="#000000" points="954.707,402.3096,954.4126,410.3807,961.7496,413.7567,962.044,405.6856,954.707,402.3096" style="stroke: #000000; stroke-width: 1.12;"/><!--MD5=[63338b9150ac7d4921123327ce1a1ef0]
reverse link Logic to State--><path codeLine="79" d="M970.9056,413.663 C988.1189,434.0896 1008.5925,460.4051 1023.68,486.08 C1100.157,616.2195 1159.3008,788.5842 1180.1664,853.2384 " fill="none" id="Logic-backto-State" style="stroke: #000000; stroke-width: 1.12;"/><polygon fill="#000000" points="961.2131,402.3667,962.1888,410.384,969.9646,412.567,968.9889,404.5497,961.2131,402.3667" style="stroke: #000000; stroke-width: 1.12;"/><text fill="#000000" font-family="sans-serif" font-size="14.56" lengthAdjust="spacingAndGlyphs" textLength="79.52" x="1100.96" y="636.7145">currentState</text><!--MD5=[9f8def4ec7b3205f74636e4f624f2758]
reverse link Logic to StateController--><path codeLine="80" d="M931.7246,416.901 C927.6221,446.0243 922.2181,484.4 918.6867,509.4645 " fill="none" id="Logic-backto-StateController" style="stroke: #000000; stroke-width: 1.12;"/><polygon fill="#000000" points="933.791,402.2267,928.4177,408.2563,931.9168,415.5354,937.2901,409.5058,933.791,402.2267" style="stroke: #000000; stroke-width: 1.12;"/><text fill="#000000" font-family="sans-serif" font-size="14.56" lengthAdjust="spacingAndGlyphs" textLength="5.6" x="913.3037" y="497.4907">*</text><!--MD5=[0e82a18b80c0924e71b1cbbc617182b0]
reverse link StateController to Controller--><path codeLine="81" d="M903.1781,578.0275 C893.2829,611.753 879.3445,659.2555 870.0451,690.9515 " fill="none" id="StateController-backto-Controller" style="stroke: #000000; stroke-width: 1.12;"/><polygon fill="#000000" points="907.4094,563.6075,901.2187,568.7944,903.6256,576.5039,909.8163,571.317,907.4094,563.6075" style="stroke: #000000; stroke-width: 1.12;"/><!--MD5=[05678260e38141ca768f56112cacdaaf]
reverse link StateController to State--><path codeLine="82" d="M947.2277,574.5611 C991.0723,625.3352 1071.4626,719.9618 1135.68,804.16 C1147.8432,820.1032 1160.7792,838.5306 1170.792,853.1342 " fill="none" id="StateController-backto-State" style="stroke: #000000; stroke-width: 1.12;"/><polygon fill="#000000" points="937.6718,563.5202,938.6818,571.5332,946.4669,573.6829,945.4569,565.6698,937.6718,563.5202" style="stroke: #000000; stroke-width: 1.12;"/><!--MD5=[27021d7192df067fe1906bbc86d987c3]
reverse link ConsoleView to GameView--><path codeLine="84" d="M365.5635,600.6403 C350.9778,634.0062 333.853,673.1838 322.8154,698.4342 " fill="none" id="ConsoleView-backto-GameView" style="stroke: #000000; stroke-width: 1.12;"/><polygon fill="#000000" points="371.4245,587.2317,364.6279,591.5946,366.041,599.5464,372.8377,595.1835,371.4245,587.2317" style="stroke: #000000; stroke-width: 1.12;"/><!--MD5=[56bdcb266f45864af3131be201f47f99]
reverse link ConsoleView to StartView--><path codeLine="85" d="M412.2608,601.5318 C422.193,634.7018 433.7816,673.4078 441.2744,698.4342 " fill="none" id="ConsoleView-backto-StartView" style="stroke: #000000; stroke-width: 1.12;"/><polygon fill="#000000" points="407.9802,587.2317,405.6159,594.9543,411.8352,600.1069,414.1994,592.3843,407.9802,587.2317" style="stroke: #000000; stroke-width: 1.12;"/><!--MD5=[dbdcaab34fb81d463c2fea3758e8e729]
link ConsoleView to StartController--><path codeLine="86" d="M474.5776,587.1331 C505.1861,606.1877 540.0898,628.4499 571.2,649.6 C640.1147,696.453 649.4298,720.235 722.4,760.48 C768.7803,786.0597 788.2795,776.2261 833.28,804.16 C853.3291,816.6054 873.0266,834.1525 888.1858,849.1504 " fill="none" id="ConsoleView-to-StartController" style="stroke: #008000; stroke-width: 1.12; stroke-dasharray: 7.0,7.0;"/><polygon fill="#008000" points="892.3365,853.3067,888.3829,843.0088,888.3791,849.3445,882.0434,849.3407,892.3365,853.3067" style="stroke: #008000; stroke-width: 1.12;"/><!--MD5=[2c02b91f9520399315aabffb74985b38]
link ConsoleView to ProposeCombinationController--><path codeLine="87" d="M449.8144,587.0099 C470.6509,605.9592 494.0354,628.1811 514.08,649.6 C577.313,717.1696 643.7659,803.5429 677.4902,848.6509 " fill="none" id="ConsoleView-to-ProposeCombinationController" style="stroke: #008000; stroke-width: 1.12; stroke-dasharray: 7.0,7.0;"/><polygon fill="#008000" points="681.044,853.4154,678.6064,842.6573,677.695,848.9271,671.4252,848.0157,681.044,853.4154" style="stroke: #008000; stroke-width: 1.12;"/><!--MD5=[1a2a8fca0b6e363b5cf9d4bd576f3fc8]
reverse link GameView to ProposedCombinationView--><path codeLine="89" d="M328.4053,766.1707 C340.2885,793.5626 355.8094,829.3398 366.175,853.2339 " fill="none" id="GameView-backto-ProposedCombinationView" style="stroke: #000000; stroke-width: 1.12;"/><polygon fill="#000000" points="322.5701,752.7195,321.1346,760.6674,327.919,765.0493,329.3545,757.1014,322.5701,752.7195" style="stroke: #000000; stroke-width: 1.12;"/><!--MD5=[7ae0dacd428787fa171ae8b386981743]
link GameView to ProposeCombinationController--><path codeLine="90" d="M363.188,751.8336 C369.8296,754.8363 376.5675,757.7886 383.04,760.48 C424.6256,777.7706 435.1794,782.0053 478.24,795.2 C493.939,800.0104 498.465,799.0842 514.08,804.16 C555.7272,817.6986 601.3437,836.0542 636.9698,851.2224 " fill="none" id="GameView-to-ProposeCombinationController" style="stroke: #000000; stroke-width: 1.12; stroke-dasharray: 7.0,7.0;"/><polygon fill="#000000" points="642.152,853.4355,634.643,845.3552,637.0024,851.2352,631.1224,853.5946,642.152,853.4355" style="stroke: #000000; stroke-width: 1.12;"/><!--MD5=[3ad0bd69ff7a093d2131bc46b011fe78]
link StartView to StartController--><path codeLine="91" d="M495.8677,745.9726 C537.9405,762.2014 601.8578,784.5197 659.68,795.2 C697.667,802.2168 797.6058,789.3424 833.28,804.16 C856.2187,813.6878 876.9342,832.4411 891.9176,848.8155 " fill="none" id="StartView-to-StartController" style="stroke: #000000; stroke-width: 1.12; stroke-dasharray: 7.0,7.0;"/><polygon fill="#000000" points="895.9888,853.3616,892.6028,842.8634,892.2534,849.1895,885.9274,848.8401,895.9888,853.3616" style="stroke: #000000; stroke-width: 1.12;"/><!--MD5=[1201a740707a6d9a77245a23c16c366f]
link ProposedCombinationView to ProposeCombinationController--><path codeLine="92" d="M480.1306,880.32 C513.2826,880.32 546.4346,880.32 579.5877,880.32 " fill="none" id="ProposedCombinationView-to-ProposeCombinationController" style="stroke: #000000; stroke-width: 1.12; stroke-dasharray: 7.0,7.0;"/><polygon fill="#000000" points="585.3411,880.32,575.2611,875.84,579.7411,880.32,575.2611,884.8,585.3411,880.32" style="stroke: #000000; stroke-width: 1.12;"/><!--MD5=[354d6deacb49030493b7fd8cb23ebdce]
reverse link Controller to StartController--><path codeLine="93" d="M880.3491,781.7947 C889.2789,806.0842 899.3611,833.5074 906.547,853.0536 " fill="none" id="Controller-backto-StartController" style="stroke: #000000; stroke-width: 1.12;"/><polygon fill="none" points="872.9594,784.4144,872.5886,760.685,887.6762,779.0037,872.9594,784.4144" style="stroke: #000000; stroke-width: 1.12;"/><!--MD5=[d45f03342f2432c669a4cb0ca24546da]
reverse link Controller to ProposeCombinationController--><path codeLine="94" d="M808.22,776.2776 C781.3411,801.8405 749.6171,832.0122 727.4926,853.0536 " fill="none" id="Controller-backto-ProposeCombinationController" style="stroke: #000000; stroke-width: 1.12;"/><polygon fill="none" points="802.9806,770.4402,824.6157,760.685,813.7864,781.8026,802.9806,770.4402" style="stroke: #000000; stroke-width: 1.12;"/><!--MD5=[af3c341f28b4ad1078e652ece2043f79]
link Controller to Game--><path codeLine="95" d="M914.5573,760.489 C933.8952,771.9802 955.9928,784.5992 976.64,795.2 C985.3626,799.6789 988.6005,798.7829 996.8,804.16 C1016.2398,816.9078 1035.5173,834.3082 1050.467,849.1437 " fill="none" id="Controller-to-Game" style="stroke: #000000; stroke-width: 1.12;"/><polygon fill="#000000" points="1054.5651,853.2541,1050.622,842.9522,1050.6117,849.2879,1044.2761,849.2776,1054.5651,853.2541" style="stroke: #000000; stroke-width: 1.12;"/><!--MD5=[680da7a522096492fc62467c7a6dd068]
link Controller to State--><path codeLine="96" d="M924.5376,760.5091 C952.5365,773.5974 986.179,787.3197 1018.08,795.2 C1043.5242,801.4854 1112.9037,791.1926 1135.68,804.16 C1152.9504,813.9925 1165.8976,832.0894 1174.6336,848.0472 " fill="none" id="Controller-to-State" style="stroke: #000000; stroke-width: 1.12;"/><polygon fill="#000000" points="1177.4336,853.3627,1176.6875,842.3573,1174.8183,848.4109,1168.7646,846.5418,1177.4336,853.3627" style="stroke: #000000; stroke-width: 1.12;"/><!--MD5=[159ec9f8adfff7f9b422ced66bda5b65]
reverse link State to StateValue--><path codeLine="97" d="M1183.4592,921.8597 C1180.3008,948.0778 1176.2912,981.4717 1173.5472,1004.2502 " fill="none" id="State-backto-StateValue" style="stroke: #000000; stroke-width: 1.12;"/><polygon fill="#000000" points="1185.1952,907.387,1179.945,913.5241,1183.5907,920.7309,1188.8409,914.5938,1185.1952,907.387" style="stroke: #000000; stroke-width: 1.12;"/><!--MD5=[c880591f8a86e67f5e78b8a5d596082e]
@startuml
skinparam {
    BoundaryBackgroundColor #629EF9
    BoundaryBorderColor black
    BoundaryFontSize 12
    BoundarySize 10
    ControlBackgroundColor #b5bd68
    ControlBorderColor #718c00
    EntityBackgroundColor #F2AC4E
    EntityBorderColor black
    ArrowColor black
}

hide stereotype
skinparam class {
    BorderColor<<new>> green
}

package mastermind {

abstract class Mastermind
class ConsoleMastermind

package controllers {
    class Controller {
        <color:green>accept(ControllerVisitor controllerVisitior)
    }
    class StateController
    class Logic {
    }
    class ProposeCombinationController{
    }
    class StartController{
    }
    interface ControllerVisitor <<new>>{
        <color:green>visit(StartController controller)
        <color:green>visit(ProposeCombinationController controller)
    }

}
package models {
    class Game

    class State
    class StateValue
}

package views {

    Abstract View {
        interact(Controller controller)
    }

    class ConsoleView {
        interact(Controller controller)
        <color:green>visit(StartController controller)
        <color:green>visit(ProposeCombinationController controller)
    }

    package console{
        class StartView
        class ProposedCombinationView
        class GameView
}



}

Mastermind *- - View
Mastermind *- - - - Logic
Mastermind <|- - ConsoleMastermind
View <|- - ConsoleView
ControllerVisitor <|- - View
View ..> Controller

ConsoleMastermind ..> ConsoleView

Logic *- - Game
Logic *- - State : currentState
Logic *- - "*" StateController
StateController *- - Controller
StateController *- - State

ConsoleView *- - GameView
ConsoleView *- - StartView
ConsoleView .[#green].> StartController
ConsoleView .[#green].> ProposeCombinationController

GameView *- - ProposedCombinationView
GameView ..> ProposeCombinationController
StartView ..> StartController
ProposedCombinationView ..> ProposeCombinationController
Controller <|- - StartController
Controller <|- - ProposeCombinationController
Controller - -> Game
Controller - -> State
State *- - StateValue
}


@enduml

PlantUML version 1.2020.20(Sat Nov 21 11:02:45 CET 2020)
(GPL source distribution)
Java Runtime: OpenJDK Runtime Environment
JVM: OpenJDK 64-Bit Server VM
Default Encoding: Cp1252
Language: en
Country: GB
--></g></svg>