<?xml version="1.0" encoding="UTF-8" standalone="no"?><svg xmlns="http://www.w3.org/2000/svg" xmlns:xlink="http://www.w3.org/1999/xlink" contentScriptType="application/ecmascript" contentStyleType="text/css" height="465.92px" preserveAspectRatio="none" style="width:605px;height:465px;" version="1.1" viewBox="0 0 605 465" width="605.92px" zoomAndPan="magnify"><defs><filter height="300%" id="f1sopduzrbgqme" width="300%" x="-1" y="-1"><feGaussianBlur result="blurOut" stdDeviation="2.24"/><feColorMatrix in="blurOut" result="blurOut2" type="matrix" values="0 0 0 0 0 0 0 0 0 0 0 0 0 0 0 0 0 0 .4 0"/><feOffset dx="4.48" dy="4.48" in="blurOut2" result="blurOut3"/><feBlend in="SourceGraphic" in2="blurOut3" mode="normal"/></filter></defs><g><!--MD5=[b56d8ef9af079015670ad96965866810]
cluster mastermind--><polygon fill="#FFFFFF" filter="url(#f1sopduzrbgqme)" points="17.92,6.72,116.48,6.72,124.32,33.1625,586.88,33.1625,586.88,458.08,17.92,458.08,17.92,6.72" style="stroke: #000000; stroke-width: 1.6800000000000002;"/><line style="stroke: #000000; stroke-width: 1.6800000000000002;" x1="17.92" x2="124.32" y1="33.1625" y2="33.1625"/><text fill="#000000" font-family="sans-serif" font-size="15.68" font-weight="bold" lengthAdjust="spacingAndGlyphs" textLength="91.84" x="22.4" y="25.2372">mastermind</text><!--MD5=[a60570e4b426f702ccbb0d459e3b9417]
cluster models--><polygon fill="#FFFFFF" filter="url(#f1sopduzrbgqme)" points="44.8,56,108.64,56,116.48,82.4425,560,82.4425,560,431.2,44.8,431.2,44.8,56" style="stroke: #000000; stroke-width: 1.6800000000000002;"/><line style="stroke: #000000; stroke-width: 1.6800000000000002;" x1="44.8" x2="116.48" y1="82.4425" y2="82.4425"/><text fill="#000000" font-family="sans-serif" font-size="15.68" font-weight="bold" lengthAdjust="spacingAndGlyphs" textLength="57.12" x="49.28" y="74.5172">models</text><!--MD5=[b6dcce5e5ef3c84b0b048d11301373dd]
class Game--><rect codeLine="16" fill="#FEFECE" filter="url(#f1sopduzrbgqme)" height="53.76" id="Game" style="stroke: #A80036; stroke-width: 1.6800000000000002;" width="73.92" x="328.16" y="96.32"/><ellipse cx="344.96" cy="114.24" fill="#ADD1B2" rx="12.32" ry="12.32" style="stroke: #A80036; stroke-width: 1.12;"/><path d="M347.2,110.32 Q347.4275,109.76 347.69,109.48 Q347.9525,109.2 348.25,109.2 Q348.775,109.2 349.1075,109.515 Q349.44,109.83 349.44,110.565 L349.44,112.315 Q349.44,113.05 349.125,113.365 Q348.81,113.68 348.32,113.68 Q347.8825,113.68 347.6025,113.4875 Q347.3225,113.295 347.2,112.7875 Q347.1475,112.4375 346.955,112.245 Q346.605,111.8775 345.975,111.6675 Q345.345,111.44 344.715,111.44 Q343.9275,111.44 343.2625,111.755 Q342.615,112.07 342.1075,112.77 Q341.6,113.47 341.6,114.4325 L341.6,115.465 Q341.6,116.62 342.545,117.39 Q343.49,118.16 345.17,118.16 Q346.1675,118.16 346.8675,117.9325 Q347.27,117.81 347.725,117.4075 Q348.0225,117.18 348.18,117.11 Q348.3375,117.04 348.53,117.04 Q348.8975,117.04 349.16,117.3375 Q349.44,117.6175 349.44,118.02 Q349.44,118.405 349.055,118.86 Q348.495,119.525 347.6025,119.8925 Q346.43,120.4 344.995,120.4 Q343.315,120.4 341.9675,119.735 Q340.8825,119.21 340.1125,118.0725 Q339.36,116.935 339.36,115.5875 L339.36,114.3625 Q339.36,112.9625 340.025,111.7375 Q340.7075,110.5125 341.88,109.865 Q343.07,109.2 344.4,109.2 Q345.205,109.2 345.905,109.48 Q346.605,109.76 347.2,110.32 Z " fill="#000000"/><text fill="#000000" font-family="sans-serif" font-size="13.44" lengthAdjust="spacingAndGlyphs" textLength="38.08" x="360.64" y="119.7394">Game</text><line style="stroke: #A80036; stroke-width: 1.6800000000000002;" x1="329.28" x2="400.96" y1="132.16" y2="132.16"/><line style="stroke: #A80036; stroke-width: 1.6800000000000002;" x1="329.28" x2="400.96" y1="141.12" y2="141.12"/><!--MD5=[28491d17d5ee38c9c116625a5ffc259a]
class Combination--><rect codeLine="17" fill="#FEFECE" filter="url(#f1sopduzrbgqme)" height="53.76" id="Combination" style="stroke: #A80036; stroke-width: 1.6800000000000002;" width="115.36" x="169.68" y="237.44"/><ellipse cx="186.48" cy="255.36" fill="#ADD1B2" rx="12.32" ry="12.32" style="stroke: #A80036; stroke-width: 1.12;"/><path d="M188.72,251.44 Q188.9475,250.88 189.21,250.6 Q189.4725,250.32 189.77,250.32 Q190.295,250.32 190.6275,250.635 Q190.96,250.95 190.96,251.685 L190.96,253.435 Q190.96,254.17 190.645,254.485 Q190.33,254.8 189.84,254.8 Q189.4025,254.8 189.1225,254.6075 Q188.8425,254.415 188.72,253.9075 Q188.6675,253.5575 188.475,253.365 Q188.125,252.9975 187.495,252.7875 Q186.865,252.56 186.235,252.56 Q185.4475,252.56 184.7825,252.875 Q184.135,253.19 183.6275,253.89 Q183.12,254.59 183.12,255.5525 L183.12,256.585 Q183.12,257.74 184.065,258.51 Q185.01,259.28 186.69,259.28 Q187.6875,259.28 188.3875,259.0525 Q188.79,258.93 189.245,258.5275 Q189.5425,258.3 189.7,258.23 Q189.8575,258.16 190.05,258.16 Q190.4175,258.16 190.68,258.4575 Q190.96,258.7375 190.96,259.14 Q190.96,259.525 190.575,259.98 Q190.015,260.645 189.1225,261.0125 Q187.95,261.52 186.515,261.52 Q184.835,261.52 183.4875,260.855 Q182.4025,260.33 181.6325,259.1925 Q180.88,258.055 180.88,256.7075 L180.88,255.4825 Q180.88,254.0825 181.545,252.8575 Q182.2275,251.6325 183.4,250.985 Q184.59,250.32 185.92,250.32 Q186.725,250.32 187.425,250.6 Q188.125,250.88 188.72,251.44 Z " fill="#000000"/><text fill="#000000" font-family="sans-serif" font-size="13.44" lengthAdjust="spacingAndGlyphs" textLength="79.52" x="202.16" y="260.8594">Combination</text><line style="stroke: #A80036; stroke-width: 1.6800000000000002;" x1="170.8" x2="283.92" y1="273.28" y2="273.28"/><line style="stroke: #A80036; stroke-width: 1.6800000000000002;" x1="170.8" x2="283.92" y1="282.24" y2="282.24"/><!--MD5=[e370ee5c0c15ce04544d5f5a73174d72]
class SecretCombination--><rect codeLine="18" fill="#FEFECE" filter="url(#f1sopduzrbgqme)" height="53.76" id="SecretCombination" style="stroke: #A80036; stroke-width: 1.6800000000000002;" width="154.56" x="387.52" y="359.52"/><ellipse cx="404.32" cy="377.44" fill="#ADD1B2" rx="12.32" ry="12.32" style="stroke: #A80036; stroke-width: 1.12;"/><path d="M406.56,373.52 Q406.7875,372.96 407.05,372.68 Q407.3125,372.4 407.61,372.4 Q408.135,372.4 408.4675,372.715 Q408.8,373.03 408.8,373.765 L408.8,375.515 Q408.8,376.25 408.485,376.565 Q408.17,376.88 407.68,376.88 Q407.2425,376.88 406.9625,376.6875 Q406.6825,376.495 406.56,375.9875 Q406.5075,375.6375 406.315,375.445 Q405.965,375.0775 405.335,374.8675 Q404.705,374.64 404.075,374.64 Q403.2875,374.64 402.6225,374.955 Q401.975,375.27 401.4675,375.97 Q400.96,376.67 400.96,377.6325 L400.96,378.665 Q400.96,379.82 401.905,380.59 Q402.85,381.36 404.53,381.36 Q405.5275,381.36 406.2275,381.1325 Q406.63,381.01 407.085,380.6075 Q407.3825,380.38 407.54,380.31 Q407.6975,380.24 407.89,380.24 Q408.2575,380.24 408.52,380.5375 Q408.8,380.8175 408.8,381.22 Q408.8,381.605 408.415,382.06 Q407.855,382.725 406.9625,383.0925 Q405.79,383.6 404.355,383.6 Q402.675,383.6 401.3275,382.935 Q400.2425,382.41 399.4725,381.2725 Q398.72,380.135 398.72,378.7875 L398.72,377.5625 Q398.72,376.1625 399.385,374.9375 Q400.0675,373.7125 401.24,373.065 Q402.43,372.4 403.76,372.4 Q404.565,372.4 405.265,372.68 Q405.965,372.96 406.56,373.52 Z " fill="#000000"/><text fill="#000000" font-family="sans-serif" font-size="13.44" lengthAdjust="spacingAndGlyphs" textLength="118.72" x="420" y="382.9394">SecretCombination</text><line style="stroke: #A80036; stroke-width: 1.6800000000000002;" x1="388.64" x2="540.96" y1="395.36" y2="395.36"/><line style="stroke: #A80036; stroke-width: 1.6800000000000002;" x1="388.64" x2="540.96" y1="404.32" y2="404.32"/><!--MD5=[cf489b19c51ee25e76ddca093e62e620]
class ProposedCombination--><rect codeLine="19" fill="#FEFECE" filter="url(#f1sopduzrbgqme)" height="53.76" id="ProposedCombination" style="stroke: #A80036; stroke-width: 1.6800000000000002;" width="175.84" x="171.92" y="359.52"/><ellipse cx="188.72" cy="377.44" fill="#ADD1B2" rx="12.32" ry="12.32" style="stroke: #A80036; stroke-width: 1.12;"/><path d="M190.96,373.52 Q191.1875,372.96 191.45,372.68 Q191.7125,372.4 192.01,372.4 Q192.535,372.4 192.8675,372.715 Q193.2,373.03 193.2,373.765 L193.2,375.515 Q193.2,376.25 192.885,376.565 Q192.57,376.88 192.08,376.88 Q191.6425,376.88 191.3625,376.6875 Q191.0825,376.495 190.96,375.9875 Q190.9075,375.6375 190.715,375.445 Q190.365,375.0775 189.735,374.8675 Q189.105,374.64 188.475,374.64 Q187.6875,374.64 187.0225,374.955 Q186.375,375.27 185.8675,375.97 Q185.36,376.67 185.36,377.6325 L185.36,378.665 Q185.36,379.82 186.305,380.59 Q187.25,381.36 188.93,381.36 Q189.9275,381.36 190.6275,381.1325 Q191.03,381.01 191.485,380.6075 Q191.7825,380.38 191.94,380.31 Q192.0975,380.24 192.29,380.24 Q192.6575,380.24 192.92,380.5375 Q193.2,380.8175 193.2,381.22 Q193.2,381.605 192.815,382.06 Q192.255,382.725 191.3625,383.0925 Q190.19,383.6 188.755,383.6 Q187.075,383.6 185.7275,382.935 Q184.6425,382.41 183.8725,381.2725 Q183.12,380.135 183.12,378.7875 L183.12,377.5625 Q183.12,376.1625 183.785,374.9375 Q184.4675,373.7125 185.64,373.065 Q186.83,372.4 188.16,372.4 Q188.965,372.4 189.665,372.68 Q190.365,372.96 190.96,373.52 Z " fill="#000000"/><text fill="#000000" font-family="sans-serif" font-size="13.44" lengthAdjust="spacingAndGlyphs" textLength="140" x="204.4" y="382.9394">ProposedCombination</text><line style="stroke: #A80036; stroke-width: 1.6800000000000002;" x1="173.04" x2="346.64" y1="395.36" y2="395.36"/><line style="stroke: #A80036; stroke-width: 1.6800000000000002;" x1="173.04" x2="346.64" y1="404.32" y2="404.32"/><!--MD5=[18eee71c88ab61f27581b8cbdd3ef5ee]
class Color--><rect codeLine="20" fill="#FEFECE" filter="url(#f1sopduzrbgqme)" height="53.76" id="Color" style="stroke: #A80036; stroke-width: 1.6800000000000002;" width="69.44" x="62.72" y="359.52"/><ellipse cx="79.52" cy="377.44" fill="#EB937F" rx="12.32" ry="12.32" style="stroke: #A80036; stroke-width: 1.12;"/><path d="M77.84,378.56 L77.84,380.8 L82.32,380.8 L82.32,379.68 L82.32,379.1375 L83.02,378.56 L83.44,378.56 L83.86,378.56 L84.56,379.1375 L84.56,379.68 L84.56,383.04 L75.6,383.04 L75.0575,383.04 L74.48,382.34 L74.48,381.92 L74.48,381.5 L75.0575,380.8 L75.6,380.8 L75.6,380.8 L75.6,374.08 L75.6,374.08 L75.0575,374.08 L74.48,373.38 L74.48,372.96 L74.48,372.54 L75.0575,371.84 L75.6,371.84 L84.56,371.84 L84.56,375.2 L84.56,375.7425 L83.86,376.32 L83.44,376.32 L83.02,376.32 L82.32,375.7425 L82.32,375.2 L82.32,374.08 L77.84,374.08 L77.84,376.32 L78.96,376.32 L78.96,375.7775 L78.96,375.7775 L79.66,375.2 L80.08,375.2 L80.5,375.2 L81.2,375.7775 L81.2,376.32 L81.2,378.56 L81.2,379.1025 L80.5,379.68 L80.5,379.68 L80.08,379.68 L79.66,379.68 L78.96,379.1025 L78.96,379.1025 L78.96,378.56 L77.84,378.56 Z " fill="#000000"/><text fill="#000000" font-family="sans-serif" font-size="13.44" lengthAdjust="spacingAndGlyphs" textLength="33.6" x="95.2" y="382.9394">Color</text><line style="stroke: #A80036; stroke-width: 1.6800000000000002;" x1="63.84" x2="131.04" y1="395.36" y2="395.36"/><line style="stroke: #A80036; stroke-width: 1.6800000000000002;" x1="63.84" x2="131.04" y1="404.32" y2="404.32"/><!--MD5=[9bcb9a691789609c473493f37f542ed0]
class Attempt--><rect codeLine="21" fill="#FEFECE" filter="url(#f1sopduzrbgqme)" height="53.76" id="Attempt" style="stroke: #A80036; stroke-width: 1.6800000000000002;" width="81.76" x="324.24" y="237.44"/><ellipse cx="341.04" cy="255.36" fill="#ADD1B2" rx="12.32" ry="12.32" style="stroke: #A80036; stroke-width: 1.12;"/><path d="M343.28,251.44 Q343.5075,250.88 343.77,250.6 Q344.0325,250.32 344.33,250.32 Q344.855,250.32 345.1875,250.635 Q345.52,250.95 345.52,251.685 L345.52,253.435 Q345.52,254.17 345.205,254.485 Q344.89,254.8 344.4,254.8 Q343.9625,254.8 343.6825,254.6075 Q343.4025,254.415 343.28,253.9075 Q343.2275,253.5575 343.035,253.365 Q342.685,252.9975 342.055,252.7875 Q341.425,252.56 340.795,252.56 Q340.0075,252.56 339.3425,252.875 Q338.695,253.19 338.1875,253.89 Q337.68,254.59 337.68,255.5525 L337.68,256.585 Q337.68,257.74 338.625,258.51 Q339.57,259.28 341.25,259.28 Q342.2475,259.28 342.9475,259.0525 Q343.35,258.93 343.805,258.5275 Q344.1025,258.3 344.26,258.23 Q344.4175,258.16 344.61,258.16 Q344.9775,258.16 345.24,258.4575 Q345.52,258.7375 345.52,259.14 Q345.52,259.525 345.135,259.98 Q344.575,260.645 343.6825,261.0125 Q342.51,261.52 341.075,261.52 Q339.395,261.52 338.0475,260.855 Q336.9625,260.33 336.1925,259.1925 Q335.44,258.055 335.44,256.7075 L335.44,255.4825 Q335.44,254.0825 336.105,252.8575 Q336.7875,251.6325 337.96,250.985 Q339.15,250.32 340.48,250.32 Q341.285,250.32 341.985,250.6 Q342.685,250.88 343.28,251.44 Z " fill="#000000"/><text fill="#000000" font-family="sans-serif" font-size="13.44" lengthAdjust="spacingAndGlyphs" textLength="45.92" x="356.72" y="260.8594">Attempt</text><line style="stroke: #A80036; stroke-width: 1.6800000000000002;" x1="325.36" x2="404.88" y1="273.28" y2="273.28"/><line style="stroke: #A80036; stroke-width: 1.6800000000000002;" x1="325.36" x2="404.88" y1="282.24" y2="282.24"/><!--MD5=[b8cfd8c4119a3b0a7a46bfc5fc780f85]
class Error--><rect codeLine="22" fill="#FEFECE" filter="url(#f1sopduzrbgqme)" height="53.76" id="Error" style="stroke: #A80036; stroke-width: 1.6800000000000002;" width="66.08" x="146.16" y="96.32"/><ellipse cx="162.96" cy="114.24" fill="#ADD1B2" rx="12.32" ry="12.32" style="stroke: #A80036; stroke-width: 1.12;"/><path d="M165.2,110.32 Q165.4275,109.76 165.69,109.48 Q165.9525,109.2 166.25,109.2 Q166.775,109.2 167.1075,109.515 Q167.44,109.83 167.44,110.565 L167.44,112.315 Q167.44,113.05 167.125,113.365 Q166.81,113.68 166.32,113.68 Q165.8825,113.68 165.6025,113.4875 Q165.3225,113.295 165.2,112.7875 Q165.1475,112.4375 164.955,112.245 Q164.605,111.8775 163.975,111.6675 Q163.345,111.44 162.715,111.44 Q161.9275,111.44 161.2625,111.755 Q160.615,112.07 160.1075,112.77 Q159.6,113.47 159.6,114.4325 L159.6,115.465 Q159.6,116.62 160.545,117.39 Q161.49,118.16 163.17,118.16 Q164.1675,118.16 164.8675,117.9325 Q165.27,117.81 165.725,117.4075 Q166.0225,117.18 166.18,117.11 Q166.3375,117.04 166.53,117.04 Q166.8975,117.04 167.16,117.3375 Q167.44,117.6175 167.44,118.02 Q167.44,118.405 167.055,118.86 Q166.495,119.525 165.6025,119.8925 Q164.43,120.4 162.995,120.4 Q161.315,120.4 159.9675,119.735 Q158.8825,119.21 158.1125,118.0725 Q157.36,116.935 157.36,115.5875 L157.36,114.3625 Q157.36,112.9625 158.025,111.7375 Q158.7075,110.5125 159.88,109.865 Q161.07,109.2 162.4,109.2 Q163.205,109.2 163.905,109.48 Q164.605,109.76 165.2,110.32 Z " fill="#000000"/><text fill="#000000" font-family="sans-serif" font-size="13.44" lengthAdjust="spacingAndGlyphs" textLength="30.24" x="178.64" y="119.7394">Error</text><line style="stroke: #A80036; stroke-width: 1.6800000000000002;" x1="147.28" x2="211.12" y1="132.16" y2="132.16"/><line style="stroke: #A80036; stroke-width: 1.6800000000000002;" x1="147.28" x2="211.12" y1="141.12" y2="141.12"/><!--MD5=[2f10888865b2f559cc24db01ac34cee3]
reverse link Combination to ProposedCombination--><path codeLine="27" d="M240.2893,313.1464 C244.5598,328.9003 249.1485,345.8302 252.8064,359.3274 " fill="none" id="Combination-backto-ProposedCombination" style="stroke: #A80036; stroke-width: 1.12;"/><polygon fill="none" points="232.7002,315.1142,234.4082,291.443,247.8347,311.0128,232.7002,315.1142" style="stroke: #A80036; stroke-width: 1.12;"/><!--MD5=[ed81d3472c9069d2de3c2f5cd308846f]
reverse link Combination to SecretCombination--><path codeLine="28" d="M298.8294,301.5118 C335.8253,320.1845 380.1358,342.5486 413.663,359.4707 " fill="none" id="Combination-backto-SecretCombination" style="stroke: #A80036; stroke-width: 1.12;"/><polygon fill="none" points="295.0539,308.3875,278.5888,291.2963,302.1189,294.3898,295.0539,308.3875" style="stroke: #A80036; stroke-width: 1.12;"/><!--MD5=[29709eb267dc78b1d9e100b5a3a5fec0]
reverse link Attempt to ProposedCombination--><path codeLine="29" d="M332.6467,302.4034 C316.4504,320.8397 297.2536,342.692 282.6398,359.3274 " fill="none" id="Attempt-backto-ProposedCombination" style="stroke: #A80036; stroke-width: 1.12;"/><polygon fill="#FFFFFF" points="342.2754,291.443,334.4746,293.535,333.4053,301.5404,341.2061,299.4484,342.2754,291.443" style="stroke: #A80036; stroke-width: 1.12;"/><!--MD5=[9ead452dce5c3bdac732ae50d3b295bd]
reverse link Attempt to SecretCombination--><path codeLine="30" d="M396.3008,302.9264 C411.5429,321.2518 429.5066,342.8488 443.2131,359.3274 " fill="none" id="Attempt-backto-SecretCombination" style="stroke: #A80036; stroke-width: 1.12;"/><polygon fill="#FFFFFF" points="386.7494,291.443,387.6031,299.4742,395.3448,301.7752,394.4912,293.744,386.7494,291.443" style="stroke: #A80036; stroke-width: 1.12;"/><!--MD5=[d9249be97a352e3fe01bfc6aa6a6cdec]
reverse link Combination to Color--><path codeLine="31" d="M188.4142,301.364 C168.196,320.0131 143.9514,342.3773 125.5755,359.3274 " fill="none" id="Combination-backto-Color" style="stroke: #A80036; stroke-width: 1.12;"/><polygon fill="#A80036" points="199.1696,291.443,191.1926,292.7063,189.2906,300.5556,197.2676,299.2923,199.1696,291.443" style="stroke: #A80036; stroke-width: 1.12;"/><text fill="#000000" font-family="sans-serif" font-size="14.56" lengthAdjust="spacingAndGlyphs" textLength="5.6" x="126.4677" y="347.339">*</text><!--MD5=[6397236ca65ddb1b2c0ef8c91c288095]
reverse link Game to SecretCombination--><path codeLine="32" d="M415.8582,141.9813 C434.6922,151.2918 454.0682,164.7979 464.8,183.68 C496.5363,239.5165 482.776,318.8875 472.4362,359.3654 " fill="none" id="Game-backto-SecretCombination" style="stroke: #A80036; stroke-width: 1.12;"/><polygon fill="#A80036" points="402.3712,135.9277,406.6677,142.7665,414.6329,141.4308,410.3364,134.592,402.3712,135.9277" style="stroke: #A80036; stroke-width: 1.12;"/><!--MD5=[dd30a8d25c09949520e822d603e437c9]
reverse link Game to Attempt--><path codeLine="33" d="M313.4062,131.4723 C258.739,141.3306 184.0731,162.7416 212.8,203.84 C237.6998,239.4638 264.2237,221.452 304.64,237.44 C310.9019,239.9174 317.4886,242.62 323.9197,245.3147 " fill="none" id="Game-backto-Attempt" style="stroke: #A80036; stroke-width: 1.12;"/><polygon fill="#A80036" points="327.8442,129.0453,320.4743,125.7416,314.5902,131.274,321.9601,134.5776,327.8442,129.0453" style="stroke: #A80036; stroke-width: 1.12;"/><text fill="#000000" font-family="sans-serif" font-size="14.56" lengthAdjust="spacingAndGlyphs" textLength="101.92" x="213.92" y="199.9145">playedAttempts</text><text fill="#000000" font-family="sans-serif" font-size="14.56" lengthAdjust="spacingAndGlyphs" textLength="5.6" x="309.6571" y="237.0423">*</text><!--MD5=[dd30a8d25c09949520e822d603e437c9]
reverse link Game to Attempt--><path codeLine="34" d="M362.2965,165.0085 C361.7298,177.4674 361.4027,191.2142 361.76,203.84 C362.0691,214.7768 362.6986,226.8336 363.3302,237.2082 " fill="none" id="Game-backto-Attempt-1" style="stroke: #A80036; stroke-width: 1.12;"/><polygon fill="#A80036" points="363.1107,150.099,358.2711,156.5649,362.3781,163.5191,367.2178,157.0532,363.1107,150.099" style="stroke: #A80036; stroke-width: 1.12;"/><text fill="#000000" font-family="sans-serif" font-size="14.56" lengthAdjust="spacingAndGlyphs" textLength="96.32" x="362.88" y="199.9145">currentAttempt</text><!--MD5=[64ab2e328155ae4e7904dd333cd1e704]
@startuml
skinparam {
    BoundaryBackgroundColor #629EF9
    BoundaryBorderColor black
    BoundaryFontSize 12
    BoundarySize 10
    ControlBackgroundColor #b5bd68
    ControlBorderColor #718c00
    EntityBackgroundColor #F2AC4E
    EntityBorderColor black
}

package mastermind {

package models {

    class Game
    class Combination
    class SecretCombination
    class ProposedCombination
    Enum Color
    class Attempt
    class Error

}


Combination <|- - ProposedCombination
Combination <|- - SecretCombination
Attempt o- - ProposedCombination
Attempt o- - SecretCombination
Combination *- - "*" Color
Game *- - SecretCombination
Game *- - "*" Attempt : playedAttempts
Game *- - Attempt : currentAttempt


}


@enduml

PlantUML version 1.2020.20(Sat Nov 21 11:02:45 CET 2020)
(GPL source distribution)
Java Runtime: OpenJDK Runtime Environment
JVM: OpenJDK 64-Bit Server VM
Default Encoding: Cp1252
Language: en
Country: GB
--></g></svg>